<svg width="314" height="64" viewBox="0 0 314 64" fill="none" xmlns="http://www.w3.org/2000/svg">
<g clip-path="url(#clip0_6_5303)">
<path d="M227.765 36.6366H223.309C223.106 36.6366 222.929 36.5034 222.863 36.3089L215.501 13.0877C215.405 12.7856 215.627 12.4733 215.947 12.4733H220.402C220.605 12.4733 220.782 12.6064 220.848 12.801L228.21 36.0221C228.307 36.3242 228.084 36.6366 227.765 36.6366Z" fill="white"/>
<path d="M239.274 36.6366H234.818C234.615 36.6366 234.438 36.5034 234.373 36.3089L227.01 13.0877C226.914 12.7856 227.137 12.4733 227.455 12.4733H231.912C232.114 12.4733 232.291 12.6064 232.357 12.801L239.719 36.0221C239.815 36.3242 239.593 36.6366 239.274 36.6366Z" fill="white"/>
<path d="M243.522 12.8062C243.461 12.6116 243.279 12.4785 243.077 12.4785H238.621C238.307 12.4785 238.084 12.7857 238.175 13.0878L242.301 26.0988C242.439 26.534 243.051 26.534 243.188 26.0988L245.37 19.2169C245.431 19.0275 245.431 18.8278 245.37 18.6383L243.522 12.8011V12.8062Z" fill="white"/>
<path d="M173.651 36.6366H159.423C159.109 36.6366 158.791 36.3703 158.791 36.0016V1.16745C158.791 0.793661 159.105 0.476196 159.423 0.476196H170.71C173.495 0.476196 176.487 0.849986 178.953 2.60116C181.105 4.08608 182.629 6.42611 182.629 9.66224C182.629 13.5383 180.846 16.1907 177.956 17.5221V17.732C183.049 18.7407 185.571 22.1407 185.571 26.918C185.571 33.6616 179.637 36.6366 173.651 36.6366ZM174.487 6.31858C173.439 5.62733 172.122 5.30986 170.761 5.30986H164.669V15.8784H170.233C171.601 15.8784 173.069 15.7709 174.224 15.1871C175.641 14.4447 176.695 12.9546 176.695 10.6197C176.695 8.55108 175.803 7.16857 174.487 6.31858ZM176.745 21.5058C175.484 20.8145 173.803 20.6558 171.125 20.6558H164.669V31.808H172.385C173.854 31.808 175.221 31.6492 176.375 31.173C178.264 30.3743 179.581 28.8381 179.581 26.1806C179.581 24.2144 178.689 22.4633 176.745 21.5058Z" fill="white"/>
<path d="M192.447 15.5046C194.756 13.3284 197.961 12.0023 201.531 12.0023C205.1 12.0023 208.306 13.3284 210.614 15.5046C212.923 17.7371 214.291 20.8657 214.291 24.5831C214.291 28.3006 212.979 31.5366 210.614 33.7179C208.356 35.8941 205.049 37.1691 201.531 37.1691C198.012 37.1691 194.705 35.8941 192.447 33.7179C190.082 31.5417 188.72 28.3569 188.72 24.5831C188.72 20.8094 190.138 17.732 192.447 15.5046ZM196.123 30.2667C197.435 31.7005 199.328 32.6017 201.531 32.6017C203.733 32.6017 205.572 31.7005 206.888 30.2667C208.2 28.7819 208.99 26.8669 208.99 24.5831C208.99 22.2994 208.2 20.3895 206.888 18.8995C205.576 17.4657 203.683 16.5645 201.531 16.5645C199.379 16.5645 197.435 17.4657 196.123 18.8995C194.812 20.3844 194.072 22.2994 194.072 24.5831C194.072 26.8669 194.807 28.7768 196.123 30.2667Z" fill="white"/>
<path d="M268.125 30.958C268.596 30.6917 268.916 30.8505 269.072 31.1167L270.49 33.7691C270.702 34.0866 270.541 34.4041 270.227 34.6191C268.282 36.0016 264.819 37.1691 261.193 37.1691C257.204 37.1691 253.948 35.8429 251.74 33.4517C249.638 31.2191 248.433 28.0342 248.433 24.2656C248.433 20.7633 249.695 17.6808 251.796 15.4534C253.791 13.3284 256.733 12.0534 260.51 12.0534C264.607 12.0534 267.649 13.5947 269.487 16.0371C271.219 18.3208 271.954 21.6644 271.746 25.3306C271.695 25.7556 271.432 26.0731 271.012 26.0731H254.105C254.261 27.983 254.895 29.4167 255.892 30.533C257.204 32.0743 259.198 32.8679 261.563 32.8679C264.135 32.8679 266.288 32.0691 268.125 30.958ZM266.551 22.4069C266.444 20.7069 265.974 19.3808 264.976 18.2645C263.979 17.1483 262.454 16.4058 260.46 16.4058C258.465 16.4058 256.733 17.1483 255.679 18.372C254.788 19.432 254.211 20.8657 254.105 22.4069H266.551Z" fill="white"/>
<path d="M281.645 36.0016C281.645 36.3754 281.382 36.6366 281.017 36.6366H276.921C276.551 36.6366 276.237 36.3703 276.237 36.0016V13.1134C276.237 12.7959 276.551 12.4784 276.921 12.4784H280.804C281.174 12.4784 281.487 12.7959 281.487 13.1134V15.4483H281.645C283.113 13.2158 285.164 12.0483 287.893 12.0483C290.152 12.0483 292.147 12.7396 293.671 14.0145C293.985 14.2808 294.091 14.6495 293.934 14.9157L292.41 18.1007C292.252 18.4181 291.883 18.5257 291.463 18.2594C290.096 17.4094 288.785 16.8769 287.052 16.8769C282.957 16.8769 281.645 21.178 281.645 24.9467V36.0016Z" fill="white"/>
<path d="M307.808 30.2104C307.808 28.618 306.547 27.9267 304.972 27.1842C303.504 26.493 301.352 25.9092 299.564 25.0593C296.992 23.8356 295.625 21.8744 295.625 18.8482C295.625 14.5983 298.881 11.9971 304.709 11.9971C308.227 11.9971 310.588 12.8471 312.319 13.8046C312.739 14.0197 312.79 14.3371 312.633 14.6546L311.165 17.6808C310.952 18.0546 310.694 18.1058 310.325 17.8907C308.592 16.9332 306.755 16.457 305.023 16.457C302.764 16.457 301.19 17.1483 301.19 18.7407C301.19 20.1232 302.344 20.8094 303.762 21.4494C305.392 22.1407 307.438 22.7756 309.063 23.5744C312.162 25.1156 313.367 26.9743 313.367 29.7342C313.367 34.1429 309.747 37.1691 303.914 37.1691C299.874 37.1691 297.245 36.1604 295.564 35.0441C295.251 34.8342 295.144 34.5679 295.301 34.2453L296.77 31.2191C296.926 30.8453 297.24 30.7429 297.61 30.9529C299.498 32.1767 301.549 32.9191 303.651 32.9191C306.066 32.9191 307.798 32.0691 307.798 30.2104H307.808Z" fill="white"/>
<path d="M0 18.5308C0 8.1773 8.40028 0 18.9019 0C23.9451 0 27.3022 1.32618 29.7731 2.70869C30.1934 2.91863 30.2997 3.29242 30.087 3.60989L28.2491 7.48604C28.0921 7.91103 27.7224 7.91103 27.4085 7.7523C25.2009 6.58485 22.578 5.36107 18.745 5.36107C11.9194 5.36107 6.09134 11.2034 6.09134 18.5308C6.09134 26.3906 11.8131 31.8029 18.7955 31.8029C22.578 31.8029 25.4135 30.6354 27.6161 29.3604C27.9857 29.1454 28.244 29.2017 28.4566 29.5755L30.2947 33.5592C30.4516 33.933 30.401 34.1941 29.9807 34.4092C27.2516 35.8941 23.8894 37.1691 18.745 37.1691C7.66608 37.1691 0 29.8929 0 18.5308Z" fill="white"/>
<path d="M35.8595 15.5046C38.1684 13.3284 41.3736 12.0023 44.9434 12.0023C48.513 12.0023 51.7183 13.3284 54.0271 15.5046C56.3361 17.7371 57.7032 20.8657 57.7032 24.5831C57.7032 28.3006 56.3918 31.5366 54.0271 33.7179C51.7688 35.8941 48.4625 37.1691 44.9434 37.1691C41.4242 37.1691 38.1178 35.8941 35.8595 33.7179C33.4949 31.5417 32.1328 28.3569 32.1328 24.5831C32.1328 20.8094 33.5505 17.732 35.8595 15.5046ZM39.5355 30.2667C40.847 31.7005 42.7407 32.6017 44.9434 32.6017C47.1459 32.6017 48.984 31.7005 50.3004 30.2667C51.6119 28.7819 52.4018 26.8669 52.4018 24.5831C52.4018 22.2994 51.6119 20.3895 50.3004 18.8995C48.989 17.4657 47.0953 16.5645 44.9434 16.5645C42.7914 16.5645 40.847 17.4657 39.5355 18.8995C38.2241 20.3844 37.4849 22.2994 37.4849 24.5831C37.4849 26.8669 38.219 28.7768 39.5355 30.2667Z" fill="white"/>
<path d="M66.9794 36.0016C66.9794 36.3754 66.7161 36.6366 66.3515 36.6366H62.2552C61.8856 36.6366 61.5717 36.3703 61.5717 36.0016V13.1134C61.5717 12.7959 61.8856 12.4784 62.2552 12.4784H66.1388C66.5085 12.4784 66.8224 12.7959 66.8224 13.1134V15.4483H66.9794C68.4478 13.2158 70.4985 12.0483 73.2277 12.0483C75.486 12.0483 77.481 12.7396 79.0051 14.0145C79.319 14.2808 79.4254 14.6495 79.2685 14.9157L77.7443 18.1007C77.5873 18.4181 77.2178 18.5257 76.7974 18.2594C75.4304 17.4094 74.1189 16.8769 72.3871 16.8769C68.2909 16.8769 66.9794 21.178 66.9794 24.9467V36.0016Z" fill="white"/>
<path d="M104.839 36.0016C104.839 36.3754 104.576 36.6366 104.211 36.6366H100.064C99.6945 36.6366 99.4361 36.3703 99.4361 36.0016V23.472C99.4361 21.2958 99.1221 19.3296 97.9124 18.0546C97.0714 17.2046 95.8617 16.6721 94.0786 16.6721C91.6638 16.6721 89.7752 17.7883 88.6156 19.857C87.7244 21.5006 87.3548 23.5181 87.3548 25.4843V35.9965C87.3548 36.3703 87.0915 36.6314 86.727 36.6314H82.6306C82.2609 36.6314 81.947 36.3652 81.947 35.9965V13.1134C81.947 12.7959 82.2609 12.4784 82.6306 12.4784H86.5143C86.8839 12.4784 87.1979 12.7959 87.1979 13.1134V15.7145H87.3548C89.0865 13.2721 91.8157 11.9971 95.1271 11.9971C97.8568 11.9971 100.327 12.6884 102.059 14.2808C103.847 15.8733 104.844 18.4745 104.844 22.1407V36.0016H104.839Z" fill="white"/>
<path d="M128.243 30.958C128.713 30.6917 129.032 30.8505 129.189 31.1167L130.607 33.7691C130.819 34.0866 130.657 34.4041 130.343 34.6191C128.399 36.0016 124.936 37.1691 121.31 37.1691C117.32 37.1691 114.064 35.8429 111.857 33.4517C109.755 31.2191 108.55 28.0342 108.55 24.2656C108.55 20.7633 109.811 17.6808 111.913 15.4534C113.908 13.3284 116.85 12.0534 120.627 12.0534C124.723 12.0534 127.766 13.5947 129.604 16.0371C131.336 18.3208 132.07 21.6644 131.862 25.3306C131.812 25.7556 131.548 26.0731 131.129 26.0731H114.222C114.378 27.983 115.011 29.4167 116.009 30.533C117.32 32.0743 119.315 32.8679 121.68 32.8679C124.252 32.8679 126.404 32.0691 128.243 30.958ZM126.668 22.4069C126.561 20.7069 126.09 19.3808 125.092 18.2645C124.095 17.1483 122.571 16.4058 120.576 16.4058C118.581 16.4058 116.85 17.1483 115.796 18.372C114.905 19.432 114.327 20.8657 114.222 22.4069H126.668Z" fill="white"/>
<path d="M137.033 0.476196H141.129C141.498 0.476196 141.757 0.793661 141.757 1.16745V36.0016C141.757 36.3754 141.494 36.6366 141.129 36.6366H137.033C136.663 36.6366 136.349 36.3703 136.349 36.0016V1.16745C136.349 0.793661 136.663 0.476196 137.033 0.476196Z" fill="white"/>
<path d="M148.273 0.476196H152.37C152.739 0.476196 152.998 0.793661 152.998 1.16745V36.0016C152.998 36.3754 152.735 36.6366 152.37 36.6366H148.273C147.903 36.6366 147.59 36.3703 147.59 36.0016V1.16745C147.59 0.793661 147.903 0.476196 148.273 0.476196Z" fill="white"/>
<path d="M1.70136 54.4402C1.70136 51.24 4.33942 48.6183 7.5699 48.6183C9.16996 48.6183 10.2232 49.0689 10.9979 49.5195C11.1143 49.5861 11.1447 49.668 11.0991 49.7704L10.7042 50.605C10.6535 50.7228 10.5574 50.7074 10.4712 50.6562C9.79275 50.2722 8.88641 49.8216 7.53446 49.8216C5.10906 49.8216 3.06342 51.921 3.06342 54.4402C3.06342 57.2103 5.12425 59.0946 7.54964 59.0946C8.8864 59.0946 9.84342 58.6594 10.5168 58.2446C10.6181 58.1781 10.6839 58.1934 10.7498 58.2958L11.1447 59.1612C11.1802 59.2431 11.1599 59.3097 11.0637 59.3762C10.2232 59.8576 9.16489 60.2928 7.53446 60.2928C4.2027 60.2928 1.69629 57.9937 1.69629 54.4402H1.70136Z" fill="white"/>
<path d="M13.322 53.5902C14.0309 52.8734 15.0385 52.4586 16.1575 52.4586C17.2765 52.4586 18.2842 52.8734 18.993 53.5902C19.6867 54.2763 20.0969 55.2389 20.0969 56.3757C20.0969 57.5124 19.6867 58.475 18.993 59.1612C18.2842 59.878 17.2765 60.2928 16.1575 60.2928C15.0385 60.2928 14.0309 59.878 13.322 59.1612C12.6283 58.475 12.2181 57.5124 12.2181 56.3757C12.2181 55.2389 12.6283 54.2763 13.322 53.5902ZM14.1473 58.4136C14.6232 58.9615 15.3322 59.2994 16.1575 59.2994C16.9829 59.2994 17.6917 58.9666 18.1677 58.4136C18.6437 57.8964 18.9121 57.1796 18.9121 56.3808C18.9121 55.582 18.6487 54.8651 18.1677 54.348C17.6917 53.8001 16.9829 53.4622 16.1575 53.4622C15.3322 53.4622 14.6232 53.795 14.1473 54.348C13.6713 54.8651 13.403 55.582 13.403 56.3808C13.403 57.1796 13.6663 57.8964 14.1473 58.4136Z" fill="white"/>
<path d="M22.1122 48.7719H23.0033C23.0843 48.7719 23.1501 48.8538 23.1501 48.9409V59.9805C23.1501 60.0624 23.0843 60.1289 23.0033 60.1289H22.1122C22.0311 60.1289 21.9451 60.0624 21.9451 59.9805V48.9409C21.9451 48.859 22.026 48.7719 22.1122 48.7719Z" fill="white"/>
<path d="M25.5907 48.7719H26.4818C26.5629 48.7719 26.6287 48.8538 26.6287 48.9409V59.9805C26.6287 60.0624 26.5629 60.1289 26.4818 60.1289H25.5907C25.5096 60.1289 25.4236 60.0624 25.4236 59.9805V48.9409C25.4236 48.859 25.5046 48.7719 25.5907 48.7719Z" fill="white"/>
<path d="M34.7454 58.6287C34.8771 58.5468 34.9581 58.5929 34.9935 58.6646L35.3074 59.279C35.3581 59.3609 35.3226 59.4275 35.2416 59.494C34.6341 59.9088 33.5605 60.2928 32.4061 60.2928C31.1706 60.2928 30.1477 59.8576 29.4693 59.0742C28.8415 58.3727 28.4971 57.405 28.4971 56.2734C28.4971 55.2083 28.8616 54.2405 29.4845 53.5544C30.1073 52.8683 31.0187 52.4535 32.2036 52.4535C33.3884 52.4535 34.3302 52.9348 34.9075 53.6517C35.4493 54.3532 35.748 55.3363 35.6821 56.5191C35.6821 56.6369 35.6012 56.7035 35.4846 56.7035H29.7478C29.7985 57.3384 30.0111 57.9221 30.3908 58.3727C30.8668 58.9564 31.5959 59.2892 32.5023 59.2892C33.4086 59.2892 34.1328 58.9871 34.7454 58.6236V58.6287ZM34.5277 55.8279C34.4922 55.1417 34.2796 54.5785 33.9201 54.1586C33.5403 53.7439 32.9479 53.4418 32.2036 53.4418C31.3782 53.4418 30.7504 53.7439 30.3402 54.2252C29.9959 54.6399 29.7782 55.2237 29.7478 55.8279H34.5277Z" fill="white"/>
<path d="M42.1583 62.3615C42.538 61.9262 42.7203 61.3118 42.7203 60.4925V59.5247C42.0419 60.0931 41.333 60.2774 40.4924 60.2774C39.4393 60.2774 38.6443 59.878 38.0873 59.2431C37.4442 58.5109 37.1151 57.4766 37.1151 56.3603C37.1151 55.244 37.4138 54.2404 38.0569 53.4929C38.619 52.858 39.4241 52.4586 40.4823 52.4586C41.5406 52.4586 42.2292 52.858 42.7102 53.242H42.7609V52.7607C42.7609 52.6788 42.8267 52.5918 42.9077 52.5918H43.7634C43.8647 52.5918 43.9305 52.6737 43.9305 52.7607V60.3645C43.9305 61.5627 43.6318 62.4997 42.9888 63.1346C42.4115 63.7184 41.5355 64 40.4165 64C39.2975 64 38.3556 63.6518 37.6974 63.2012C37.6164 63.15 37.5809 63.0834 37.6316 63.0015L37.9607 62.3359C38.0114 62.2539 38.0923 62.2181 38.2088 62.3C38.8165 62.7148 39.5456 63.0169 40.4367 63.0169C41.2267 63.0169 41.8039 62.7813 42.1685 62.3666L42.1583 62.3615ZM42.7203 54.3224C42.29 53.9742 41.6672 53.457 40.6241 53.457C39.9 53.457 39.3379 53.7591 38.9734 54.2251C38.5278 54.773 38.3304 55.541 38.3304 56.3449C38.3304 57.1949 38.5278 57.9784 38.9582 58.5109C39.3379 58.9768 39.8646 59.2636 40.6088 59.2636C41.4849 59.2636 42.1583 58.9461 42.7203 58.4648V54.3224Z" fill="white"/>
<path d="M52.0574 58.6287C52.1891 58.5468 52.2701 58.5929 52.3056 58.6646L52.6195 59.279C52.6701 59.3609 52.6347 59.4275 52.5537 59.494C51.9461 59.9088 50.8727 60.2928 49.7182 60.2928C48.4826 60.2928 47.4599 59.8576 46.7813 59.0742C46.1535 58.3727 45.8092 57.405 45.8092 56.2734C45.8092 55.2083 46.1737 54.2405 46.7965 53.5544C47.4193 52.8683 48.3307 52.4535 49.5156 52.4535C50.7005 52.4535 51.6423 52.9348 52.2195 53.6517C52.7613 54.3532 53.06 55.3363 52.9942 56.5191C52.9942 56.6369 52.9132 56.7035 52.7968 56.7035H47.0598C47.1105 57.3384 47.3232 57.9221 47.7029 58.3727C48.1788 58.9564 48.908 59.2892 49.8143 59.2892C50.7208 59.2892 51.4448 58.9871 52.0574 58.6236V58.6287ZM51.8398 55.8279C51.8043 55.1417 51.5916 54.5785 51.2321 54.1586C50.8524 53.7439 50.2599 53.4418 49.5156 53.4418C48.6902 53.4418 48.0624 53.7439 47.6523 54.2252C47.308 54.6399 47.0902 55.2237 47.0598 55.8279H51.8398Z" fill="white"/>
<path d="M59.7387 53.5902C60.4476 52.8734 61.4552 52.4586 62.5742 52.4586C63.6933 52.4586 64.7008 52.8734 65.4098 53.5902C66.1035 54.2763 66.5136 55.2389 66.5136 56.3757C66.5136 57.5124 66.1035 58.475 65.4098 59.1612C64.7008 59.878 63.6933 60.2928 62.5742 60.2928C61.4552 60.2928 60.4476 59.878 59.7387 59.1612C59.045 58.475 58.6349 57.5124 58.6349 56.3757C58.6349 55.2389 59.045 54.2763 59.7387 53.5902ZM60.564 58.4136C61.04 58.9615 61.7489 59.2994 62.5742 59.2994C63.3995 59.2994 64.1085 58.9666 64.5844 58.4136C65.0604 57.8964 65.3287 57.1796 65.3287 56.3808C65.3287 55.582 65.0654 54.8651 64.5844 54.348C64.1085 53.8001 63.3995 53.4622 62.5742 53.4622C61.7489 53.4622 61.04 53.795 60.564 54.348C60.0881 54.8651 59.8197 55.582 59.8197 56.3808C59.8197 57.1796 60.083 57.8964 60.564 58.4136Z" fill="white"/>
<path d="M70.1289 50.0725C69.8656 50.39 69.7846 50.8918 69.7846 51.5216V52.5865H72.0125C72.0936 52.5865 72.1593 52.6685 72.1593 52.7555V53.4058C72.1593 53.4877 72.0936 53.5543 72.0125 53.5543H69.7846V59.9753C69.7846 60.0573 69.7187 60.1238 69.6175 60.1238H68.7264C68.6453 60.1238 68.5794 60.0573 68.5794 59.9753V53.5543H67.6225C67.5415 53.5543 67.4554 53.4877 67.4554 53.4058V52.7555C67.4554 52.6736 67.5364 52.5865 67.6225 52.5865H68.5794V51.4038C68.5794 50.5385 68.7466 49.7346 69.2377 49.2174C69.6023 48.8487 70.1289 48.6337 70.853 48.6337C71.7594 48.6337 72.5493 48.9358 73.0607 49.3352C73.1416 49.3864 73.1619 49.4836 73.1265 49.5502L72.8277 50.1647C72.7771 50.2671 72.6606 50.2824 72.5645 50.2159C72.1037 49.8472 71.6227 49.668 71.0961 49.668C70.6505 49.668 70.3366 49.8011 70.1239 50.0674L70.1289 50.0725Z" fill="white"/>
<path d="M77.5672 54.4402C77.5672 51.24 80.2053 48.6183 83.4358 48.6183C85.0358 48.6183 86.089 49.0689 86.8638 49.5195C86.9802 49.5861 87.0106 49.668 86.965 49.7704L86.57 50.605C86.5194 50.7228 86.4232 50.7074 86.3371 50.6562C85.6586 50.2722 84.7523 49.8216 83.4003 49.8216C80.9749 49.8216 78.9293 51.921 78.9293 54.4402C78.9293 57.2103 80.9901 59.0946 83.4155 59.0946C84.7523 59.0946 85.7093 58.6594 86.3827 58.2446C86.484 58.1781 86.5498 58.1934 86.6156 58.2958L87.0106 59.1612C87.0461 59.2431 87.0258 59.3097 86.9295 59.3762C86.089 59.8576 85.0308 60.2928 83.4003 60.2928C80.0686 60.2928 77.5621 57.9937 77.5621 54.4402H77.5672Z" fill="white"/>
<path d="M89.1878 53.5902C89.8967 52.8734 90.9043 52.4586 92.0233 52.4586C93.1423 52.4586 94.15 52.8734 94.8586 53.5902C95.5524 54.2763 95.9627 55.2389 95.9627 56.3757C95.9627 57.5124 95.5524 58.475 94.8586 59.1612C94.15 59.878 93.1423 60.2928 92.0233 60.2928C90.9043 60.2928 89.8967 59.878 89.1878 59.1612C88.4941 58.475 88.084 57.5124 88.084 56.3757C88.084 55.2389 88.4941 54.2763 89.1878 53.5902ZM90.0132 58.4136C90.4891 58.9615 91.198 59.2994 92.0233 59.2994C92.8486 59.2994 93.5572 58.9666 94.0333 58.4136C94.5094 57.8964 94.778 57.1796 94.778 56.3808C94.778 55.582 94.515 54.8651 94.0333 54.348C93.5572 53.8001 92.8486 53.4622 92.0233 53.4622C91.198 53.4622 90.4891 53.795 90.0132 54.348C89.5372 54.8651 89.2688 55.582 89.2688 56.3808C89.2688 57.1796 89.5322 57.8964 90.0132 58.4136Z" fill="white"/>
<path d="M99.0313 53.4929C99.5278 52.8273 100.267 52.4586 101.208 52.4586C101.836 52.4586 102.429 52.6071 102.889 52.9604C103.254 53.2267 103.517 53.5748 103.679 54.0254C103.862 53.626 104.155 53.1908 104.667 52.858C105.112 52.5764 105.654 52.4586 106.201 52.4586C106.976 52.4586 107.7 52.6583 108.232 53.1908C108.707 53.6567 109.021 54.3889 109.021 55.4898V59.9753C109.021 60.0573 108.955 60.1238 108.875 60.1238H107.968C107.887 60.1238 107.801 60.0573 107.801 59.9753V55.7919C107.801 55.0239 107.634 54.4094 107.305 54.0407C106.991 53.6926 106.53 53.5236 105.953 53.5236C105.346 53.5236 104.798 53.7591 104.455 54.3224C104.141 54.8549 104.024 55.541 104.024 56.391V59.9753C104.024 60.0573 103.958 60.1238 103.877 60.1238H102.971C102.889 60.1238 102.803 60.0573 102.803 59.9753V55.7919C102.803 55.0239 102.636 54.4094 102.308 54.0407C101.994 53.6926 101.532 53.5236 100.955 53.5236C100.348 53.5236 99.8011 53.7591 99.4565 54.3224C99.1934 54.773 99.0258 55.4386 99.0258 56.2221V59.9753C99.0258 60.0573 98.96 60.1238 98.8794 60.1238H97.9726C97.8921 60.1238 97.8059 60.0573 97.8059 59.9753V52.7556C97.8059 52.6737 97.8865 52.5866 97.9726 52.5866H98.8137C98.8943 52.5866 98.9804 52.6686 98.9804 52.7556V53.4878H99.0313V53.4929Z" fill="white"/>
<path d="M113.65 52.4586C114.935 52.4586 116.055 52.8068 116.85 53.5441C117.543 54.1944 117.989 55.1468 117.989 56.3603C117.989 57.5738 117.624 58.4955 117.047 59.11C116.287 59.96 115.169 60.2928 114.212 60.2928C113.502 60.2928 113.007 60.2109 112.465 59.96V63.831C112.465 63.913 112.399 63.9795 112.318 63.9795H111.426C111.346 63.9795 111.26 63.913 111.26 63.831V52.8734C111.26 52.771 111.31 52.689 111.441 52.6583C112.034 52.5406 112.859 52.4586 113.65 52.4586ZM112.459 58.9461C112.956 59.197 113.401 59.2943 114.089 59.2943C114.717 59.2943 115.477 59.0946 116.035 58.5263C116.495 58.0757 116.778 57.3434 116.778 56.3603C116.778 55.4591 116.501 54.7576 115.988 54.2609C115.447 53.7284 114.667 53.4417 113.761 53.4417C113.33 53.4417 112.855 53.4929 112.459 53.5441V58.9461Z" fill="white"/>
<path d="M119.746 52.7607C119.746 52.6788 119.812 52.5918 119.892 52.5918H120.783C120.885 52.5918 120.951 52.6737 120.951 52.7607V56.8315C120.951 57.4971 121.032 57.8965 121.249 58.3011C121.563 58.8336 122.191 59.2176 123.179 59.2176C124.166 59.2176 124.809 58.8489 125.092 58.3164C125.326 57.917 125.392 57.4971 125.392 56.8315V52.7607C125.392 52.6788 125.472 52.5918 125.558 52.5918H126.449C126.531 52.5918 126.597 52.6737 126.597 52.7607V56.9441C126.597 57.9119 126.43 58.511 126.055 59.0794C125.529 59.8628 124.521 60.298 123.183 60.298C121.847 60.298 120.824 59.8628 120.298 59.0794C119.918 58.511 119.756 57.9119 119.756 56.9441V52.7607H119.746Z" fill="white"/>
<path d="M130.257 57.4766C130.257 57.9937 130.323 58.4085 130.505 58.6952C130.718 59.0639 131.083 59.2431 131.675 59.2431C132.121 59.2431 132.552 59.1253 133.028 58.7772C133.143 58.6952 133.225 58.7106 133.275 58.7925L133.574 59.4428C133.625 59.5247 133.589 59.5913 133.508 59.6579C132.931 60.0726 132.172 60.2928 131.382 60.2928C130.491 60.2928 129.914 60.0112 129.553 59.5606C129.174 59.0793 129.042 58.3778 129.042 57.6251V53.5544H128.167C128.085 53.5544 127.999 53.4878 127.999 53.4059V52.7556C127.999 52.6737 128.081 52.5866 128.167 52.5866H129.042V51.1376C129.042 51.0556 129.123 50.9686 129.21 50.9686H130.101C130.181 50.9686 130.267 51.0505 130.267 51.1376V52.5866H132.855C132.936 52.5866 133.022 52.6686 133.022 52.7556V53.4059C133.022 53.4878 132.942 53.5544 132.855 53.5544H130.267V57.4714L130.257 57.4766Z" fill="white"/>
<path d="M134.699 49.0074C134.699 48.6081 135.027 48.2906 135.422 48.2906C135.818 48.2906 136.146 48.6081 136.146 49.0074C136.146 49.4068 135.818 49.7397 135.422 49.7397C135.027 49.7397 134.699 49.4222 134.699 49.0074ZM134.997 52.5918H135.888C135.969 52.5918 136.035 52.6737 136.035 52.7607V59.9805C136.035 60.0624 135.969 60.1289 135.888 60.1289H134.997C134.916 60.1289 134.83 60.0624 134.83 59.9805V52.7607C134.83 52.6788 134.911 52.5918 134.997 52.5918Z" fill="white"/>
<path d="M139.539 53.8769C140.05 52.8939 141.038 52.4586 142.147 52.4586C143.038 52.4586 143.777 52.6737 144.308 53.1447C144.886 53.6618 145.199 54.4965 145.199 55.6639V59.9805C145.199 60.0624 145.119 60.1289 145.033 60.1289H144.157C144.076 60.1289 143.99 60.0624 143.99 59.9805V55.9302C143.99 55.0956 143.822 54.4299 143.382 54.01C143.052 53.6926 142.592 53.5287 141.913 53.5287C141.058 53.5287 140.379 53.9127 139.969 54.6808C139.655 55.2799 139.539 55.9967 139.539 56.6675V59.9856C139.539 60.0675 139.473 60.1341 139.392 60.1341H138.486C138.405 60.1341 138.318 60.0675 138.318 59.9856V52.7658C138.318 52.6839 138.4 52.5969 138.486 52.5969H139.326C139.407 52.5969 139.493 52.6788 139.493 52.7658V53.882H139.544L139.539 53.8769Z" fill="white"/>
<path d="M152.041 62.3615C152.421 61.9262 152.602 61.3118 152.602 60.4925V59.5247C151.924 60.0931 151.215 60.2774 150.374 60.2774C149.321 60.2774 148.527 59.878 147.97 59.2431C147.326 58.5109 146.997 57.4766 146.997 56.3603C146.997 55.244 147.296 54.2404 147.939 53.4929C148.502 52.858 149.306 52.4586 150.364 52.4586C151.423 52.4586 152.111 52.858 152.593 53.242H152.643V52.7607C152.643 52.6788 152.709 52.5918 152.79 52.5918H153.646C153.747 52.5918 153.813 52.6737 153.813 52.7607V60.3645C153.813 61.5627 153.514 62.4997 152.871 63.1346C152.294 63.7184 151.417 64 150.298 64C149.18 64 148.238 63.6518 147.58 63.2012C147.498 63.15 147.463 63.0834 147.513 63.0015L147.843 62.3359C147.894 62.2539 147.975 62.2181 148.091 62.3C148.699 62.7148 149.428 63.0169 150.319 63.0169C151.109 63.0169 151.686 62.7813 152.051 62.3666L152.041 62.3615ZM152.602 54.3224C152.172 53.9742 151.549 53.457 150.506 53.457C149.783 53.457 149.22 53.7591 148.855 54.2251C148.41 54.773 148.213 55.541 148.213 56.3449C148.213 57.1949 148.41 57.9784 148.841 58.5109C149.22 58.9768 149.746 59.2636 150.491 59.2636C151.367 59.2636 152.041 58.9461 152.602 58.4648V54.3224Z" fill="white"/>
<path d="M164.355 53.6773H167.621C167.702 53.6773 167.768 53.7439 167.768 53.8258V54.6604C167.768 54.7423 167.702 54.8294 167.621 54.8294H164.355V58.1167C164.355 58.1986 164.289 58.2857 164.208 58.2857H163.383C163.301 58.2857 163.215 58.2038 163.215 58.1167V54.8294H159.965C159.884 54.8294 159.818 54.7475 159.818 54.6604V53.8258C159.818 53.7439 159.884 53.6773 159.965 53.6773H163.215V50.39C163.215 50.308 163.297 50.221 163.383 50.221H164.208C164.289 50.221 164.355 50.3029 164.355 50.39V53.6773Z" fill="white"/>
<path d="M174.988 48.7719C175.069 48.7719 175.156 48.8538 175.156 48.9409V59.9805C175.156 60.0624 175.074 60.1289 174.988 60.1289H173.98C173.9 60.1289 173.834 60.0624 173.834 59.9805V48.9409C173.834 48.859 173.9 48.7719 173.98 48.7719H174.988Z" fill="white"/>
<path d="M178.831 53.8769C179.343 52.8939 180.33 52.4586 181.439 52.4586C182.33 52.4586 183.069 52.6737 183.601 53.1447C184.178 53.6618 184.492 54.4965 184.492 55.6639V59.9805C184.492 60.0624 184.412 60.1289 184.325 60.1289H183.449C183.369 60.1289 183.282 60.0624 183.282 59.9805V55.9302C183.282 55.0956 183.115 54.4299 182.675 54.01C182.345 53.6926 181.885 53.5287 181.206 53.5287C180.35 53.5287 179.672 53.9127 179.262 54.6808C178.948 55.2799 178.831 55.9967 178.831 56.6675V59.9856C178.831 60.0675 178.765 60.1341 178.684 60.1341H177.778C177.697 60.1341 177.611 60.0675 177.611 59.9856V52.7658C177.611 52.6839 177.692 52.5969 177.778 52.5969H178.619C178.699 52.5969 178.785 52.6788 178.785 52.7658V53.882H178.836L178.831 53.8769Z" fill="white"/>
<path d="M188.503 50.0725C188.239 50.39 188.158 50.8918 188.158 51.5216V52.5865H190.386C190.467 52.5865 190.533 52.6685 190.533 52.7555V53.4058C190.533 53.4877 190.467 53.5543 190.386 53.5543H188.158V59.9753C188.158 60.0573 188.092 60.1238 187.991 60.1238H187.099C187.019 60.1238 186.953 60.0573 186.953 59.9753V53.5543H185.996C185.915 53.5543 185.829 53.4877 185.829 53.4058V52.7555C185.829 52.6736 185.91 52.5865 185.996 52.5865H186.953V51.4038C186.953 50.5385 187.12 49.7346 187.612 49.2174C187.976 48.8487 188.503 48.6337 189.226 48.6337C190.133 48.6337 190.923 48.9358 191.434 49.3352C191.515 49.3864 191.535 49.4836 191.5 49.5502L191.201 50.1647C191.151 50.2671 191.034 50.2824 190.938 50.2159C190.477 49.8472 189.996 49.668 189.47 49.668C189.024 49.668 188.71 49.8011 188.497 50.0674L188.503 50.0725Z" fill="white"/>
<path d="M192.472 53.5902C193.181 52.8734 194.189 52.4586 195.308 52.4586C196.427 52.4586 197.435 52.8734 198.143 53.5902C198.837 54.2763 199.247 55.2389 199.247 56.3757C199.247 57.5124 198.837 58.475 198.143 59.1612C197.435 59.878 196.427 60.2928 195.308 60.2928C194.189 60.2928 193.181 59.878 192.472 59.1612C191.779 58.475 191.369 57.5124 191.369 56.3757C191.369 55.2389 191.779 54.2763 192.472 53.5902ZM193.292 58.4136C193.769 58.9615 194.477 59.2994 195.302 59.2994C196.128 59.2994 196.837 58.9666 197.313 58.4136C197.789 57.8964 198.057 57.1796 198.057 56.3808C198.057 55.582 197.794 54.8651 197.313 54.348C196.837 53.8001 196.128 53.4622 195.302 53.4622C194.477 53.4622 193.769 53.795 193.292 54.348C192.816 54.8651 192.548 55.582 192.548 56.3808C192.548 57.1796 192.812 57.8964 193.292 58.4136Z" fill="white"/>
<path d="M202.873 54.2405C202.462 54.8089 202.31 55.7101 202.31 56.4423V59.9753C202.31 60.0573 202.245 60.1238 202.164 60.1238H201.257C201.177 60.1238 201.091 60.0573 201.091 59.9753V52.7556C201.091 52.6737 201.171 52.5866 201.257 52.5866H202.097C202.179 52.5866 202.265 52.6686 202.265 52.7556V53.6722H202.316C202.696 52.8734 203.419 52.4535 204.412 52.4535C205.136 52.4535 205.714 52.6686 206.194 53.0526C206.275 53.1192 206.295 53.1857 206.245 53.2677L205.88 54.0204C205.829 54.1023 205.734 54.1228 205.632 54.0562C205.237 53.7746 204.792 53.5749 204.215 53.5749C203.673 53.5749 203.207 53.7899 202.877 54.2405H202.873Z" fill="white"/>
<path d="M208.711 53.4929C209.207 52.8273 209.947 52.4586 210.889 52.4586C211.516 52.4586 212.108 52.6071 212.569 52.9604C212.934 53.2267 213.197 53.5748 213.359 54.0254C213.541 53.626 213.835 53.1908 214.346 52.858C214.792 52.5764 215.334 52.4586 215.881 52.4586C216.655 52.4586 217.38 52.6583 217.911 53.1908C218.387 53.6567 218.701 54.3889 218.701 55.4898V59.9753C218.701 60.0573 218.635 60.1238 218.554 60.1238H217.647C217.567 60.1238 217.481 60.0573 217.481 59.9753V55.7919C217.481 55.0239 217.314 54.4094 216.984 54.0407C216.67 53.6926 216.21 53.5236 215.633 53.5236C215.025 53.5236 214.478 53.7591 214.134 54.3224C213.82 54.8549 213.703 55.541 213.703 56.391V59.9753C213.703 60.0573 213.638 60.1238 213.556 60.1238H212.65C212.569 60.1238 212.483 60.0573 212.483 59.9753V55.7919C212.483 55.0239 212.316 54.4094 211.987 54.0407C211.673 53.6926 211.212 53.5236 210.635 53.5236C210.027 53.5236 209.481 53.7591 209.136 54.3224C208.873 54.773 208.705 55.4386 208.705 56.2221V59.9753C208.705 60.0573 208.64 60.1238 208.559 60.1238H207.652C207.572 60.1238 207.485 60.0573 207.485 59.9753V52.7556C207.485 52.6737 207.566 52.5866 207.652 52.5866H208.493C208.574 52.5866 208.66 52.6686 208.66 52.7556V53.4878H208.711V53.4929Z" fill="white"/>
<path d="M221.278 54.1279C221.162 54.1945 221.081 54.1637 221.046 54.0767L220.767 53.4622C220.716 53.3598 220.732 53.3137 220.848 53.2472C221.607 52.73 222.66 52.4637 223.684 52.4637C224.392 52.4637 225.269 52.5969 225.861 53.283C226.24 53.7183 226.468 54.3481 226.468 55.3158V59.9856C226.468 60.0675 226.402 60.1341 226.322 60.1341H225.547C225.466 60.1341 225.4 60.0675 225.4 59.9856V59.7193H225.334C224.575 60.1699 223.916 60.303 223.091 60.303C222.412 60.303 221.754 60.1341 221.243 59.7705C220.747 59.4018 220.402 58.854 220.402 58.0859C220.402 57.0516 221.03 56.4679 221.937 56.1197C222.944 55.7357 224.276 55.6384 225.269 55.5872V55.3363C225.269 54.6707 225.152 54.2713 224.889 53.9538C224.559 53.5698 224.033 53.452 223.537 53.452C222.595 53.452 221.906 53.7695 221.278 54.1381V54.1279ZM225.269 58.8437V56.4935C224.493 56.5294 223.572 56.5755 222.812 56.7956C222.104 56.9799 221.557 57.3435 221.557 58.0142C221.557 58.9461 222.514 59.3302 223.436 59.3302C224.064 59.3302 224.691 59.1458 225.263 58.8488L225.269 58.8437Z" fill="white"/>
<path d="M230.013 57.4766C230.013 57.9937 230.079 58.4085 230.261 58.6952C230.473 59.0639 230.838 59.2431 231.431 59.2431C231.876 59.2431 232.306 59.1253 232.782 58.7772C232.899 58.6952 232.98 58.7106 233.031 58.7925L233.329 59.4428C233.38 59.5247 233.345 59.5913 233.263 59.6579C232.686 60.0726 231.926 60.2928 231.136 60.2928C230.245 60.2928 229.668 60.0112 229.309 59.5606C228.929 59.0793 228.798 58.3778 228.798 57.6251V53.5544H227.921C227.841 53.5544 227.755 53.4878 227.755 53.4059V52.7556C227.755 52.6737 227.835 52.5866 227.921 52.5866H228.798V51.1376C228.798 51.0556 228.878 50.9686 228.964 50.9686H229.855C229.937 50.9686 230.023 51.0505 230.023 51.1376V52.5866H232.61C232.692 52.5866 232.778 52.6686 232.778 52.7556V53.4059C232.778 53.4878 232.696 53.5544 232.61 53.5544H230.023V57.4714L230.013 57.4766Z" fill="white"/>
<path d="M234.453 49.0074C234.453 48.6081 234.782 48.2906 235.178 48.2906C235.572 48.2906 235.902 48.6081 235.902 49.0074C235.902 49.4068 235.572 49.7397 235.178 49.7397C234.782 49.7397 234.453 49.4222 234.453 49.0074ZM234.753 52.5918H235.644C235.724 52.5918 235.79 52.6737 235.79 52.7607V59.9805C235.79 60.0624 235.724 60.1289 235.644 60.1289H234.753C234.671 60.1289 234.585 60.0624 234.585 59.9805V52.7607C234.585 52.6788 234.666 52.5918 234.753 52.5918Z" fill="white"/>
<path d="M238.711 53.5902C239.421 52.8734 240.429 52.4586 241.548 52.4586C242.666 52.4586 243.674 52.8734 244.383 53.5902C245.077 54.2763 245.487 55.2389 245.487 56.3757C245.487 57.5124 245.077 58.475 244.383 59.1612C243.674 59.878 242.666 60.2928 241.548 60.2928C240.429 60.2928 239.421 59.878 238.711 59.1612C238.018 58.475 237.608 57.5124 237.608 56.3757C237.608 55.2389 238.018 54.2763 238.711 53.5902ZM239.538 58.4136C240.013 58.9615 240.722 59.2994 241.548 59.2994C242.373 59.2994 243.081 58.9666 243.557 58.4136C244.034 57.8964 244.302 57.1796 244.302 56.3808C244.302 55.582 244.038 54.8651 243.557 54.348C243.081 53.8001 242.373 53.4622 241.548 53.4622C240.722 53.4622 240.013 53.795 239.538 54.348C239.061 54.8651 238.793 55.582 238.793 56.3808C238.793 57.1796 239.056 57.8964 239.538 58.4136Z" fill="white"/>
<path d="M248.556 53.8769C249.067 52.8939 250.054 52.4586 251.163 52.4586C252.054 52.4586 252.793 52.6737 253.325 53.1447C253.902 53.6618 254.216 54.4965 254.216 55.6639V59.9805C254.216 60.0624 254.135 60.1289 254.049 60.1289H253.173C253.092 60.1289 253.006 60.0624 253.006 59.9805V55.9302C253.006 55.0956 252.838 54.4299 252.399 54.01C252.069 53.6926 251.608 53.5287 250.929 53.5287C250.075 53.5287 249.396 53.9127 248.985 54.6808C248.671 55.2799 248.556 55.9967 248.556 56.6675V59.9856C248.556 60.0675 248.489 60.1341 248.408 60.1341H247.501C247.421 60.1341 247.335 60.0675 247.335 59.9856V52.7658C247.335 52.6839 247.416 52.5969 247.501 52.5969H248.342C248.423 52.5969 248.509 52.6788 248.509 52.7658V53.882H248.56L248.556 53.8769Z" fill="white"/>
<path d="M260.226 59.2124C260.125 59.1612 260.095 59.0793 260.146 58.9768L260.555 58.1269C260.591 58.0449 260.657 58.0091 260.768 58.0757C261.462 58.5262 262.485 59.1612 263.983 59.1612C264.773 59.1612 265.401 58.9615 265.832 58.644C266.328 58.26 266.576 57.6916 266.576 57.0413C266.576 56.176 265.968 55.6588 265.143 55.3055C264.171 54.8703 263.067 54.7218 261.893 54.1381C260.92 53.6568 260.212 52.9399 260.212 51.6701C260.212 50.7689 260.54 50.0213 261.183 49.4836C261.862 48.9358 262.864 48.6183 264.201 48.6183C265.538 48.6183 266.707 48.987 267.467 49.4171C267.569 49.4837 267.584 49.5502 267.533 49.6526L267.138 50.4873C267.087 50.5897 267.007 50.6204 266.906 50.5538C266.079 50.0725 265.077 49.7704 264.135 49.7704C263.194 49.7704 262.536 49.9855 262.125 50.3695C261.781 50.687 261.599 51.1017 261.599 51.6189C261.599 52.4535 262.242 52.9195 263.229 53.2881C264.348 53.7029 265.502 53.8565 266.545 54.471C267.321 54.9215 268.014 55.6895 268.014 56.9236C268.014 58.0244 267.569 58.8744 266.83 59.4582C266.136 60.0061 265.148 60.2928 264.009 60.2928C262.262 60.2928 261.027 59.7244 260.232 59.2073L260.226 59.2124Z" fill="white"/>
<path d="M275.28 58.813C275.397 58.7311 275.493 58.7618 275.528 58.8488L275.857 59.4633C275.908 59.5452 275.857 59.6118 275.776 59.6784C275.184 60.0777 274.323 60.2928 273.452 60.2928C272.196 60.2928 271.158 59.8934 270.47 59.1612C269.811 58.4955 269.447 57.5278 269.447 56.3757C269.447 55.3772 269.761 54.5272 270.287 53.8923C271.047 52.9604 272.202 52.4586 273.473 52.4586C274.348 52.4586 275.154 52.7095 275.746 53.1243C275.827 53.1908 275.877 53.2574 275.827 53.3393L275.483 53.9742C275.432 54.0766 275.351 54.0919 275.235 54.0254C274.657 53.6567 274.095 53.5082 273.473 53.5082C272.617 53.5082 271.842 53.8411 271.33 54.4606C270.921 54.9419 270.673 55.5922 270.673 56.3808C270.673 57.2461 270.951 57.963 271.432 58.4802C271.913 58.9973 272.617 59.279 273.493 59.279C274.12 59.279 274.713 59.1612 275.29 58.813H275.28Z" fill="white"/>
<path d="M277.336 49.0074C277.336 48.6081 277.665 48.2906 278.06 48.2906C278.455 48.2906 278.784 48.6081 278.784 49.0074C278.784 49.4068 278.455 49.7397 278.06 49.7397C277.665 49.7397 277.336 49.4222 277.336 49.0074ZM277.634 52.5918H278.525C278.607 52.5918 278.673 52.6737 278.673 52.7607V59.9805C278.673 60.0624 278.607 60.1289 278.525 60.1289H277.634C277.554 60.1289 277.468 60.0624 277.468 59.9805V52.7607C277.468 52.6788 277.548 52.5918 277.634 52.5918Z" fill="white"/>
<path d="M286.769 58.6287C286.901 58.5468 286.982 58.5929 287.017 58.6646L287.331 59.279C287.382 59.3609 287.346 59.4275 287.265 59.494C286.658 59.9088 285.584 60.2928 284.429 60.2928C283.195 60.2928 282.171 59.8576 281.493 59.0742C280.865 58.3727 280.521 57.405 280.521 56.2734C280.521 55.2083 280.885 54.2405 281.508 53.5544C282.131 52.8683 283.043 52.4535 284.227 52.4535C285.412 52.4535 286.354 52.9348 286.931 53.6517C287.473 54.3532 287.771 55.3363 287.705 56.5191C287.705 56.6369 287.625 56.7035 287.508 56.7035H281.772C281.822 57.3384 282.035 57.9221 282.415 58.3727C282.891 58.9564 283.62 59.2892 284.526 59.2892C285.432 59.2892 286.157 58.9871 286.769 58.6236V58.6287ZM286.556 55.8279C286.521 55.1417 286.309 54.5785 285.948 54.1586C285.569 53.7439 284.977 53.4418 284.232 53.4418C283.407 53.4418 282.779 53.7439 282.369 54.2252C282.025 54.6399 281.807 55.2237 281.776 55.8279H286.556Z" fill="white"/>
<path d="M290.774 53.8769C291.285 52.8939 292.273 52.4586 293.381 52.4586C294.273 52.4586 295.013 52.6737 295.544 53.1447C296.121 53.6618 296.435 54.4965 296.435 55.6639V59.9805C296.435 60.0624 296.354 60.1289 296.268 60.1289H295.392C295.311 60.1289 295.225 60.0624 295.225 59.9805V55.9302C295.225 55.0956 295.058 54.4299 294.617 54.01C294.288 53.6926 293.827 53.5287 293.149 53.5287C292.293 53.5287 291.615 53.9127 291.205 54.6808C290.891 55.2799 290.774 55.9967 290.774 56.6675V59.9856C290.774 60.0675 290.708 60.1341 290.628 60.1341H289.721C289.64 60.1341 289.554 60.0675 289.554 59.9856V52.7658C289.554 52.6839 289.635 52.5969 289.721 52.5969H290.562C290.643 52.5969 290.729 52.6788 290.729 52.7658V53.882H290.78L290.774 53.8769Z" fill="white"/>
<path d="M304.041 58.813C304.157 58.7311 304.253 58.7618 304.288 58.8488L304.618 59.4633C304.668 59.5452 304.618 59.6118 304.536 59.6784C303.944 60.0777 303.083 60.2928 302.212 60.2928C300.956 60.2928 299.919 59.8934 299.23 59.1612C298.572 58.4955 298.207 57.5278 298.207 56.3757C298.207 55.3772 298.521 54.5272 299.048 53.8923C299.807 52.9604 300.962 52.4586 302.233 52.4586C303.109 52.4586 303.914 52.7095 304.507 53.1243C304.587 53.1908 304.638 53.2574 304.587 53.3393L304.243 53.9742C304.193 54.0766 304.111 54.0919 303.994 54.0254C303.417 53.6567 302.855 53.5082 302.233 53.5082C301.377 53.5082 300.603 53.8411 300.091 54.4606C299.681 54.9419 299.433 55.5922 299.433 56.3808C299.433 57.2461 299.711 57.963 300.192 58.4802C300.673 58.9973 301.377 59.279 302.253 59.279C302.881 59.279 303.473 59.1612 304.051 58.813H304.041Z" fill="white"/>
<path d="M311.823 58.6287C311.955 58.5468 312.035 58.5929 312.071 58.6646L312.385 59.279C312.435 59.3609 312.4 59.4275 312.32 59.494C311.712 59.9088 310.639 60.2928 309.483 60.2928C308.248 60.2928 307.225 59.8576 306.547 59.0742C305.919 58.3727 305.575 57.405 305.575 56.2734C305.575 55.2083 305.94 54.2405 306.562 53.5544C307.185 52.8683 308.096 52.4535 309.282 52.4535C310.466 52.4535 311.408 52.9348 311.985 53.6517C312.527 54.3532 312.825 55.3363 312.76 56.5191C312.76 56.6369 312.679 56.7035 312.562 56.7035H306.825C306.876 57.3384 307.089 57.9221 307.469 58.3727C307.944 58.9564 308.674 59.2892 309.58 59.2892C310.487 59.2892 311.21 58.9871 311.823 58.6236V58.6287ZM311.61 55.8279C311.575 55.1417 311.362 54.5785 311.003 54.1586C310.623 53.7439 310.031 53.4418 309.286 53.4418C308.461 53.4418 307.833 53.7439 307.423 54.2252C307.079 54.6399 306.861 55.2237 306.831 55.8279H311.61Z" fill="white"/>
</g>
<defs>
<clipPath id="clip0_6_5303">
<rect width="314" height="64" fill="white"/>
</clipPath>
</defs>
</svg>
