<svg width="64" height="64" viewBox="0 0 64 64" fill="none" xmlns="http://www.w3.org/2000/svg">
<g clip-path="url(#clip0_6_5304)">
<path d="M31.9978 63.9955C14.3546 63.9955 0 49.641 0 31.9978C0 14.3545 14.3546 0 31.9978 0C49.641 0 64 14.3545 64 31.9978C64 49.641 49.6455 64 31.9978 64V63.9955ZM31.9978 1.49323C15.1767 1.49323 1.49323 15.1767 1.49323 31.9978C1.49323 48.8188 15.1767 62.5024 31.9933 62.5024C48.81 62.5024 62.4979 48.8188 62.4979 31.9978C62.4979 15.1767 48.8144 1.49323 31.9978 1.49323Z" fill="white"/>
<path d="M31.9979 56.0317C18.7455 56.0317 7.96851 45.2505 7.96851 31.998C7.96851 18.7456 18.7499 7.96411 31.9979 7.96411C45.2459 7.96411 56.0317 18.7456 56.0317 31.998C56.0317 45.2505 45.2503 56.0317 31.9979 56.0317ZM31.9979 9.44847C19.5677 9.44847 9.4528 19.5634 9.4528 31.998C9.4528 44.4327 19.5677 54.5476 31.9979 54.5476C44.4282 54.5476 54.5475 44.4327 54.5475 31.998C54.5475 19.5634 44.4326 9.44847 31.9979 9.44847Z" fill="white"/>
<path d="M32.0066 54.4406L31.7088 54.3117C31.0955 54.0495 16.7098 47.7433 16.7098 36.3218V15.8033H47.2544V36.6907C47.2544 47.6411 32.9087 54.0495 32.2998 54.3161L32.0021 54.445L32.0066 54.4406ZM18.2075 36.3218C18.2075 45.9034 29.9667 51.8452 32.0021 52.8007C34.0375 51.8319 45.7656 45.8368 45.7656 36.6818V17.292H18.2075V36.3218Z" fill="white"/>
<path d="M25.2603 27.8204L24.8959 27.6071C24.8292 27.5671 23.2694 26.6516 22.2206 25.9494C21.3362 25.3584 20.8828 24.7273 20.834 24.0296C20.8251 23.8829 20.8251 21.092 20.8251 18.7766V18.03H29.7667V18.7766C29.7756 22.1497 29.7756 23.914 29.7667 24.0251C29.7445 24.7362 29.3134 25.3672 28.4468 25.9494C27.3891 26.6561 25.7048 27.5804 25.6336 27.6159L25.2648 27.816L25.2603 27.8204ZM22.3183 19.5276C22.3183 21.4209 22.3183 23.7585 22.3228 23.9318C22.3316 24.074 22.5272 24.3584 23.0516 24.7051C23.7627 25.1805 24.7582 25.7805 25.287 26.0961C25.8425 25.785 26.9002 25.1805 27.6158 24.7051C27.8113 24.5762 28.2646 24.2429 28.2734 23.9762C28.2824 23.7496 28.2779 21.412 28.2734 19.5232H22.3183V19.5276Z" fill="white"/>
<path d="M39.0729 27.785L38.7085 27.5717C38.6418 27.5317 37.0819 26.6207 36.0331 25.9185C35.1487 25.323 34.691 24.6963 34.6421 23.9986C34.6332 23.8831 34.6288 22.1187 34.6332 18.7457V17.999H43.5749V18.7457C43.5837 22.1187 43.5837 23.8831 43.5749 23.9942C43.557 24.7008 43.126 25.3319 42.2593 25.914C41.2017 26.6207 39.5129 27.5406 39.4418 27.5806L39.0729 27.7806V27.785ZM36.1309 19.4923C36.1309 21.381 36.1309 23.7142 36.1353 23.8964C36.1442 24.0431 36.3442 24.3231 36.8642 24.6741C37.5752 25.1497 38.5663 25.7496 39.0951 26.0651C39.6506 25.754 40.7128 25.1541 41.4238 24.6741C41.6194 24.5452 42.0727 24.2119 42.0771 23.9497C42.086 23.7186 42.0816 21.3855 42.0771 19.4923H36.122H36.1309Z" fill="white"/>
<path d="M46.7256 28.3489H16.8298V29.8288H46.7256V28.3489Z" fill="white"/>
<path d="M31.9579 46.543C31.4557 46.543 31.1668 46.1875 31.0113 45.9963C30.8424 45.7875 30.7669 45.7297 30.4825 45.7208C29.6692 45.7208 29.0736 45.7741 28.3848 45.8363C27.7093 45.8986 26.9405 45.9697 25.8516 45.9919C24.7717 46.023 23.9362 45.9741 23.9007 45.9697L23.1941 45.9297V31.9262L23.9274 31.9084C24.1496 31.904 24.4029 31.904 24.7007 31.9084C25.1362 31.9084 25.665 31.9084 26.3317 31.8951C26.8427 31.8818 27.4382 31.8196 28.127 31.744C28.527 31.6996 28.9581 31.6551 29.4203 31.6152C30.3847 31.504 31.2602 31.6862 31.2957 31.6951C31.5624 31.7574 31.789 31.8418 31.9801 31.9396C32.1668 31.8462 32.389 31.7618 32.6512 31.6996C32.7045 31.6862 33.58 31.5085 34.5622 31.6196C35.0111 31.6596 35.4421 31.704 35.8465 31.7484C36.5354 31.824 37.1309 31.8862 37.633 31.8995C38.3042 31.9173 38.833 31.9129 39.264 31.9129C39.5663 31.9129 39.8196 31.9129 40.0373 31.9129L40.7662 31.9307V45.9341L40.064 45.9741C40.0285 45.9741 39.1885 46.023 38.113 45.9963C37.0242 45.9741 36.2554 45.903 35.5799 45.8408C34.891 45.7786 34.2911 45.7253 33.4822 45.7253C33.1534 45.7297 33.0734 45.8097 32.8868 46.023C32.7178 46.2186 32.4334 46.543 31.949 46.543H31.9579ZM30.4869 44.2321H30.5313C31.2691 44.2321 31.7046 44.5565 31.9712 44.8275C32.2468 44.552 32.6912 44.2365 33.4467 44.2321C34.3622 44.2321 35.0199 44.2898 35.7265 44.3564C36.4109 44.4187 37.1175 44.4809 38.1575 44.5076C38.5841 44.5164 38.9752 44.5164 39.2863 44.5076V33.4061C39.193 33.4061 39.0952 33.4061 38.993 33.4061C38.6063 33.4061 38.1486 33.4061 37.6064 33.3928C37.0376 33.3794 36.4154 33.3128 35.6954 33.2373C35.2999 33.1972 34.8777 33.1484 34.42 33.1084C33.6644 33.0239 32.9889 33.1572 32.9801 33.1617C32.589 33.2506 32.469 33.415 32.4645 33.4195L32.0246 33.1839L31.5668 33.4506C31.5668 33.4506 31.4024 33.255 30.9802 33.1572C30.9802 33.1572 30.3047 33.0239 29.5758 33.1084C29.1048 33.1484 28.6826 33.1972 28.2915 33.2373C27.5671 33.3128 26.9449 33.3794 26.3716 33.3928C25.6873 33.4106 25.145 33.4061 24.7007 33.4061C24.7007 33.4061 24.6962 33.4061 24.6917 33.4061V44.5076C24.9984 44.512 25.3895 44.5164 25.8205 44.5076C26.8605 44.4853 27.5671 44.4187 28.2515 44.3564C28.9493 44.2942 29.6069 44.2321 30.4869 44.2321Z" fill="white"/>
<path d="M28.9625 20.9543H21.5719V22.1986H28.9625V20.9543Z" fill="white"/>
<path d="M28.9624 20.8293H21.5718V22.3226H28.9624V20.8293Z" fill="white"/>
<path d="M32.5578 28.6115H31.3135V53.7519H32.5578V28.6115Z" fill="white"/>
<path d="M32.4959 28.6115H31.376V53.7519H32.4959V28.6115Z" fill="white"/>
<path d="M42.2549 23.6519L38.9751 21.4654L35.962 23.6386L35.2332 22.6298L38.944 19.95L42.9482 22.6165L42.2549 23.6519Z" fill="white"/>
<path d="M42.2908 23.7542L39.0822 21.6166L36.1402 23.7409L35.2646 22.5276L39.0466 19.799L43.1219 22.5143L42.2908 23.7542Z" fill="white"/>
<path d="M37.8816 35.6553L35.9973 35.6064C35.6995 35.5975 35.3573 35.5619 34.9618 35.522L34.3219 35.4553C34.2018 35.4419 34.0907 35.4419 33.993 35.4464L33.9663 34.6598C34.1041 34.6554 34.2507 34.6598 34.4018 34.6731L35.0462 34.7398C35.4151 34.7798 35.7395 34.8154 36.0195 34.8198L37.8994 34.8687L37.8816 35.6553Z" fill="white"/>
<path d="M37.882 38.051L36.0022 38.0021C35.7044 37.9932 35.3622 37.9577 34.9711 37.9177C34.7711 37.8954 34.5578 37.8732 34.3267 37.851C34.2067 37.8377 34.0956 37.8332 33.9978 37.8377L33.9712 37.0511C34.1045 37.0511 34.2556 37.0511 34.4067 37.0688C34.6378 37.091 34.8556 37.1133 35.06 37.1355C35.4289 37.1755 35.7444 37.211 36.0244 37.2155L37.9042 37.2644L37.8865 38.051H37.882Z" fill="white"/>
<path d="M37.8816 40.4503C37.7172 40.4503 37.3217 40.4369 36.8951 40.4281L35.9973 40.4058C35.7084 40.4014 35.3751 40.3659 34.9885 40.3258C34.7841 40.3036 34.5618 40.2814 34.3219 40.2592C34.2019 40.2459 34.0864 40.2414 33.9886 40.2459L33.9619 39.4592C34.0953 39.4592 34.2464 39.4592 34.3974 39.477C34.633 39.4992 34.8596 39.5214 35.073 39.5437C35.4285 39.5837 35.7396 39.6148 36.0151 39.6192L36.9217 39.6414C37.3394 39.6548 37.735 39.6637 37.895 39.6681L37.8816 40.4547V40.4503Z" fill="white"/>
<path d="M37.882 42.8504C37.5931 42.846 36.5932 42.8193 35.9977 42.8016C35.7044 42.7927 35.3622 42.7572 34.9711 42.7171C34.7711 42.6949 34.5578 42.6727 34.3267 42.6505C34.2067 42.6371 34.0956 42.6327 33.9978 42.6371L33.9712 41.8505C34.1045 41.8505 34.2556 41.8505 34.4067 41.8683C34.6378 41.8905 34.8556 41.9127 35.06 41.9349C35.4289 41.975 35.7444 42.0105 36.0244 42.015C36.6199 42.0327 37.6198 42.0594 37.9042 42.0638L37.8865 42.8504H37.882Z" fill="white"/>
<path d="M26.0559 35.6373L26.0381 34.8507L27.918 34.8018C28.2069 34.7974 28.5357 34.7618 28.9179 34.7218L29.5401 34.6596C29.6778 34.6418 29.82 34.6374 29.9445 34.6418L29.9267 35.4284C29.8378 35.4284 29.7267 35.4284 29.6201 35.4417L28.9979 35.504C28.589 35.5484 28.238 35.584 27.9313 35.5884L26.0514 35.6373H26.0559Z" fill="white"/>
<path d="M26.0559 38.0326L26.0381 37.246L27.918 37.1971C28.2024 37.1882 28.5268 37.1526 28.9046 37.1126L29.5401 37.046C29.6868 37.0327 29.8245 37.0327 29.9489 37.0327L29.9223 37.8192C29.8245 37.8192 29.7179 37.8192 29.6112 37.8281L28.989 37.8904C28.589 37.9348 28.2424 37.9703 27.9357 37.9792L26.0514 38.0281L26.0559 38.0326Z" fill="white"/>
<path d="M26.0559 40.4283L26.0426 39.6417C26.2826 39.6417 27.0336 39.6194 27.6202 39.6017L27.9225 39.5928C28.2024 39.5928 28.518 39.5572 28.8779 39.5172C29.0868 39.495 29.309 39.4728 29.549 39.4506C29.6823 39.4372 29.8246 39.4284 29.949 39.4372L29.9356 40.2239C29.8423 40.2239 29.7357 40.2239 29.629 40.2372C29.3846 40.2594 29.1668 40.2816 28.9668 40.3038C28.5757 40.3438 28.238 40.3794 27.9447 40.3839L27.6469 40.3927C27.0603 40.4105 26.3048 40.4283 26.0604 40.4327L26.0559 40.4283Z" fill="white"/>
<path d="M26.0559 42.8328L26.0426 42.0462C26.2826 42.0462 27.0336 42.0239 27.6202 42.0062L27.9225 41.9973C28.2069 41.9884 28.5313 41.9529 28.9091 41.9128L29.5446 41.8462C29.6779 41.8329 29.8157 41.824 29.9445 41.8329L29.9312 42.6195C29.8334 42.6195 29.7312 42.6195 29.6245 42.6328L28.9935 42.6995C28.5935 42.7439 28.2469 42.7795 27.9402 42.7884L27.6425 42.7972C27.0559 42.815 26.3003 42.8328 26.0559 42.8372V42.8328Z" fill="white"/>
<path d="M23.3543 33.9272H21.7278V35.7138H23.3543V33.9272Z" fill="white"/>
<path d="M23.4432 38.0598H21.7278V39.8464H23.4432V38.0598Z" fill="white"/>
<path d="M23.3543 41.7571H21.7278V43.5392H23.3543V41.7571Z" fill="white"/>
<path d="M42.0859 34.2777H40.4594V36.0599H42.0859V34.2777Z" fill="white"/>
<path d="M42.1748 38.4109H40.4594V40.1974H42.1748V38.4109Z" fill="white"/>
<path d="M42.0859 42.1038H40.4594V43.8904H42.0859V42.1038Z" fill="white"/>
<path d="M6.87971 28.9225C6.93308 29.2381 6.97749 29.5758 6.95529 29.9002C6.87086 31.2735 6.11088 32.1845 4.65767 32.0912C3.18666 31.9979 2.41338 31.0602 2.50671 29.6202C2.52449 29.3402 2.60448 28.9714 2.74669 28.6692L3.47109 28.7759C3.26666 29.087 3.20444 29.3758 3.18666 29.678C3.13333 30.5535 3.77329 31.1401 4.65767 31.1979C5.53316 31.2557 6.22647 30.7579 6.27978 29.8558C6.30199 29.5225 6.25313 29.1225 6.1598 28.9136L6.88417 28.9225H6.87971Z" fill="white"/>
<path d="M3.51552 24.2251C3.87994 22.9407 4.95987 22.4741 6.21754 22.8296C7.47083 23.1851 8.17299 24.154 7.80413 25.4428C7.43081 26.7538 6.35088 27.1982 5.07986 26.8338C3.80884 26.4694 3.14666 25.5228 3.51997 24.2207L3.51552 24.2251ZM7.14638 25.2606C7.38635 24.4251 6.71975 23.8962 5.96866 23.6874C5.2354 23.4785 4.39546 23.5985 4.16437 24.4162C3.93328 25.2295 4.58656 25.7761 5.31984 25.985C6.06645 26.1983 6.91086 26.105 7.15083 25.265L7.14638 25.2606Z" fill="white"/>
<path d="M5.22625 19.7674L5.65732 18.9585C6.08395 18.1497 6.5684 17.1764 7.62607 17.7364C8.07051 17.9764 8.28382 18.4697 8.09717 18.9807L8.10607 18.9896C8.23051 18.7941 8.50159 18.7852 8.71045 18.7985L10.5192 18.9896L10.0748 19.8296L8.64823 19.6474C8.30603 19.6029 8.14603 19.6429 7.97718 19.9585L7.84829 20.2029L9.42597 21.0473L9.026 21.8028L5.2218 19.7763L5.22625 19.7674ZM7.2483 19.8829L7.38165 19.634C7.58166 19.2652 7.75051 18.8074 7.27502 18.5585C6.81722 18.3141 6.55504 18.7141 6.35503 19.0874L6.22174 19.3363L7.2483 19.8829Z" fill="white"/>
<path d="M8.13757 14.8475L8.80863 14.0431L12.324 14.852L12.3329 14.8431L9.853 12.7855L10.373 12.1544L13.6927 14.9053L13.0306 15.7052L9.51079 14.9008L9.50194 14.9098L11.9817 16.9674L11.4618 17.594L8.14648 14.8431L8.13757 14.8475Z" fill="white"/>
<path d="M12.4572 10.1636L14.3992 8.58154L14.8303 9.10595L13.546 10.1503L14.217 10.9769L15.3948 10.017L15.8214 10.5414L14.6437 11.5013L15.4081 12.439L16.7014 11.3858L17.128 11.9102L15.1725 13.5012L12.4528 10.1592L12.4572 10.1636Z" fill="white"/>
<path d="M16.6838 7.057L17.426 6.63483L19.2081 9.79904L20.6436 8.99019L20.9769 9.58128L18.7948 10.8078L16.6838 7.05255V7.057Z" fill="white"/>
<path d="M21.061 4.86174L21.861 4.57288L23.0965 7.98598L24.6475 7.42601L24.8786 8.0615L22.5232 8.91482L21.0566 4.86174H21.061Z" fill="white"/>
<path d="M27.9316 2.98631L28.7804 2.9152L28.9849 5.39503C29.0471 6.12387 29.3182 6.59051 29.9671 6.53275C30.6159 6.47938 30.807 5.97723 30.7447 5.24837L30.5403 2.7641L31.3891 2.69299L31.6158 5.43947C31.7136 6.59052 31.1092 7.11938 30.0204 7.20825C28.936 7.29713 28.2516 6.87495 28.1583 5.72835L27.9316 2.98186V2.98631Z" fill="white"/>
<path d="M34.3181 2.76849L35.358 2.91071L36.5313 6.32379H36.5446L36.9757 3.12847L37.7845 3.23957L37.2068 7.5104L36.1758 7.37261L34.9936 3.95952H34.9802L34.5491 7.15039L33.7404 7.04376L34.3136 2.77294L34.3181 2.76849Z" fill="white"/>
<path d="M40.4237 3.94201L41.237 4.19532L39.9482 8.30616L39.1349 8.04838L40.4237 3.93756V3.94201Z" fill="white"/>
<path d="M43.4546 4.95984L44.2723 5.37315L43.7168 8.884H43.7302L46.2189 6.35533L46.9744 6.73749L43.7524 9.93727L42.8191 9.46617L43.4591 4.95984H43.4546Z" fill="white"/>
<path d="M49.0458 8.14191L51.0235 9.68842L50.6057 10.2217L49.2991 9.20403L48.6458 10.0395L49.8368 10.9728L49.4191 11.5105L48.2236 10.5772L47.477 11.5327L48.7925 12.5594L48.3747 13.0927L46.3882 11.5416L49.0413 8.1463L49.0458 8.14191Z" fill="white"/>
<path d="M53.0143 11.55L53.6187 12.2389C54.2231 12.9277 54.9608 13.7232 54.0631 14.5187C53.6809 14.8521 53.1476 14.8743 52.7299 14.5187H52.721C52.8588 14.7098 52.7743 14.9676 52.6854 15.1587L51.8677 16.7852L51.2411 16.0697L51.9166 14.7987C52.0766 14.4965 52.0988 14.332 51.8633 14.0654L51.6855 13.861L50.339 15.0387L49.7745 14.3987L53.0143 11.559V11.55ZM52.1921 13.4033L52.3743 13.6121C52.6499 13.9277 53.0143 14.2476 53.4187 13.8921C53.8098 13.5499 53.5254 13.1632 53.2454 12.8433L53.0587 12.6344L52.1877 13.3988L52.1921 13.4033Z" fill="white"/>
<path d="M57.0362 18.3853C57.0006 18.0965 56.9071 17.8032 56.7563 17.5454C56.6049 17.2921 56.3027 17.0343 55.8987 17.2743C55.2541 17.6565 56.4763 19.1009 55.2319 19.8341C54.4186 20.3141 53.7342 19.8608 53.2987 19.1231C53.0632 18.7231 53.0098 18.5142 52.8854 18.101L53.5964 17.7721C53.6098 18.1054 53.6898 18.4476 53.8587 18.7364C54.0231 19.0164 54.3875 19.3008 54.7208 19.1009C55.4319 18.6831 54.1875 17.2521 55.4141 16.5277C56.2409 16.0389 56.9204 16.4922 57.3028 17.1366C57.4898 17.4521 57.6183 17.7676 57.6895 18.0876L57.0406 18.3809L57.0362 18.3853Z" fill="white"/>
<path d="M58.9251 20.5321L59.2495 21.3232L55.2587 22.9497L54.9387 22.1631L58.9295 20.5321H58.9251Z" fill="white"/>
<path d="M59.6675 24.7982L59.3742 23.616L60.0359 23.456L60.8229 26.6514L60.165 26.8113L59.8718 25.6292L56.3473 26.4958L56.1431 25.6692L59.6675 24.8026V24.7982Z" fill="white"/>
<path d="M58.6318 30.3487L61.1473 28.6555L61.2051 29.651L59.4543 30.7531L61.3209 31.6775L61.3693 32.5797L58.6852 31.2019L56.9834 31.2953L56.9388 30.442L58.6407 30.3487H58.6318Z" fill="white"/>
<path d="M7.55077 37.8017L8.21292 40.0948L7.55962 40.286L7.13744 38.8194L6.11973 39.1127L6.5197 40.5082L5.8664 40.6993L5.46645 39.3038L3.6488 39.8282L3.40881 39.0016L7.55077 37.8062V37.8017Z" fill="white"/>
<path d="M9.56854 43.0857C10.1641 44.2945 9.67967 45.3789 8.50641 45.9521C7.33761 46.5299 6.1688 46.2721 5.56881 45.05C4.95998 43.8145 5.46661 42.7568 6.6532 42.1746C7.83976 41.5925 8.96415 41.8635 9.56854 43.0857ZM6.17765 44.7522C6.56432 45.5433 7.41313 45.4899 8.11089 45.1477C8.79525 44.8144 9.33747 44.1567 8.9597 43.3879C8.58639 42.6235 7.73313 42.6502 7.04872 42.9835C6.35101 43.3257 5.79103 43.9656 6.17765 44.7522Z" fill="white"/>
<path d="M11.4038 46.4767L11.9416 47.1522L9.99502 48.6987C9.41729 49.1565 9.18617 49.6364 9.5995 50.152C10.0083 50.6719 10.5327 50.5519 11.1061 50.0942L13.0525 48.5476L13.5903 49.2231L11.4349 50.9341C10.5327 51.6541 9.75505 51.4407 9.06618 50.5786C8.38177 49.7164 8.34621 48.9032 9.25284 48.1877L11.4083 46.4767H11.4038Z" fill="white"/>
<path d="M14.9369 50.6055L15.759 51.2765L14.9857 54.8052H14.9946L17.0345 52.3209L17.6745 52.8408L14.9458 56.1786L14.1325 55.5118L14.9013 51.9743H14.8924L12.8526 54.4585L12.2126 53.9386L14.9413 50.6055H14.9369Z" fill="white"/>
<path d="M19.3098 53.899L20.3631 54.4279C21.5364 55.0189 22.3807 55.9388 21.6119 57.4676C20.8475 58.9963 19.6031 58.8678 18.4299 58.2762L17.3811 57.752L19.3143 53.899H19.3098ZM18.4477 57.5299L18.8788 57.7475C19.5232 58.0675 20.3853 57.9033 20.8075 57.063C21.2297 56.2276 20.852 55.4322 20.2076 55.1078L19.7765 54.89L18.4521 57.5299H18.4477Z" fill="white"/>
<path d="M24.292 56.1163L26.7406 56.7697L26.5674 57.423L24.9497 56.9917L24.6786 58.0185L26.1585 58.4142L25.9852 59.0676L24.5053 58.6719L24.1942 59.8406L25.8252 60.2763L25.6519 60.9341L23.1898 60.2763L24.3009 56.1119L24.292 56.1163Z" fill="white"/>
<path d="M28.638 57.1075L29.8112 57.1737C31.1267 57.2449 32.26 57.7558 32.1667 59.4627C32.0689 61.169 30.8823 61.5469 29.5668 61.4756L28.3936 61.4094L28.638 57.103V57.1075ZM29.2913 60.7827L29.7713 60.8089C30.4912 60.849 31.2156 60.3514 31.2689 59.4137C31.3223 58.476 30.6556 57.9027 29.9401 57.8627L29.4602 57.836L29.2913 60.7827Z" fill="white"/>
<path d="M36.5441 56.7958L37.4952 56.5916L40.0505 60.4488L39.1173 60.653L38.5484 59.7643L36.8463 60.1333L36.6864 61.1778L35.8153 61.3643L36.5441 56.8002V56.7958ZM37.1885 57.5421H37.1752L36.9396 59.4131L38.1662 59.151L37.1841 57.5421H37.1885Z" fill="white"/>
<path d="M41.011 59.1516L41.8198 58.8583L42.1131 59.6714L41.3043 59.9646L41.011 59.1516Z" fill="white"/>
<path d="M42.1041 55.0719L43.1351 54.512C44.295 53.8809 45.526 53.7209 46.3438 55.223C47.157 56.7296 46.3438 57.6718 45.1883 58.2984L44.1528 58.8583L42.0996 55.0719H42.1041ZM44.5928 57.8493L45.015 57.6228C45.646 57.2761 46.0016 56.4764 45.5571 55.6497C45.1083 54.823 44.2417 54.6808 43.6106 55.0275L43.1884 55.2541L44.5972 57.8449L44.5928 57.8493Z" fill="white"/>
<path d="M47.5925 55.8714L48.3036 55.3782L48.7969 56.0896L48.0903 56.5827L47.597 55.8714H47.5925Z" fill="white"/>
<path d="M49.3699 49.9747L49.912 49.4413L52.9385 52.5122L52.3252 53.1167L49.9876 50.7479L49.8854 51.6768L49.1832 51.579L49.3654 49.9747H49.3699Z" fill="white"/>
<path d="M53.232 48.7389C52.8187 48.97 52.3654 48.9878 52.0009 48.7211C51.3832 48.2634 51.4366 47.5745 51.8987 46.9479C52.3476 46.339 53.0053 45.9791 53.5875 46.4057C53.9031 46.6412 54.1208 47.099 53.9919 47.5923H53.9964C54.5475 47.299 55.0007 47.3123 55.3963 47.6056C56.0985 48.1211 56.0317 48.8544 55.5252 49.5388C55.0274 50.2099 54.3297 50.5388 53.6275 50.0188C53.2409 49.7344 53.1342 49.3166 53.2364 48.7522L53.2276 48.7433L53.232 48.7389ZM53.4364 47.9167C53.5075 47.6723 53.4364 47.3167 53.2186 47.1612C52.9609 46.9657 52.6587 47.0013 52.4676 47.2634C52.2809 47.5168 52.232 47.8678 52.512 48.0767C52.8098 48.2944 53.1742 48.09 53.4364 47.9167ZM55.0096 49.1566C55.2185 48.8811 55.2008 48.5345 54.9163 48.3212C54.5741 48.0678 54.1919 48.2411 53.8853 48.4544C53.823 48.7922 53.8364 49.0988 54.1297 49.3166C54.4186 49.5299 54.8052 49.4321 55.0096 49.1566Z" fill="white"/>
<path d="M55.5337 42.4679C55.3426 42.6279 55.1736 42.8012 55.0448 43.059C54.7159 43.7211 55.2181 44.2589 55.7824 44.57L55.8002 44.5611C55.627 44.2455 55.6225 43.9522 55.7824 43.6233C56.1469 42.899 56.8092 42.7301 57.5204 43.0856C58.3558 43.5034 58.7025 44.1878 58.2712 45.0544C57.738 46.1254 56.7291 45.9165 55.8225 45.4632C54.7737 44.9432 53.796 44.0322 54.4182 42.7878C54.5559 42.5079 54.7337 42.2634 54.9603 42.0457L55.5337 42.459V42.4679ZM56.7469 44.9655C57.1114 45.1477 57.5071 45.1522 57.698 44.7744C57.88 44.4188 57.6045 44.0944 57.2622 43.9255C56.8849 43.7389 56.4625 43.7167 56.2761 44.09C56.0891 44.4633 56.3601 44.7788 56.7469 44.97V44.9655Z" fill="white"/>
<path d="M56.9739 37.8734L56.5025 39.4644L57.3785 39.7443C57.3874 39.6421 57.4002 39.5133 57.4491 39.3577C57.6228 38.7799 58.1159 38.1089 59.1872 38.4289C59.9602 38.66 60.4271 39.3888 60.1115 40.451C60.0181 40.771 59.8539 41.1265 59.707 41.3798L58.9735 41.1398C59.1159 40.9665 59.3246 40.7176 59.4315 40.3621C59.56 39.931 59.4938 39.4199 58.9646 39.2644C58.4314 39.1044 58.107 39.5221 57.9695 39.9932C57.8938 40.2465 57.8582 40.4999 57.8626 40.7665L55.6538 40.0643L56.3561 37.7001L56.9694 37.8823L56.9739 37.8734Z" fill="white"/>
</g>
<defs>
<clipPath id="clip0_6_5304">
<rect width="64" height="64" fill="white"/>
</clipPath>
</defs>
</svg>
