<svg width="223" height="64" viewBox="0 0 223 64" fill="none" xmlns="http://www.w3.org/2000/svg">
<g clip-path="url(#clip0_248_12959)">
<path fill-rule="evenodd" clip-rule="evenodd" d="M62.44 32.5915C62.44 15.3417 48.4623 1.35791 31.22 1.35791C13.9777 1.35791 0 15.3417 0 32.5915C0 49.8414 13.9777 63.8252 31.22 63.8252C48.4553 63.808 62.4233 49.8343 62.44 32.5915ZM61.6238 32.5915C61.63 44.8954 54.2262 55.9911 42.8657 60.7043C31.5051 65.4169 18.4254 62.8185 9.72681 54.1205C1.02821 45.4225 -1.57583 32.3384 3.12918 20.9705C7.83421 9.6025 18.9214 2.18999 31.22 2.18999C48.0044 2.20697 61.6065 15.8152 61.6238 32.6069V32.5915ZM60.0835 32.0984L58.4355 31.2818L59.9759 30.3111V28.9705L57.3266 30.7579L55.5553 30.8503V32.006L57.3266 31.8982L60.1604 33.3466L60.0835 32.0984ZM58.6819 27.6299L59.6213 27.3988L58.7744 23.9626L57.8194 24.1937L58.1121 25.3494L54.6619 26.1969L54.9392 27.3217L58.3892 26.4742L58.6819 27.6299ZM53.9072 23.8702L58.0965 22.1598L57.6656 21.0966L53.476 22.807L53.9072 23.8702ZM55.6015 19.4325L56.5411 19.001V18.8777C56.4614 18.5296 56.3259 18.1966 56.1408 17.8916C55.9708 17.5147 55.648 17.2284 55.2537 17.1047C54.8595 16.9811 54.4311 17.032 54.0767 17.2444C53.526 17.6302 53.2891 18.3288 53.4914 18.9702C53.4914 19.4016 53.5838 19.6482 53.399 19.756C53.2142 19.8639 52.8907 19.6636 52.7675 19.4478C52.6206 19.1836 52.5412 18.8872 52.5365 18.5849V18.3538L51.5045 18.8315V19.0626C51.584 19.3938 51.7139 19.7108 51.8896 20.0026C52.1402 20.5479 52.6628 20.918 53.2604 20.9733C53.5354 20.953 53.7982 20.8511 54.0151 20.6806C54.5862 20.2887 54.8256 19.5637 54.6003 18.9085C54.6003 18.5233 54.5079 18.2768 54.6003 18.1843C54.6761 18.1648 54.7556 18.1648 54.8314 18.1843C55.0023 18.2053 55.1521 18.309 55.2318 18.4617C55.361 18.6955 55.4446 18.9517 55.4783 19.2167L55.6015 19.4325ZM52.9215 15.534C53.8919 14.6711 53.1217 13.7928 52.5518 13.1302L51.8125 12.2828L48.4087 15.2721L49.1634 16.135L50.4726 14.9793V15.0717C50.642 15.2721 50.642 15.3491 50.4726 15.611L49.7641 16.9516L50.6112 17.907L51.5199 16.1041C51.5801 15.9881 51.6217 15.8633 51.6431 15.7343C52.0444 15.8987 52.5041 15.821 52.8291 15.534H52.9215ZM52.1206 14.4554C52.1102 14.5489 52.0596 14.6333 51.982 14.6865C51.9163 14.7522 51.8283 14.7907 51.7356 14.7944C51.5507 14.7944 51.3351 14.5941 51.1811 14.4246V14.3321L51.7972 13.7928L51.8742 13.8853C52.0282 14.0701 52.1976 14.2859 52.1822 14.4554H52.1206ZM49.4253 11.3736L50.0259 10.6032L47.8542 8.93902L45.0665 12.5139L47.2535 14.2242L47.8542 13.4538L46.5605 12.4522L47.0996 11.7589L48.2701 12.668L48.8708 11.8975L47.7002 10.9884L48.1469 10.4183L49.4253 11.3736ZM42.7253 11.0654L46.1138 7.70632L45.0818 7.18241L42.8948 9.40132L43.3722 6.31952L42.2787 5.76484L41.6934 10.5416L42.7253 11.0654ZM39.0751 9.52459L40.4305 5.1947L39.3369 4.8403L37.9815 9.17019L39.0751 9.52459ZM36.4259 8.72331L37.0266 4.22395L35.9331 4.06986L35.5788 6.72016L34.6084 3.88495L33.3455 3.71546L32.7448 8.21481L33.8384 8.36892L34.1926 5.71859L35.1783 8.55379L36.4259 8.72331ZM31.143 9.75571C18.5427 9.7812 8.34633 20.0165 8.36334 32.6223C8.38034 45.2281 18.6042 55.4358 31.2046 55.4273C43.805 55.4188 54.0151 45.1974 54.0151 32.5915C53.9982 19.9987 43.8073 9.78966 31.22 9.75571H31.143ZM53.2604 32.5915C53.2604 41.5099 47.8904 49.5501 39.6545 52.9631C31.4186 56.3762 21.9386 54.4895 15.6351 48.1833C9.3316 41.877 7.44591 32.3929 10.8574 24.1534C14.2688 15.9138 22.3055 10.5416 31.22 10.5416C43.3855 10.5585 53.2434 20.4207 53.2604 32.5915ZM46.1138 36.906V17.1827H16.5726V36.5516C16.5726 41.051 19.0986 45.4117 23.8732 49.1868C26.0885 50.9257 28.5095 52.3852 31.0814 53.5321L31.3432 53.64L31.6205 53.5321C34.1748 52.3699 36.5837 50.9114 38.7978 49.1868C43.5725 45.4425 46.0984 41.1897 46.0984 36.8598L46.1138 36.906ZM31.8669 33.8551L32.1287 33.7626C32.5271 33.7053 32.9317 33.7053 33.3301 33.7626L34.3774 33.8705C34.9627 33.8705 35.471 33.9783 35.9176 33.9937H37.3808V43.239H36.3643C35.5018 43.239 34.9319 43.239 34.362 43.1157C33.7432 43.0466 33.1211 43.0106 32.4983 43.0079C32.2703 43.0069 32.0446 43.0541 31.8361 43.1466L31.8669 33.8551ZM18.005 29.9258H30.7271V32.7148C30.2521 32.647 29.7698 32.647 29.2947 32.7148L28.232 32.8226C27.6621 32.8226 27.1693 32.9306 26.6918 32.9459H24.2274V35.6425H22.9645V37.1834H24.2274V39.8799H22.9645V41.3437H24.2274V44.3484H24.7203H26.2605C27.0923 44.3484 27.8007 44.2714 28.3244 44.2252C28.8481 44.179 29.3872 44.1327 30.0494 44.1327C30.2512 44.1139 30.4449 44.2169 30.5423 44.3947V44.4717V51.8372C27.4619 50.2963 17.8202 44.9186 17.8202 36.5824L18.005 29.9258ZM30.1881 43.0079C29.4642 43.0079 28.9405 43.0079 28.3552 43.1003C27.7699 43.1928 27.2155 43.2082 26.353 43.2236H25.3364V33.9783H26.7996C27.2617 33.9783 27.7699 33.9783 28.3398 33.8396L29.4026 33.7318C29.791 33.6795 30.1847 33.6795 30.5731 33.7318H30.7117V42.9771C30.5439 42.9161 30.3666 42.8848 30.1881 42.8846V43.0079ZM44.743 28.4004H17.9588V18.4001H44.7738L44.743 28.4004ZM44.743 36.7211C44.743 44.7953 34.8241 50.2654 31.9131 51.6985V44.3484L32.0517 44.1944C32.1607 44.0112 32.3627 43.9043 32.5754 43.917C33.2531 43.917 33.7614 43.917 34.3312 44.0095C34.9011 44.1019 35.5018 44.1173 36.3951 44.1327C37.2884 44.1481 37.9353 44.1327 37.9353 44.1327H38.4282V41.39H39.5833V39.8491H38.459V37.1988H39.6141V35.7349H38.459V33.0076H35.9793C35.5634 33.0076 35.0705 33.0076 34.4391 32.8843L33.3917 32.7765C32.8811 32.7005 32.3621 32.7005 31.8515 32.7765V29.9258H44.7738L44.743 36.7211ZM21.6399 19.9255V24.4403C21.756 25.1048 22.1784 25.6758 22.7797 25.9812C23.673 26.5821 25.0283 27.368 25.0746 27.4142L25.3364 27.5682L25.5982 27.4296C25.5982 27.4296 27.1384 26.6129 28.0164 25.9966C28.8943 25.3802 29.0945 24.656 29.0945 24.4557V19.9409V19.417H21.6707L21.6399 19.9255ZM28.0626 21.8054H22.7181V20.4494H28.078V21.8054H28.0626ZM22.7026 22.8532H28.078V24.3941C28.078 24.4865 27.7391 24.9334 27.4619 25.1183C26.815 25.5497 25.9217 26.1044 25.3826 26.351C24.9514 26.089 24.0426 25.5497 23.3958 25.1029C22.7488 24.656 22.7335 24.5482 22.7181 24.3478C22.7027 24.1475 22.7181 23.6545 22.7181 22.807L22.7026 22.8532ZM34.208 19.7252V24.3478C34.3398 25.0146 34.7717 25.5832 35.3786 25.8887C36.3027 26.5051 37.6735 27.3217 37.7351 27.3525L37.9969 27.5066L38.2588 27.368C38.2588 27.368 39.799 26.5205 40.7385 25.8271C41.678 25.1337 41.832 24.4403 41.8475 24.2862C41.8628 24.1321 41.8475 21.6975 41.8475 19.6636V19.1397H34.1464L34.208 19.7252ZM35.2554 24.0088L37.8891 22.2214L40.7847 24.1475V24.4557C40.7847 24.733 40.4305 25.0104 40.1532 25.2107C39.4909 25.6576 38.4898 26.2277 38.0123 26.4897C37.5656 26.2277 36.6261 25.6576 35.9638 25.2107C35.7636 25.072 35.2861 24.7176 35.2554 24.4095V24.1321V24.0088ZM35.2554 20.3724H40.7847V22.8994L37.8737 20.9579L35.2554 22.8532V20.3878V20.3724ZM29.649 38.8783V37.8305H29.3718H28.8635H28.0626H26.5224V38.8783H28.0626H28.9559H29.4488H29.6798H29.649ZM29.6798 35.966V34.9183H29.3718H28.8481H28.0472H26.507V35.966H28.0472H28.9405H29.4488H29.6952H29.6798ZM28.0009 40.8661H26.4607V41.9139H28.0009H28.8943H29.4026H29.6336V40.712H29.3718H28.8481C28.5659 40.7263 28.2831 40.7263 28.0009 40.712V40.8661ZM33.3763 34.795H32.9912V35.8428H33.2376H33.7305H34.6239H36.1641V34.795H34.6239H33.823H33.3763ZM36.2103 38.9092V37.8613H35.8098H34.6701H33.9153H33.3763H32.9912V38.9092H33.2531H33.7921H34.6393H35.779H36.2103ZM33.3609 40.712H32.9758V41.7598H33.2223H33.7459H34.6084H35.0397H36.1487V40.712H35.0397H34.6084H33.8384H33.3147H33.3609ZM30.681 7.79881C30.9673 7.42656 31.0897 6.95357 31.0198 6.48904L30.8349 3.73087L29.6952 3.82332L29.9108 6.41202C29.9108 7.3211 29.6182 7.4752 29.2947 7.50603H29.2177C28.9559 7.50603 28.5863 7.39817 28.5092 6.51987L28.2936 3.93118L27.1539 4.02363L27.3695 6.8126C27.3668 7.25242 27.5522 7.67243 27.8787 7.96677C28.2054 8.26117 28.6422 8.40192 29.0791 8.3535H29.3718C29.8884 8.34866 30.3817 8.1379 30.7426 7.76798L30.681 7.79881ZM21.9326 10.0639L24.5355 9.12395L24.1967 8.1994L22.6565 8.75414L21.4551 5.41042L20.377 5.79567L21.9326 10.0639ZM20.7312 10.5724L20.2538 9.70946L18.8521 10.4953L17.1117 7.41359L16.1106 7.98369L18.3285 11.9284L20.7312 10.5724ZM14.5704 12.406L15.7255 11.4661L15.1094 10.711L13.9543 11.651L13.4922 11.0808L14.7552 10.0639L14.1391 9.30883L11.9982 11.0501L14.863 14.5632L17.0193 12.8066L16.4032 12.0362L15.1403 13.0686L14.5704 12.406ZM13.6308 15.6881L10.15 12.7913L9.44149 13.6541L11.49 15.3645L8.57898 14.6865L7.76263 15.6727L11.2435 18.5695L11.952 17.7066L9.85732 16.0579L12.7683 16.7205L13.6308 15.6881ZM7.56243 18.3384C7.36497 18.2251 7.14297 18.1617 6.91551 18.1535C6.17621 18.1535 5.7912 18.8931 5.37533 19.5403L4.85166 20.5265L8.85617 22.6529L9.39527 21.6359L7.85506 20.8038V20.7113C7.99366 20.434 8.11687 20.4648 8.34795 20.4956L9.88815 20.6959L10.4888 19.5711L8.48654 19.3554C8.35882 19.3377 8.2292 19.3377 8.10148 19.3554C8.11871 18.9156 7.87798 18.5062 7.48538 18.3076L7.56243 18.3384ZM7.19275 19.6019C7.20976 19.8256 7.14999 20.0485 7.02333 20.2337V20.3415L6.29947 19.9563V19.8485C6.48428 19.5095 6.68448 19.2321 6.99256 19.4016C7.08521 19.4441 7.15719 19.5217 7.19275 19.6173V19.6019ZM5.26751 23.1768C4.3101 23.1424 3.46053 23.7863 3.23444 24.7176C3.0363 25.3011 3.10289 25.9421 3.41676 26.4723C3.73061 27.0025 4.26039 27.3691 4.86705 27.4758C5.1376 27.5537 5.41729 27.5951 5.69877 27.5991C6.65047 27.6261 7.49152 26.9837 7.71641 26.0582C7.89459 25.5125 7.84464 24.9178 7.57782 24.4095C7.23523 23.8497 6.67879 23.4544 6.03761 23.3154C5.77726 23.2392 5.50793 23.1978 5.2367 23.1922L5.26751 23.1768ZM5.2367 24.3632C5.42409 24.3647 5.61051 24.3906 5.7912 24.4403C6.18942 24.5242 6.53825 24.7624 6.76153 25.1029C6.85658 25.3242 6.85658 25.5749 6.76153 25.7963C6.63748 26.2379 6.21718 26.5289 5.76037 26.4897C5.55681 26.4871 5.3546 26.456 5.1597 26.3972C4.55901 26.2277 3.94293 25.7809 4.14316 25.0567C4.27427 24.615 4.70177 24.3298 5.1597 24.3787L5.2367 24.3632ZM3.61949 29.1708L2.55675 29.0167V29.1246C2.41652 29.436 2.33307 29.77 2.31031 30.1107C2.20519 30.7645 2.39538 31.4313 2.82957 31.9312C3.26377 32.431 3.89722 32.7124 4.55901 32.6994H4.72844C5.33721 32.7229 5.92717 32.4859 6.35054 32.0476C6.77396 31.6093 6.9906 31.0114 6.94634 30.4035C6.9852 30.0708 6.9852 29.7346 6.94634 29.4019V29.2787H5.86819L5.97601 29.5098C6.06844 29.7821 6.10513 30.0704 6.08383 30.3573C6.07028 30.7081 5.90788 31.0365 5.63733 31.2601C5.36676 31.4837 5.01375 31.5813 4.66683 31.5283C4.31422 31.5421 3.97227 31.4059 3.72571 31.1532C3.47913 30.9007 3.351 30.5555 3.37305 30.2032C3.38419 29.9169 3.47486 29.6395 3.63489 29.4019L3.61949 29.1708ZM7.45461 37.923L3.18823 39.1711L3.51167 40.2805L5.28291 39.772L5.68338 41.1434L6.62288 40.8815L6.23781 39.5101L6.93095 39.3098L7.34679 40.7428L8.28629 40.4654L7.45461 37.923ZM5.09809 43.6088C4.92417 44.1684 4.98533 44.7748 5.26751 45.2884C5.5832 46.0491 6.32333 46.5467 7.14654 46.5519C7.56539 46.5429 7.97643 46.4374 8.34795 46.2437C8.937 45.9872 9.39783 45.5039 9.6263 44.9032C9.80024 44.3435 9.73902 43.7372 9.45687 43.2236C9.14339 42.4681 8.41084 41.9714 7.59321 41.9601C7.17436 41.9685 6.76314 42.074 6.39185 42.2683C5.798 42.5229 5.33163 43.0061 5.09809 43.6088ZM6.08383 44.1636C6.24707 43.7899 6.55168 43.4962 6.93095 43.3469C7.17475 43.2228 7.44302 43.1544 7.71641 43.1466C8.02064 43.1433 8.3082 43.2851 8.49072 43.5286C8.67325 43.7721 8.72889 44.088 8.64058 44.3793C8.48459 44.7471 8.19191 45.0399 7.82423 45.196C7.567 45.3301 7.28257 45.4039 6.99256 45.4117C6.63001 45.4253 6.29529 45.2183 6.14543 44.8878C6.05038 44.6664 6.05038 44.4157 6.14543 44.1944L6.08383 44.1636ZM8.96399 48.2006C8.55283 48.4847 8.28791 48.9358 8.24013 49.4334C8.24643 49.9243 8.43274 50.3959 8.76379 50.7585C8.98266 51.222 9.41768 51.5463 9.92428 51.6236C10.4309 51.7008 10.9427 51.5209 11.2897 51.1437L13.523 49.3717L12.7991 48.4626L10.7661 50.0035C10.227 50.4349 9.8265 50.4811 9.51848 50.0805C9.39783 49.9519 9.3364 49.7787 9.34905 49.6028C9.42688 49.3044 9.61375 49.046 9.87271 48.8786L11.8904 47.3377L11.1665 46.4287L8.96399 48.2006ZM14.6011 50.4657L11.7364 53.9789L12.5989 54.6878L14.2931 52.623L13.6616 55.5661L14.6474 56.3829L17.5121 52.8695L16.6496 52.1607L14.9554 54.2255L15.6023 51.2978L14.6011 50.4657ZM18.8368 53.7016L16.8037 57.7542L17.9742 58.3396C18.4463 58.6012 18.9749 58.7442 19.5145 58.7559C20.3285 58.742 21.053 58.2361 21.3473 57.477C22.025 56.1363 21.5937 55.0576 20.0535 54.2871L18.8368 53.7016ZM18.2823 57.3996L19.4374 55.1038L19.7146 55.2425C20.0055 55.3882 20.2269 55.6429 20.3307 55.951C20.4301 56.2794 20.397 56.6333 20.2383 56.9372C20.0454 57.3802 19.6119 57.669 19.1294 57.6768C18.9361 57.6762 18.7459 57.6284 18.5749 57.5382L18.2823 57.3996ZM23.673 55.8586L22.5024 60.2351L25.2132 60.9592L25.4596 60.0192L23.9194 59.5879L24.1351 58.7403L25.5828 59.1254L25.8447 58.1855L24.3969 57.8003L24.5817 57.1069L26.1219 57.5232L26.3837 56.5832L23.673 55.8586ZM27.8777 56.8604L27.6313 61.3905H28.9251H29.2177C29.8298 61.4817 30.4509 61.2975 30.9143 60.8874C31.3778 60.4772 31.6363 59.8828 31.6205 59.264C31.6924 58.6724 31.52 58.0769 31.143 57.6156C30.6138 57.1091 29.9034 56.837 29.1715 56.8604H27.8777ZM28.8327 60.4817L28.9867 57.9083H29.2947C29.9544 58.0074 30.4307 58.5917 30.3948 59.2579C30.3589 59.924 29.8226 60.4538 29.1561 60.4817H28.8327ZM35.5326 56.6444L34.7625 61.4367L35.9484 61.1751L36.1025 60.1578L37.5656 59.8344L38.1201 60.7126L39.3677 60.4355L36.6877 56.3829L35.5326 56.6444ZM36.3027 59.2028L36.4413 58.0163L37.0574 59.033L36.3027 59.2028ZM40.9233 58.663L39.8451 59.0636L40.2456 60.1578L41.3392 59.7727L40.9233 58.663ZM40.9233 55.0884L43.0796 59.0792L44.2193 58.4476C45.7595 57.6306 46.1292 56.5521 45.4053 55.227C44.6814 53.9019 43.5571 53.6862 42.063 54.4566L40.9233 55.0884ZM42.4635 55.3966L42.7407 55.2425C42.9198 55.1426 43.1211 55.0896 43.3261 55.0884C43.7913 55.0974 44.2129 55.3647 44.4196 55.7818C44.5951 56.0673 44.645 56.4129 44.5576 56.7368C44.4701 57.0607 44.253 57.334 43.9575 57.492L43.6803 57.6462L42.4635 55.3966ZM47.2997 55.227L46.3448 55.8898L47.0071 56.8448L47.8542 56.1208L47.2997 55.227ZM47.9621 51.8679L48.9478 52.0066L49.0248 51.267L51.1811 53.455L51.9974 52.6384L48.8246 49.418L48.1469 50.0959L47.9621 51.8679ZM51.905 49.2176C51.8475 49.6516 52.0304 50.0825 52.3824 50.3424C52.6071 50.518 52.8829 50.6154 53.1679 50.6198C53.6995 50.5782 54.1796 50.2866 54.4617 49.834C54.7541 49.4868 54.898 49.0384 54.8622 48.5858C54.8006 48.2355 54.6008 47.9245 54.3077 47.723C53.9387 47.4469 53.4489 47.3938 53.0293 47.5843C53.0343 47.1822 52.8521 46.8007 52.5365 46.5519C51.9666 46.1359 51.2119 46.367 50.6728 47.122C50.4054 47.3875 50.2669 47.7563 50.2936 48.1323C50.3202 48.5082 50.5093 48.8539 50.8114 49.079C51.1337 49.3101 51.5511 49.3623 51.9204 49.2176H51.905ZM52.8907 48.7708C53.2142 48.5551 53.4606 48.5242 53.6608 48.6783C53.7517 48.7378 53.8132 48.8329 53.8302 48.9403C53.8436 49.1227 53.7549 49.2975 53.5999 49.3944C53.4449 49.4914 53.249 49.4945 53.091 49.4025C52.9018 49.2524 52.8277 48.9993 52.9061 48.7708H52.8907ZM52.1822 48.0466C52.0421 48.1492 51.8774 48.213 51.7048 48.2315C51.6446 48.2504 51.5801 48.2504 51.5199 48.2315C51.4438 48.1562 51.4008 48.0535 51.4008 47.9464C51.4008 47.8393 51.4438 47.7366 51.5199 47.6614C51.5791 47.5651 51.6842 47.5066 51.7972 47.5073C51.8871 47.5106 51.9736 47.543 52.0436 47.5997C52.1812 47.7304 52.2447 47.9211 52.213 48.1082L52.1822 48.0466ZM54.6158 45.9509C55.0164 46.1792 55.4646 46.3111 55.9251 46.3362C56.4837 46.2739 56.9475 45.877 57.0952 45.3346C57.2959 44.9477 57.3233 44.4939 57.1705 44.0858C57.0178 43.6775 56.6994 43.3531 56.2947 43.1928C55.9674 42.9912 55.569 42.9417 55.2025 43.057C54.836 43.1723 54.5376 43.4411 54.3847 43.7937C54.2867 43.9836 54.244 44.1971 54.2615 44.4101C53.9143 44.1921 53.7825 43.7504 53.9535 43.3777C54.0571 43.1692 54.2042 42.9853 54.3847 42.8384L54.5387 42.6997L53.707 42.0988L53.6146 42.1912C53.3869 42.4142 53.1993 42.6749 53.0601 42.9616C52.841 43.3628 52.7964 43.8364 52.9369 44.2714C53.237 44.9615 53.7873 45.5121 54.4771 45.8123L54.6158 45.9509ZM55.0932 44.6412C55.0563 44.5578 55.0563 44.4627 55.0932 44.3793C55.1553 44.2501 55.289 44.171 55.4321 44.179C55.5771 44.1823 55.7195 44.2192 55.8481 44.2868C56.0187 44.3565 56.1564 44.4888 56.2328 44.6566C56.2657 44.7356 56.2657 44.8242 56.2328 44.9032C56.1737 45.0439 56.031 45.1308 55.8788 45.1189C55.7487 45.1129 55.6219 45.076 55.509 45.011C55.3265 44.9402 55.1778 44.8024 55.0932 44.6258V44.6412ZM57.4961 41.3129L57.3573 41.4978L58.4199 41.8522V41.7289C58.5933 41.4321 58.7326 41.1168 58.8358 40.789C59.0192 40.3342 59.0192 39.8261 58.8358 39.3714C58.6379 38.9934 58.2922 38.7144 57.8808 38.601C57.4587 38.481 57.0055 38.547 56.6348 38.7824C56.264 39.0178 56.0115 39.4003 55.9401 39.8337L55.4167 39.6642L55.8788 38.1233L54.97 37.8613L54.1999 40.4808L56.7106 41.2821V41.0664C56.7061 40.8268 56.7373 40.588 56.8031 40.3576C56.8031 40.1419 57.0952 39.6025 57.5881 39.7412C58.0815 39.8799 57.9889 40.4501 57.9426 40.6195C57.8534 40.8816 57.7124 41.1228 57.5268 41.3283L57.4961 41.3129Z" fill="white"/>
<path fill-rule="evenodd" clip-rule="evenodd" d="M83.4188 26.4307C80.8219 26.5024 78.3087 25.5111 76.4656 23.6878C73.8487 21.0963 73.9245 17.8685 73.9245 13.4433C73.9245 9.01826 73.9245 5.86612 76.4656 3.19894C78.2959 1.34782 80.8108 0.328445 83.4188 0.380211C88.2417 0.160938 92.4023 3.72067 92.9124 8.50297H87.8002C87.4913 6.36376 85.6175 4.79761 83.4489 4.86593C82.2296 4.81885 81.0511 5.30623 80.2237 6.19953C79.2498 7.27551 78.961 8.50297 78.961 13.4585C78.961 18.414 79.2498 19.6264 80.2237 20.7175C81.0511 21.6108 82.2296 22.0982 83.4489 22.0511C85.6203 22.1115 87.4919 20.5405 87.8002 18.3989H92.9124C92.4023 23.1812 88.2417 26.7409 83.4188 26.5216" fill="white"/>
<path fill-rule="evenodd" clip-rule="evenodd" d="M108.172 5.94193C107.347 5.03112 106.162 4.52695 104.931 4.56284C103.693 4.53026 102.5 5.03311 101.661 5.94193C100.672 7.03305 100.428 8.23024 100.428 13.1857C100.428 18.1412 100.687 19.3385 101.661 20.4296C102.5 21.3383 103.693 21.8412 104.931 21.8086C106.162 21.8445 107.347 21.3403 108.172 20.4296C109.161 19.3385 109.451 18.1412 109.451 13.1857C109.451 8.23024 109.161 7.03305 108.172 5.94193ZM111.915 23.4756C108.015 27.2404 101.818 27.2404 97.9176 23.4756C95.3007 20.8691 95.3771 17.6411 95.3771 13.1857C95.3771 8.73032 95.3771 5.50242 97.9176 2.89585C101.818 -0.868928 108.015 -0.868928 111.915 2.89585C114.532 5.50242 114.502 8.73032 114.502 13.1857C114.502 17.6411 114.502 20.8691 111.915 23.4756Z" fill="white"/>
<path fill-rule="evenodd" clip-rule="evenodd" d="M127.814 4.7903H123.098V11.5643H127.814C129.089 11.6491 130.305 11.0199 130.968 9.93228C131.631 8.84467 131.631 7.47969 130.968 6.39207C130.305 5.30448 129.089 4.67521 127.814 4.76V4.7903ZM131.74 26.0672L126.689 15.8076H123.098V26.0975H118.047V0.334892H128.149C130.34 0.172819 132.498 0.936169 134.096 2.43819C135.693 3.94022 136.583 6.04236 136.547 8.23038C136.635 11.2786 134.715 14.0269 131.816 15.0044L137.597 26.1278L131.74 26.0672Z" fill="white"/>
<path fill-rule="evenodd" clip-rule="evenodd" d="M160.632 0.304688H155.565V16.0956L145.311 0.304688H140.807V26.0976H145.859V10.2612L156.113 26.0976H160.632V0.304688Z" fill="white"/>
<path fill-rule="evenodd" clip-rule="evenodd" d="M182.236 21.5967H170.232V15.3379H180.456V10.8522H170.232V4.79041H182.236V0.304688H165.181V26.0976H182.236V21.5967Z" fill="white"/>
<path fill-rule="evenodd" clip-rule="evenodd" d="M203.049 21.5967H191.304V0.304688H186.253V26.0976H203.049V21.5967Z" fill="white"/>
<path fill-rule="evenodd" clip-rule="evenodd" d="M222.752 21.5967H211.007V0.304688H205.956V26.0976H222.752V21.5967Z" fill="white"/>
<path fill-rule="evenodd" clip-rule="evenodd" d="M92.7145 35.7661H74.1224V40.2518H80.8927V61.5588H85.9442V40.2518H92.7145V35.7661Z" fill="white"/>
<path fill-rule="evenodd" clip-rule="evenodd" d="M113.117 57.0582H101.113V50.7993H111.322V46.2985H101.113V40.2518H113.117V35.7661H96.0466V61.5588H113.117V57.0582Z" fill="white"/>
<path fill-rule="evenodd" clip-rule="evenodd" d="M125.487 61.7713C122.869 61.8258 120.344 60.8068 118.503 58.9525C115.886 56.3457 115.962 53.1179 115.962 48.6625C115.962 44.2071 115.962 40.9792 118.503 38.3726C120.34 36.5113 122.866 35.4861 125.487 35.5387C130.332 35.304 134.515 38.8852 135.011 43.6918H129.884C129.568 41.5478 127.692 39.9783 125.517 40.0396C124.29 39.9939 123.106 40.487 122.276 41.3883C121.288 42.4795 120.998 43.707 120.998 48.6777C120.998 53.6483 121.288 54.8758 122.276 55.9517C123.106 56.8533 124.29 57.3464 125.517 57.3007C127.692 57.362 129.568 55.7926 129.884 53.6483H135.011C134.515 58.455 130.332 62.0362 125.487 61.8013" fill="white"/>
<path fill-rule="evenodd" clip-rule="evenodd" d="M157.391 35.7661H152.34V46.2985H143.561V35.7661H138.51V61.5588H143.561V50.7539H152.34V61.5588H157.391V35.7661Z" fill="white"/>
</g>
<defs>
<clipPath id="clip0_248_12959">
<rect width="223" height="64" fill="white"/>
</clipPath>
</defs>
</svg>
