<svg width="7" height="253" viewBox="0 0 7 253" fill="none" xmlns="http://www.w3.org/2000/svg">
<g clip-path="url(#clip0_273_34019)">
<path d="M6.18269e-05 1.47001L6.14427e-05 5.86444C6.1372e-05 6.67332 0.653396 7.32666 1.46228 7.32666L5.85671 7.32666C6.6656 7.32666 7.31893 6.67332 7.31893 5.86444L7.31893 1.47001C7.31893 0.661124 6.6656 0.00778933 5.85671 0.00778926L1.46228 0.00778887C0.653397 0.0077888 6.18976e-05 0.661124 6.18269e-05 1.47001ZM0.178957 17.1577L0.178957 21.3344C0.178957 22.1044 0.801184 22.7266 1.57118 22.7266L5.74783 22.7266C6.51783 22.7266 7.14006 22.1044 7.14006 21.3344L7.14006 17.1577C7.14006 16.3878 6.51783 15.7655 5.74783 15.7655L1.57118 15.7655C0.801184 15.7655 0.178957 16.3878 0.178957 17.1577ZM0.365614 32.8766L0.365614 36.8277C0.365614 37.5588 0.956725 38.1421 1.68006 38.1421L5.63117 38.1421C6.36228 38.1421 6.94561 37.551 6.94561 36.8277L6.94561 32.8766C6.94561 32.1455 6.3545 31.5621 5.63117 31.5621L1.68006 31.5621C0.948948 31.5621 0.365615 32.1532 0.365614 32.8766ZM0.54451 48.4865L0.54451 52.2198C0.54451 52.9043 1.10451 53.4643 1.78895 53.4643L5.52227 53.4643C6.20671 53.4643 6.76671 52.9043 6.76671 52.2198L6.76671 48.4865C6.76671 47.8021 6.20671 47.2421 5.52227 47.2421L1.78896 47.2421C1.10451 47.2421 0.54451 47.8021 0.54451 48.4865ZM0.731167 64.1509L0.731167 67.6665C0.731167 68.312 1.25228 68.8409 1.90562 68.8409L5.42115 68.8409C6.0667 68.8409 6.5956 68.3198 6.5956 67.6665L6.5956 64.1509C6.5956 63.5054 6.07448 62.9765 5.42115 62.9765L1.90562 62.9765C1.26006 62.9765 0.731167 63.4976 0.731167 64.1509ZM0.917848 79.8931L0.917848 83.1909C0.917848 83.7975 1.40783 84.2875 2.01449 84.2875L5.31227 84.2875C5.91894 84.2875 6.40894 83.7975 6.40894 83.1909L6.40894 79.8931C6.40894 79.2864 5.91894 78.7964 5.31227 78.7964L2.01449 78.7964C1.40783 78.7964 0.917848 79.2864 0.917848 79.8931ZM1.09672 95.5419L1.09672 98.6142C1.09672 99.1819 1.55561 99.6408 2.12339 99.6408L5.19561 99.6408C5.76339 99.6408 6.22226 99.1819 6.22226 98.6142L6.22226 95.5419C6.22226 94.9742 5.76339 94.5153 5.19561 94.5153L2.12339 94.5153C1.55561 94.5153 1.09672 94.9742 1.09672 95.5419ZM1.28338 111.385L1.28338 114.24C1.28338 114.769 1.71115 115.189 2.23226 115.189L5.08671 115.189C5.6156 115.189 6.0356 114.761 6.0356 114.24L6.0356 111.385C6.0356 110.856 5.60782 110.436 5.08671 110.436L2.23226 110.436C1.70338 110.436 1.28338 110.864 1.28338 111.385ZM1.46227 126.544L1.46227 129.181C1.46227 129.663 1.85894 130.06 2.34116 130.06L4.97781 130.06C5.46003 130.06 5.8567 129.663 5.8567 129.181L5.8567 126.544C5.8567 126.062 5.46003 125.665 4.97781 125.665L2.34116 125.665C1.85894 125.665 1.46227 126.062 1.46227 126.544ZM1.64893 142.504L1.64893 144.923C1.64893 145.366 2.0067 145.724 2.45004 145.724L4.86893 145.724C5.31226 145.724 5.67004 145.366 5.67004 144.923L5.67004 142.504C5.67004 142.061 5.31226 141.703 4.86893 141.703L2.45004 141.703C2.00671 141.703 1.64893 142.061 1.64893 142.504ZM1.82782 157.764L1.82782 159.957C1.82782 160.362 2.15449 160.688 2.55894 160.688L4.75227 160.688C5.15671 160.688 5.48338 160.362 5.48338 159.957L5.48338 157.764C5.48338 157.36 5.15671 157.033 4.75227 157.033L2.55894 157.033C2.15449 157.033 1.82783 157.36 1.82782 157.764ZM2.01448 173.926L2.01448 175.902C2.01448 176.267 2.31004 176.563 2.6756 176.563L4.65115 176.563C5.01671 176.563 5.31227 176.267 5.31227 175.902L5.31227 173.926C5.31227 173.561 5.01671 173.265 4.65115 173.265L2.6756 173.265C2.31004 173.265 2.01448 173.561 2.01448 173.926ZM2.19338 189.731L2.19338 191.488C2.19338 191.815 2.45782 192.072 2.77671 192.072L4.53449 192.072C4.86115 192.072 5.11782 191.807 5.11782 191.488L5.11782 189.731C5.11782 189.404 4.85338 189.147 4.53449 189.147L2.77671 189.147C2.45004 189.147 2.19338 189.412 2.19338 189.731ZM2.38003 205.286L2.38003 206.826C2.38003 207.106 2.60559 207.339 2.89337 207.339L4.43337 207.339C4.71337 207.339 4.94671 207.114 4.94671 206.826L4.94671 205.286C4.94671 205.006 4.72115 204.773 4.43337 204.773L2.89337 204.773C2.61337 204.773 2.38003 204.998 2.38003 205.286ZM2.55893 220.849L2.55893 222.164C2.55893 222.405 2.75337 222.599 2.99448 222.599L4.30892 222.599C4.55003 222.599 4.74448 222.405 4.74448 222.164L4.74448 220.849C4.74448 220.608 4.55004 220.414 4.30892 220.414L2.99448 220.414C2.75337 220.414 2.55893 220.608 2.55893 220.849ZM2.74559 236.405L2.74559 237.501C2.74559 237.704 2.90892 237.867 3.11114 237.867L4.20781 237.867C4.41003 237.867 4.57336 237.704 4.57336 237.501L4.57336 236.405C4.57336 236.203 4.41003 236.039 4.20781 236.039L3.11114 236.039C2.90892 236.039 2.74559 236.203 2.74559 236.405ZM2.92448 251.96L2.92448 252.839C2.92448 253.003 3.05671 253.135 3.22004 253.135L4.09893 253.135C4.26226 253.135 4.39447 253.003 4.39447 252.839L4.39447 251.96C4.39447 251.797 4.26226 251.665 4.09893 251.665L3.22004 251.665C3.05671 251.665 2.92448 251.797 2.92448 251.96Z" fill="#B21B1B"/>
</g>
<defs>
<clipPath id="clip0_273_34019">
<rect width="7" height="252.777" fill="white" transform="translate(7 252.777) rotate(-180)"/>
</clipPath>
</defs>
</svg>
