<svg width="326" height="308" viewBox="0 0 326 308" fill="none" xmlns="http://www.w3.org/2000/svg">
<g opacity="0.33" clip-path="url(#clip0_255_30748)">
<path d="M1.31248e-05 7.53L1.33718e-05 1.88C1.34172e-05 0.84 0.840018 3.67177e-08 1.88002 8.21775e-08L7.53001 3.29147e-07C8.57001 3.74606e-07 9.41002 0.84 9.41002 1.88L9.41002 7.53C9.41002 8.57 8.57001 9.41 7.53001 9.41L1.88002 9.41C0.840018 9.41 1.30793e-05 8.57 1.31248e-05 7.53ZM22.06 9.18L27.43 9.18C28.42 9.18 29.22 8.38 29.22 7.39L29.22 2.02C29.22 1.03 28.42 0.230001 27.43 0.230001L22.06 0.230001C21.07 0.230001 20.27 1.03 20.27 2.02L20.27 7.39C20.27 8.38 21.07 9.18 22.06 9.18ZM42.27 8.94L47.35 8.94C48.29 8.94 49.04 8.18 49.04 7.25L49.04 2.16C49.04 1.22 48.28 0.470002 47.35 0.470002L42.27 0.470002C41.33 0.470002 40.58 1.23 40.58 2.16L40.58 7.24C40.58 8.18 41.34 8.93 42.27 8.93L42.27 8.94ZM62.34 8.71L67.14 8.71C68.02 8.71 68.74 7.99 68.74 7.11L68.74 2.31C68.74 1.43 68.02 0.710003 67.14 0.710003L62.34 0.710003C61.46 0.710003 60.74 1.43 60.74 2.31L60.74 7.11C60.74 7.99 61.46 8.71 62.34 8.71ZM82.48 8.47L87 8.47C87.83 8.47 88.51 7.8 88.51 6.96L88.51 2.45C88.51 1.62 87.84 0.940004 87 0.940004L82.48 0.940004C81.65 0.940004 80.97 1.61 80.97 2.45L80.97 6.97C80.97 7.8 81.64 8.48 82.48 8.48L82.48 8.47ZM102.72 8.23L106.96 8.23C107.74 8.23 108.37 7.6 108.37 6.82L108.37 2.59C108.37 1.81 107.74 1.18 106.96 1.18L102.72 1.18C101.94 1.18 101.31 1.81 101.31 2.59L101.31 6.83C101.31 7.61 101.94 8.24 102.72 8.24L102.72 8.23ZM122.84 8.00001L126.79 8.00001C127.52 8.00001 128.11 7.41001 128.11 6.68001L128.11 2.73001C128.11 2.00001 127.52 1.41001 126.79 1.41001L122.84 1.41001C122.11 1.41001 121.52 2.00001 121.52 2.73001L121.52 6.68001C121.52 7.41001 122.11 8.00001 122.84 8.00001ZM143.21 7.76001L146.88 7.76001C147.56 7.76001 148.1 7.21001 148.1 6.54001L148.1 2.87001C148.1 2.19001 147.55 1.65001 146.88 1.65001L143.21 1.65001C142.53 1.65001 141.99 2.20001 141.99 2.87001L141.99 6.54001C141.99 7.22001 142.54 7.76001 143.21 7.76001ZM162.7 7.53001L166.09 7.53001C166.71 7.53001 167.22 7.02001 167.22 6.40001L167.22 3.01001C167.22 2.39001 166.71 1.88001 166.09 1.88001L162.7 1.88001C162.08 1.88001 161.57 2.39001 161.57 3.01001L161.57 6.40001C161.57 7.02001 162.08 7.53001 162.7 7.53001ZM183.22 7.29001L186.33 7.29001C186.9 7.29001 187.36 6.83001 187.36 6.26001L187.36 3.15001C187.36 2.58001 186.9 2.12001 186.33 2.12001L183.22 2.12001C182.65 2.12001 182.19 2.58001 182.19 3.15001L182.19 6.26001C182.19 6.83001 182.65 7.29001 183.22 7.29001ZM202.84 7.06001L205.66 7.06001C206.18 7.06001 206.6 6.64001 206.6 6.12001L206.6 3.30001C206.6 2.78001 206.18 2.36001 205.66 2.36001L202.84 2.36001C202.32 2.36001 201.9 2.78001 201.9 3.30001L201.9 6.12001C201.9 6.64001 202.32 7.06001 202.84 7.06001ZM223.62 6.82001L226.16 6.82001C226.63 6.82001 227.01 6.44001 227.01 5.97001L227.01 3.43001C227.01 2.96001 226.63 2.58001 226.16 2.58001L223.62 2.58001C223.15 2.58001 222.77 2.96001 222.77 3.43001L222.77 5.97001C222.77 6.44001 223.15 6.82001 223.62 6.82001ZM243.94 6.59001L246.2 6.59001C246.62 6.59001 246.95 6.25001 246.95 5.84001L246.95 3.58001C246.95 3.16001 246.61 2.83001 246.2 2.83001L243.94 2.83001C243.52 2.83001 243.19 3.17001 243.19 3.58001L243.19 5.84001C243.19 6.26001 243.53 6.59001 243.94 6.59001ZM263.94 6.35001L265.92 6.35001C266.28 6.35001 266.58 6.06001 266.58 5.69001L266.58 3.71001C266.58 3.35001 266.29 3.05001 265.92 3.05001L263.94 3.05001C263.58 3.05001 263.28 3.34001 263.28 3.71001L263.28 5.69001C263.28 6.05001 263.57 6.35001 263.94 6.35001ZM283.95 6.12001L285.64 6.12001C285.95 6.12001 286.2 5.87001 286.2 5.56001L286.2 3.87001C286.2 3.56001 285.95 3.31001 285.64 3.31001L283.95 3.31001C283.64 3.31001 283.39 3.56001 283.39 3.87001L283.39 5.56001C283.39 5.87001 283.64 6.12001 283.95 6.12001ZM303.95 5.88001L305.36 5.88001C305.62 5.88001 305.83 5.67001 305.83 5.41001L305.83 4.00001C305.83 3.74001 305.62 3.53001 305.36 3.53001L303.95 3.53001C303.69 3.53001 303.48 3.74001 303.48 4.00001L303.48 5.41001C303.48 5.67001 303.69 5.88001 303.95 5.88001ZM323.95 5.65001L325.08 5.65001C325.29 5.65001 325.46 5.48001 325.46 5.27001L325.46 4.14001C325.46 3.93001 325.29 3.76001 325.08 3.76001L323.95 3.76001C323.74 3.76001 323.57 3.93001 323.57 4.14001L323.57 5.27001C323.57 5.48001 323.74 5.65001 323.95 5.65001ZM1.89 29.3L7.53999 29.3C8.57999 29.3 9.42 28.46 9.42 27.42L9.42 21.77C9.42 20.73 8.57999 19.89 7.53999 19.89L1.89 19.89C0.849997 19.89 0.0099918 20.73 0.00999175 21.77L0.0099915 27.42C0.00999146 28.46 0.849996 29.3 1.89 29.3ZM22.06 29.07L27.43 29.07C28.42 29.07 29.22 28.27 29.22 27.28L29.22 21.91C29.22 20.92 28.42 20.12 27.43 20.12L22.06 20.12C21.07 20.12 20.27 20.92 20.27 21.91L20.27 27.28C20.27 28.27 21.07 29.07 22.06 29.07ZM42.27 28.83L47.35 28.83C48.29 28.83 49.04 28.07 49.04 27.14L49.04 22.06C49.04 21.12 48.28 20.37 47.35 20.37L42.27 20.37C41.33 20.37 40.58 21.13 40.58 22.06L40.58 27.14C40.58 28.08 41.34 28.83 42.27 28.83ZM62.34 28.6L67.14 28.6C68.02 28.6 68.74 27.88 68.74 27L68.74 22.2C68.74 21.32 68.02 20.6 67.14 20.6L62.34 20.6C61.46 20.6 60.74 21.32 60.74 22.2L60.74 27C60.74 27.88 61.46 28.6 62.34 28.6ZM82.48 28.36L87 28.36C87.83 28.36 88.51 27.69 88.51 26.85L88.51 22.33C88.51 21.5 87.84 20.82 87 20.82L82.48 20.82C81.65 20.82 80.97 21.49 80.97 22.33L80.97 26.85C80.97 27.68 81.64 28.36 82.48 28.36ZM102.72 28.13L106.96 28.13C107.74 28.13 108.37 27.5 108.37 26.72L108.37 22.48C108.37 21.7 107.74 21.07 106.96 21.07L102.72 21.07C101.94 21.07 101.31 21.7 101.31 22.48L101.31 26.72C101.31 27.5 101.94 28.13 102.72 28.13ZM122.84 27.89L126.79 27.89C127.52 27.89 128.11 27.3 128.11 26.57L128.11 22.62C128.11 21.89 127.52 21.3 126.79 21.3L122.84 21.3C122.11 21.3 121.52 21.89 121.52 22.62L121.52 26.57C121.52 27.3 122.11 27.89 122.84 27.89ZM143.21 27.66L146.88 27.66C147.56 27.66 148.1 27.11 148.1 26.44L148.1 22.77C148.1 22.09 147.55 21.55 146.88 21.55L143.21 21.55C142.53 21.55 141.99 22.1 141.99 22.77L141.99 26.44C141.99 27.12 142.54 27.66 143.21 27.66ZM162.7 27.42L166.09 27.42C166.71 27.42 167.22 26.91 167.22 26.29L167.22 22.9C167.22 22.28 166.71 21.77 166.09 21.77L162.7 21.77C162.08 21.77 161.57 22.28 161.57 22.9L161.57 26.29C161.57 26.91 162.08 27.42 162.7 27.42ZM183.22 27.19L186.33 27.19C186.9 27.19 187.36 26.73 187.36 26.16L187.36 23.05C187.36 22.48 186.9 22.02 186.33 22.02L183.22 22.02C182.65 22.02 182.19 22.48 182.19 23.05L182.19 26.16C182.19 26.73 182.65 27.19 183.22 27.19ZM202.84 26.95L205.66 26.95C206.18 26.95 206.6 26.53 206.6 26.01L206.6 23.19C206.6 22.67 206.18 22.25 205.66 22.25L202.84 22.25C202.32 22.25 201.9 22.67 201.9 23.19L201.9 26.01C201.9 26.53 202.32 26.95 202.84 26.95ZM223.62 26.72L226.16 26.72C226.63 26.72 227.01 26.34 227.01 25.87L227.01 23.33C227.01 22.86 226.63 22.48 226.16 22.48L223.62 22.48C223.15 22.48 222.77 22.86 222.77 23.33L222.77 25.87C222.77 26.34 223.15 26.72 223.62 26.72ZM243.94 26.48L246.2 26.48C246.62 26.48 246.95 26.14 246.95 25.73L246.95 23.47C246.95 23.05 246.61 22.72 246.2 22.72L243.94 22.72C243.52 22.72 243.19 23.06 243.19 23.47L243.19 25.73C243.19 26.15 243.53 26.48 243.94 26.48ZM263.94 26.24L265.92 26.24C266.28 26.24 266.58 25.95 266.58 25.58L266.58 23.6C266.58 23.24 266.29 22.94 265.92 22.94L263.94 22.94C263.58 22.94 263.28 23.23 263.28 23.6L263.28 25.58C263.28 25.94 263.57 26.24 263.94 26.24ZM283.95 26.01L285.64 26.01C285.95 26.01 286.2 25.76 286.2 25.45L286.2 23.76C286.2 23.45 285.95 23.2 285.64 23.2L283.95 23.2C283.64 23.2 283.39 23.45 283.39 23.76L283.39 25.45C283.39 25.76 283.64 26.01 283.95 26.01ZM303.95 25.77L305.36 25.77C305.62 25.77 305.83 25.56 305.83 25.3L305.83 23.89C305.83 23.63 305.62 23.42 305.36 23.42L303.95 23.42C303.69 23.42 303.48 23.63 303.48 23.89L303.48 25.3C303.48 25.56 303.69 25.77 303.95 25.77ZM323.95 25.54L325.08 25.54C325.29 25.54 325.46 25.37 325.46 25.16L325.46 24.03C325.46 23.82 325.29 23.65 325.08 23.65L323.95 23.65C323.74 23.65 323.57 23.82 323.57 24.03L323.57 25.16C323.57 25.37 323.74 25.54 323.95 25.54ZM1.89 49.2L7.53999 49.2C8.57999 49.2 9.41999 48.36 9.41999 47.32L9.41999 41.67C9.41999 40.63 8.57999 39.79 7.53999 39.79L1.89 39.79C0.849996 39.79 0.00999093 40.63 0.00999088 41.67L0.00999063 47.32C0.00999059 48.36 0.849995 49.2 1.89 49.2ZM22.06 48.96L27.43 48.96C28.42 48.96 29.22 48.16 29.22 47.17L29.22 41.8C29.22 40.81 28.42 40.01 27.43 40.01L22.06 40.01C21.07 40.01 20.27 40.81 20.27 41.8L20.27 47.17C20.27 48.16 21.07 48.96 22.06 48.96ZM42.27 48.72L47.35 48.72C48.29 48.72 49.04 47.96 49.04 47.03L49.04 41.95C49.04 41.01 48.28 40.26 47.35 40.26L42.27 40.26C41.33 40.26 40.58 41.02 40.58 41.95L40.58 47.03C40.58 47.97 41.34 48.72 42.27 48.72ZM62.34 48.49L67.14 48.49C68.02 48.49 68.74 47.77 68.74 46.89L68.74 42.09C68.74 41.21 68.02 40.49 67.14 40.49L62.34 40.49C61.46 40.49 60.74 41.21 60.74 42.09L60.74 46.89C60.74 47.77 61.46 48.49 62.34 48.49ZM82.48 48.25L87 48.25C87.83 48.25 88.51 47.58 88.51 46.74L88.51 42.22C88.51 41.39 87.84 40.71 87 40.71L82.48 40.71C81.65 40.71 80.97 41.38 80.97 42.22L80.97 46.74C80.97 47.57 81.64 48.25 82.48 48.25ZM102.72 48.02L106.96 48.02C107.74 48.02 108.37 47.39 108.37 46.61L108.37 42.37C108.37 41.59 107.74 40.96 106.96 40.96L102.72 40.96C101.94 40.96 101.31 41.59 101.31 42.37L101.31 46.61C101.31 47.39 101.94 48.02 102.72 48.02ZM122.84 47.78L126.79 47.78C127.52 47.78 128.11 47.19 128.11 46.46L128.11 42.51C128.11 41.78 127.52 41.19 126.79 41.19L122.84 41.19C122.11 41.19 121.52 41.78 121.52 42.51L121.52 46.46C121.52 47.19 122.11 47.78 122.84 47.78ZM143.21 47.55L146.88 47.55C147.56 47.55 148.1 47 148.1 46.33L148.1 42.66C148.1 41.98 147.55 41.44 146.88 41.44L143.21 41.44C142.53 41.44 141.99 41.99 141.99 42.66L141.99 46.33C141.99 47.01 142.54 47.55 143.21 47.55ZM162.7 47.31L166.09 47.31C166.71 47.31 167.22 46.8 167.22 46.18L167.22 42.79C167.22 42.17 166.71 41.66 166.09 41.66L162.7 41.66C162.08 41.66 161.57 42.17 161.57 42.79L161.57 46.18C161.57 46.8 162.08 47.31 162.7 47.31ZM183.22 47.08L186.33 47.08C186.9 47.08 187.36 46.62 187.36 46.05L187.36 42.94C187.36 42.37 186.9 41.91 186.33 41.91L183.22 41.91C182.65 41.91 182.19 42.37 182.19 42.94L182.19 46.05C182.19 46.62 182.65 47.08 183.22 47.08ZM202.84 46.84L205.66 46.84C206.18 46.84 206.6 46.42 206.6 45.9L206.6 43.08C206.6 42.56 206.18 42.14 205.66 42.14L202.84 42.14C202.32 42.14 201.9 42.56 201.9 43.08L201.9 45.9C201.9 46.42 202.32 46.84 202.84 46.84ZM223.62 46.61L226.16 46.61C226.63 46.61 227.01 46.23 227.01 45.76L227.01 43.22C227.01 42.75 226.63 42.37 226.16 42.37L223.62 42.37C223.15 42.37 222.77 42.75 222.77 43.22L222.77 45.76C222.77 46.23 223.15 46.61 223.62 46.61ZM243.94 46.37L246.2 46.37C246.62 46.37 246.95 46.03 246.95 45.62L246.95 43.36C246.95 42.94 246.61 42.61 246.2 42.61L243.94 42.61C243.52 42.61 243.19 42.95 243.19 43.36L243.19 45.62C243.19 46.04 243.53 46.37 243.94 46.37ZM263.94 46.14L265.92 46.14C266.28 46.14 266.58 45.85 266.58 45.48L266.58 43.5C266.58 43.14 266.29 42.84 265.92 42.84L263.94 42.84C263.58 42.84 263.28 43.13 263.28 43.5L263.28 45.48C263.28 45.84 263.57 46.14 263.94 46.14ZM283.95 45.9L285.64 45.9C285.95 45.9 286.2 45.65 286.2 45.34L286.2 43.65C286.2 43.34 285.95 43.09 285.64 43.09L283.95 43.09C283.64 43.09 283.39 43.34 283.39 43.65L283.39 45.34C283.39 45.65 283.64 45.9 283.95 45.9ZM303.95 45.67L305.36 45.67C305.62 45.67 305.83 45.46 305.83 45.2L305.83 43.79C305.83 43.53 305.62 43.32 305.36 43.32L303.95 43.32C303.69 43.32 303.48 43.53 303.48 43.79L303.48 45.2C303.48 45.46 303.69 45.67 303.95 45.67ZM323.95 45.43L325.08 45.43C325.29 45.43 325.46 45.26 325.46 45.05L325.46 43.92C325.46 43.71 325.29 43.54 325.08 43.54L323.95 43.54C323.74 43.54 323.57 43.71 323.57 43.92L323.57 45.05C323.57 45.26 323.74 45.43 323.95 45.43ZM1.88999 69.09L7.53999 69.09C8.57999 69.09 9.41999 68.25 9.41999 67.21L9.41999 61.56C9.41999 60.52 8.57999 59.68 7.53999 59.68L1.88999 59.68C0.849995 59.68 0.00999006 60.52 0.00999001 61.56L0.00998976 67.21C0.00998972 68.25 0.849995 69.09 1.88999 69.09ZM22.06 68.85L27.43 68.85C28.42 68.85 29.22 68.05 29.22 67.06L29.22 61.69C29.22 60.7 28.42 59.9 27.43 59.9L22.06 59.9C21.07 59.9 20.27 60.7 20.27 61.69L20.27 67.06C20.27 68.05 21.07 68.85 22.06 68.85ZM42.27 68.62L47.35 68.62C48.29 68.62 49.04 67.86 49.04 66.93L49.04 61.85C49.04 60.91 48.28 60.16 47.35 60.16L42.27 60.16C41.33 60.16 40.58 60.92 40.58 61.85L40.58 66.93C40.58 67.87 41.34 68.62 42.27 68.62ZM62.34 68.38L67.14 68.38C68.02 68.38 68.74 67.66 68.74 66.78L68.74 61.98C68.74 61.1 68.02 60.38 67.14 60.38L62.34 60.38C61.46 60.38 60.74 61.1 60.74 61.98L60.74 66.78C60.74 67.66 61.46 68.38 62.34 68.38ZM82.48 68.15L87 68.15C87.83 68.15 88.51 67.48 88.51 66.64L88.51 62.12C88.51 61.29 87.84 60.61 87 60.61L82.48 60.61C81.65 60.61 80.97 61.28 80.97 62.12L80.97 66.64C80.97 67.47 81.64 68.15 82.48 68.15ZM102.72 67.91L106.96 67.91C107.74 67.91 108.37 67.28 108.37 66.5L108.37 62.26C108.37 61.48 107.74 60.85 106.96 60.85L102.72 60.85C101.94 60.85 101.31 61.48 101.31 62.26L101.31 66.5C101.31 67.28 101.94 67.91 102.72 67.91ZM122.84 67.68L126.79 67.68C127.52 67.68 128.11 67.09 128.11 66.36L128.11 62.41C128.11 61.68 127.52 61.09 126.79 61.09L122.84 61.09C122.11 61.09 121.52 61.68 121.52 62.41L121.52 66.36C121.52 67.09 122.11 67.68 122.84 67.68ZM143.21 67.44L146.88 67.44C147.56 67.44 148.1 66.89 148.1 66.22L148.1 62.55C148.1 61.87 147.55 61.33 146.88 61.33L143.21 61.33C142.53 61.33 141.99 61.88 141.99 62.55L141.99 66.22C141.99 66.9 142.54 67.44 143.21 67.44ZM162.7 67.2L166.09 67.2C166.71 67.2 167.22 66.69 167.22 66.07L167.22 62.68C167.22 62.06 166.71 61.55 166.09 61.55L162.7 61.55C162.08 61.55 161.57 62.06 161.57 62.68L161.57 66.07C161.57 66.69 162.08 67.2 162.7 67.2ZM183.22 66.97L186.33 66.97C186.9 66.97 187.36 66.51 187.36 65.94L187.36 62.83C187.36 62.26 186.9 61.8 186.33 61.8L183.22 61.8C182.65 61.8 182.19 62.26 182.19 62.83L182.19 65.94C182.19 66.51 182.65 66.97 183.22 66.97ZM202.84 66.73L205.66 66.73C206.18 66.73 206.6 66.31 206.6 65.79L206.6 62.97C206.6 62.45 206.18 62.03 205.66 62.03L202.84 62.03C202.32 62.03 201.9 62.45 201.9 62.97L201.9 65.79C201.9 66.31 202.32 66.73 202.84 66.73ZM223.62 66.5L226.16 66.5C226.63 66.5 227.01 66.12 227.01 65.65L227.01 63.11C227.01 62.64 226.63 62.26 226.16 62.26L223.62 62.26C223.15 62.26 222.77 62.64 222.77 63.11L222.77 65.65C222.77 66.12 223.15 66.5 223.62 66.5ZM243.94 66.26L246.2 66.26C246.62 66.26 246.95 65.92 246.95 65.51L246.95 63.25C246.95 62.83 246.61 62.5 246.2 62.5L243.94 62.5C243.52 62.5 243.19 62.84 243.19 63.25L243.19 65.51C243.19 65.93 243.53 66.26 243.94 66.26ZM263.94 66.03L265.92 66.03C266.28 66.03 266.58 65.74 266.58 65.37L266.58 63.39C266.58 63.03 266.29 62.73 265.92 62.73L263.94 62.73C263.58 62.73 263.28 63.02 263.28 63.39L263.28 65.37C263.28 65.73 263.57 66.03 263.94 66.03ZM283.95 65.79L285.64 65.79C285.95 65.79 286.2 65.54 286.2 65.23L286.2 63.54C286.2 63.23 285.95 62.98 285.64 62.98L283.95 62.98C283.64 62.98 283.39 63.23 283.39 63.54L283.39 65.23C283.39 65.54 283.64 65.79 283.95 65.79ZM303.95 65.56L305.36 65.56C305.62 65.56 305.83 65.35 305.83 65.09L305.83 63.68C305.83 63.42 305.62 63.21 305.36 63.21L303.95 63.21C303.69 63.21 303.48 63.42 303.48 63.68L303.48 65.09C303.48 65.35 303.69 65.56 303.95 65.56ZM323.95 65.32L325.08 65.32C325.29 65.32 325.46 65.15 325.46 64.94L325.46 63.81C325.46 63.6 325.29 63.43 325.08 63.43L323.95 63.43C323.74 63.43 323.57 63.6 323.57 63.81L323.57 64.94C323.57 65.15 323.74 65.32 323.95 65.32ZM1.88999 88.98L7.53999 88.98C8.57999 88.98 9.41999 88.14 9.41999 87.1L9.41999 81.45C9.41999 80.41 8.57999 79.57 7.53999 79.57L1.88999 79.57C0.849994 79.57 0.00998919 80.41 0.00998914 81.45L0.00998889 87.1C0.00998885 88.14 0.849994 88.98 1.88999 88.98ZM22.06 88.74L27.43 88.74C28.42 88.74 29.22 87.94 29.22 86.95L29.22 81.58C29.22 80.59 28.42 79.79 27.43 79.79L22.06 79.79C21.07 79.79 20.27 80.59 20.27 81.58L20.27 86.95C20.27 87.94 21.07 88.74 22.06 88.74ZM42.27 88.51L47.35 88.51C48.29 88.51 49.04 87.75 49.04 86.82L49.04 81.74C49.04 80.8 48.28 80.05 47.35 80.05L42.27 80.05C41.33 80.05 40.58 80.81 40.58 81.74L40.58 86.82C40.58 87.76 41.34 88.51 42.27 88.51ZM62.34 88.27L67.14 88.27C68.02 88.27 68.74 87.55 68.74 86.67L68.74 81.87C68.74 80.99 68.02 80.27 67.14 80.27L62.34 80.27C61.46 80.27 60.74 80.99 60.74 81.87L60.74 86.67C60.74 87.55 61.46 88.27 62.34 88.27ZM82.48 88.04L87 88.04C87.83 88.04 88.51 87.37 88.51 86.53L88.51 82.01C88.51 81.18 87.84 80.5 87 80.5L82.48 80.5C81.65 80.5 80.97 81.17 80.97 82.01L80.97 86.53C80.97 87.36 81.64 88.04 82.48 88.04ZM102.72 87.8L106.96 87.8C107.74 87.8 108.37 87.17 108.37 86.39L108.37 82.15C108.37 81.37 107.74 80.74 106.96 80.74L102.72 80.74C101.94 80.74 101.31 81.37 101.31 82.15L101.31 86.39C101.31 87.17 101.94 87.8 102.72 87.8ZM122.84 87.57L126.79 87.57C127.52 87.57 128.11 86.98 128.11 86.25L128.11 82.3C128.11 81.57 127.52 80.98 126.79 80.98L122.84 80.98C122.11 80.98 121.52 81.57 121.52 82.3L121.52 86.25C121.52 86.98 122.11 87.57 122.84 87.57ZM143.21 87.33L146.88 87.33C147.56 87.33 148.1 86.78 148.1 86.11L148.1 82.44C148.1 81.76 147.55 81.22 146.88 81.22L143.21 81.22C142.53 81.22 141.99 81.77 141.99 82.44L141.99 86.11C141.99 86.79 142.54 87.33 143.21 87.33ZM162.7 87.1L166.09 87.1C166.71 87.1 167.22 86.59 167.22 85.97L167.22 82.58C167.22 81.96 166.71 81.45 166.09 81.45L162.7 81.45C162.08 81.45 161.57 81.96 161.57 82.58L161.57 85.97C161.57 86.59 162.08 87.1 162.7 87.1ZM183.22 86.86L186.33 86.86C186.9 86.86 187.36 86.4 187.36 85.83L187.36 82.72C187.36 82.15 186.9 81.69 186.33 81.69L183.22 81.69C182.65 81.69 182.19 82.15 182.19 82.72L182.19 85.83C182.19 86.4 182.65 86.86 183.22 86.86ZM202.84 86.63L205.66 86.63C206.18 86.63 206.6 86.21 206.6 85.69L206.6 82.87C206.6 82.35 206.18 81.93 205.66 81.93L202.84 81.93C202.32 81.93 201.9 82.35 201.9 82.87L201.9 85.69C201.9 86.21 202.32 86.63 202.84 86.63ZM223.62 86.39L226.16 86.39C226.63 86.39 227.01 86.01 227.01 85.54L227.01 83C227.01 82.53 226.63 82.15 226.16 82.15L223.62 82.15C223.15 82.15 222.77 82.53 222.77 83L222.77 85.54C222.77 86.01 223.15 86.39 223.62 86.39ZM243.94 86.16L246.2 86.16C246.62 86.16 246.95 85.82 246.95 85.41L246.95 83.15C246.95 82.73 246.61 82.4 246.2 82.4L243.94 82.4C243.52 82.4 243.19 82.74 243.19 83.15L243.19 85.41C243.19 85.83 243.53 86.16 243.94 86.16ZM263.94 85.92L265.92 85.92C266.28 85.92 266.58 85.63 266.58 85.26L266.58 83.28C266.58 82.92 266.29 82.62 265.92 82.62L263.94 82.62C263.58 82.62 263.28 82.91 263.28 83.28L263.28 85.26C263.28 85.62 263.57 85.92 263.94 85.92ZM283.95 85.69L285.64 85.69C285.95 85.69 286.2 85.44 286.2 85.13L286.2 83.44C286.2 83.13 285.95 82.88 285.64 82.88L283.95 82.88C283.64 82.88 283.39 83.13 283.39 83.44L283.39 85.13C283.39 85.44 283.64 85.69 283.95 85.69ZM303.95 85.45L305.36 85.45C305.62 85.45 305.83 85.24 305.83 84.98L305.83 83.57C305.83 83.31 305.62 83.1 305.36 83.1L303.95 83.1C303.69 83.1 303.48 83.31 303.48 83.57L303.48 84.98C303.48 85.24 303.69 85.45 303.95 85.45ZM323.95 85.21L325.08 85.21C325.29 85.21 325.46 85.04 325.46 84.83L325.46 83.7C325.46 83.49 325.29 83.32 325.08 83.32L323.95 83.32C323.74 83.32 323.57 83.49 323.57 83.7L323.57 84.83C323.57 85.04 323.74 85.21 323.95 85.21ZM1.88999 108.87L7.53999 108.87C8.57999 108.87 9.41999 108.03 9.41999 106.99L9.41999 101.34C9.41999 100.3 8.57999 99.46 7.53999 99.46L1.88999 99.46C0.849993 99.46 0.00998832 100.3 0.00998827 101.34L0.00998803 106.99C0.00998798 108.03 0.849993 108.87 1.88999 108.87ZM22.06 108.64L27.43 108.64C28.42 108.64 29.22 107.84 29.22 106.85L29.22 101.48C29.22 100.49 28.42 99.69 27.43 99.69L22.06 99.69C21.07 99.69 20.27 100.49 20.27 101.48L20.27 106.85C20.27 107.84 21.07 108.64 22.06 108.64ZM42.27 108.4L47.35 108.4C48.29 108.4 49.04 107.64 49.04 106.71L49.04 101.63C49.04 100.69 48.28 99.94 47.35 99.94L42.27 99.94C41.33 99.94 40.58 100.7 40.58 101.63L40.58 106.71C40.58 107.65 41.34 108.4 42.27 108.4ZM62.34 108.17L67.14 108.17C68.02 108.17 68.74 107.45 68.74 106.57L68.74 101.77C68.74 100.89 68.02 100.17 67.14 100.17L62.34 100.17C61.46 100.17 60.74 100.89 60.74 101.77L60.74 106.57C60.74 107.45 61.46 108.17 62.34 108.17ZM82.48 107.93L87 107.93C87.83 107.93 88.51 107.26 88.51 106.42L88.51 101.9C88.51 101.07 87.84 100.39 87 100.39L82.48 100.39C81.65 100.39 80.97 101.06 80.97 101.9L80.97 106.42C80.97 107.25 81.64 107.93 82.48 107.93ZM102.72 107.69L106.96 107.69C107.74 107.69 108.37 107.06 108.37 106.28L108.37 102.04C108.37 101.26 107.74 100.63 106.96 100.63L102.72 100.63C101.94 100.63 101.31 101.26 101.31 102.04L101.31 106.28C101.31 107.06 101.94 107.69 102.72 107.69ZM122.84 107.46L126.79 107.46C127.52 107.46 128.11 106.87 128.11 106.14L128.11 102.19C128.11 101.46 127.52 100.87 126.79 100.87L122.84 100.87C122.11 100.87 121.52 101.46 121.52 102.19L121.52 106.14C121.52 106.87 122.11 107.46 122.84 107.46ZM143.21 107.22L146.88 107.22C147.56 107.22 148.1 106.67 148.1 106L148.1 102.33C148.1 101.65 147.55 101.11 146.88 101.11L143.21 101.11C142.53 101.11 141.99 101.66 141.99 102.33L141.99 106C141.99 106.68 142.54 107.22 143.21 107.22ZM162.7 106.99L166.09 106.99C166.71 106.99 167.22 106.48 167.22 105.86L167.22 102.47C167.22 101.85 166.71 101.34 166.09 101.34L162.7 101.34C162.08 101.34 161.57 101.85 161.57 102.47L161.57 105.86C161.57 106.48 162.08 106.99 162.7 106.99ZM183.22 106.75L186.33 106.75C186.9 106.75 187.36 106.29 187.36 105.72L187.36 102.61C187.36 102.04 186.9 101.58 186.33 101.58L183.22 101.58C182.65 101.58 182.19 102.04 182.19 102.61L182.19 105.72C182.19 106.29 182.65 106.75 183.22 106.75ZM202.84 106.52L205.66 106.52C206.18 106.52 206.6 106.1 206.6 105.58L206.6 102.76C206.6 102.24 206.18 101.82 205.66 101.82L202.84 101.82C202.32 101.82 201.9 102.24 201.9 102.76L201.9 105.58C201.9 106.1 202.32 106.52 202.84 106.52ZM223.62 106.28L226.16 106.28C226.63 106.28 227.01 105.9 227.01 105.43L227.01 102.89C227.01 102.42 226.63 102.04 226.16 102.04L223.62 102.04C223.15 102.04 222.77 102.42 222.77 102.89L222.77 105.43C222.77 105.9 223.15 106.28 223.62 106.28ZM243.94 106.05L246.2 106.05C246.62 106.05 246.95 105.71 246.95 105.3L246.95 103.04C246.95 102.62 246.61 102.29 246.2 102.29L243.94 102.29C243.52 102.29 243.19 102.63 243.19 103.04L243.19 105.3C243.19 105.72 243.53 106.05 243.94 106.05ZM263.94 105.81L265.92 105.81C266.28 105.81 266.58 105.52 266.58 105.15L266.58 103.17C266.58 102.81 266.29 102.51 265.92 102.51L263.94 102.51C263.58 102.51 263.28 102.8 263.28 103.17L263.28 105.15C263.28 105.51 263.57 105.81 263.94 105.81ZM283.95 105.58L285.64 105.58C285.95 105.58 286.2 105.33 286.2 105.02L286.2 103.33C286.2 103.02 285.95 102.77 285.64 102.77L283.95 102.77C283.64 102.77 283.39 103.02 283.39 103.33L283.39 105.02C283.39 105.33 283.64 105.58 283.95 105.58ZM303.95 105.34L305.36 105.34C305.62 105.34 305.83 105.13 305.83 104.87L305.83 103.46C305.83 103.2 305.62 102.99 305.36 102.99L303.95 102.99C303.69 102.99 303.48 103.2 303.48 103.46L303.48 104.87C303.48 105.13 303.69 105.34 303.95 105.34ZM323.95 105.11L325.08 105.11C325.29 105.11 325.46 104.94 325.46 104.73L325.46 103.6C325.46 103.39 325.29 103.22 325.08 103.22L323.95 103.22C323.74 103.22 323.57 103.39 323.57 103.6L323.57 104.73C323.57 104.94 323.74 105.11 323.95 105.11ZM1.88999 128.76L7.53999 128.76C8.57999 128.76 9.41999 127.92 9.41999 126.88L9.41999 121.23C9.41999 120.19 8.57999 119.35 7.53999 119.35L1.88999 119.35C0.849992 119.35 0.00998745 120.19 0.0099874 121.23L0.00998716 126.88C0.00998711 127.92 0.849992 128.76 1.88999 128.76ZM22.06 128.53L27.43 128.53C28.42 128.53 29.22 127.73 29.22 126.74L29.22 121.37C29.22 120.38 28.42 119.58 27.43 119.58L22.06 119.58C21.07 119.58 20.27 120.38 20.27 121.37L20.27 126.74C20.27 127.73 21.07 128.53 22.06 128.53ZM42.27 128.29L47.35 128.29C48.29 128.29 49.04 127.53 49.04 126.6L49.04 121.52C49.04 120.58 48.28 119.83 47.35 119.83L42.27 119.83C41.33 119.83 40.58 120.59 40.58 121.52L40.58 126.6C40.58 127.54 41.34 128.29 42.27 128.29ZM62.34 128.06L67.14 128.06C68.02 128.06 68.74 127.34 68.74 126.46L68.74 121.66C68.74 120.78 68.02 120.06 67.14 120.06L62.34 120.06C61.46 120.06 60.74 120.78 60.74 121.66L60.74 126.46C60.74 127.34 61.46 128.06 62.34 128.06ZM82.48 127.82L87 127.82C87.83 127.82 88.51 127.15 88.51 126.31L88.51 121.79C88.51 120.96 87.84 120.28 87 120.28L82.48 120.28C81.65 120.28 80.97 120.95 80.97 121.79L80.97 126.31C80.97 127.14 81.64 127.82 82.48 127.82ZM102.72 127.59L106.96 127.59C107.74 127.59 108.37 126.96 108.37 126.18L108.37 121.94C108.37 121.16 107.74 120.53 106.96 120.53L102.72 120.53C101.94 120.53 101.31 121.16 101.31 121.94L101.31 126.18C101.31 126.96 101.94 127.59 102.72 127.59ZM122.84 127.35L126.79 127.35C127.52 127.35 128.11 126.76 128.11 126.03L128.11 122.08C128.11 121.35 127.52 120.76 126.79 120.76L122.84 120.76C122.11 120.76 121.52 121.35 121.52 122.08L121.52 126.03C121.52 126.76 122.11 127.35 122.84 127.35ZM143.21 127.12L146.88 127.12C147.56 127.12 148.1 126.57 148.1 125.9L148.1 122.23C148.1 121.55 147.55 121.01 146.88 121.01L143.21 121.01C142.53 121.01 141.99 121.56 141.99 122.23L141.99 125.9C141.99 126.58 142.54 127.12 143.21 127.12ZM162.7 126.88L166.09 126.88C166.71 126.88 167.22 126.37 167.22 125.75L167.22 122.36C167.22 121.74 166.71 121.23 166.09 121.23L162.7 121.23C162.08 121.23 161.57 121.74 161.57 122.36L161.57 125.75C161.57 126.37 162.08 126.88 162.7 126.88ZM183.22 126.65L186.33 126.65C186.9 126.65 187.36 126.19 187.36 125.62L187.36 122.51C187.36 121.94 186.9 121.48 186.33 121.48L183.22 121.48C182.65 121.48 182.19 121.94 182.19 122.51L182.19 125.62C182.19 126.19 182.65 126.65 183.22 126.65ZM202.84 126.41L205.66 126.41C206.18 126.41 206.6 125.99 206.6 125.47L206.6 122.65C206.6 122.13 206.18 121.71 205.66 121.71L202.84 121.71C202.32 121.71 201.9 122.13 201.9 122.65L201.9 125.47C201.9 125.99 202.32 126.41 202.84 126.41ZM223.62 126.18L226.16 126.18C226.63 126.18 227.01 125.8 227.01 125.33L227.01 122.79C227.01 122.32 226.63 121.94 226.16 121.94L223.62 121.94C223.15 121.94 222.77 122.32 222.77 122.79L222.77 125.33C222.77 125.8 223.15 126.18 223.62 126.18ZM243.94 125.94L246.2 125.94C246.62 125.94 246.95 125.6 246.95 125.19L246.95 122.93C246.95 122.51 246.61 122.18 246.2 122.18L243.94 122.18C243.52 122.18 243.19 122.52 243.19 122.93L243.19 125.19C243.19 125.61 243.53 125.94 243.94 125.94ZM263.94 125.7L265.92 125.7C266.28 125.7 266.58 125.41 266.58 125.04L266.58 123.06C266.58 122.7 266.29 122.4 265.92 122.4L263.94 122.4C263.58 122.4 263.28 122.69 263.28 123.06L263.28 125.04C263.28 125.4 263.57 125.7 263.94 125.7ZM283.95 125.47L285.64 125.47C285.95 125.47 286.2 125.22 286.2 124.91L286.2 123.22C286.2 122.91 285.95 122.66 285.64 122.66L283.95 122.66C283.64 122.66 283.39 122.91 283.39 123.22L283.39 124.91C283.39 125.22 283.64 125.47 283.95 125.47ZM303.95 125.23L305.36 125.23C305.62 125.23 305.83 125.02 305.83 124.76L305.83 123.35C305.83 123.09 305.62 122.88 305.36 122.88L303.95 122.88C303.69 122.88 303.48 123.09 303.48 123.35L303.48 124.76C303.48 125.02 303.69 125.23 303.95 125.23ZM323.95 125L325.08 125C325.29 125 325.46 124.83 325.46 124.62L325.46 123.49C325.46 123.28 325.29 123.11 325.08 123.11L323.95 123.11C323.74 123.11 323.57 123.28 323.57 123.49L323.57 124.62C323.57 124.83 323.74 125 323.95 125ZM1.88999 148.66L7.53998 148.66C8.57998 148.66 9.41999 147.82 9.41999 146.78L9.41999 141.13C9.41999 140.09 8.57999 139.25 7.53999 139.25L1.88999 139.25C0.849992 139.25 0.00998658 140.09 0.00998653 141.13L0.00998629 146.78C0.00998624 147.82 0.849991 148.66 1.88999 148.66ZM22.06 148.42L27.43 148.42C28.42 148.42 29.22 147.62 29.22 146.63L29.22 141.26C29.22 140.27 28.42 139.47 27.43 139.47L22.06 139.47C21.07 139.47 20.27 140.27 20.27 141.26L20.27 146.63C20.27 147.62 21.07 148.42 22.06 148.42ZM42.27 148.18L47.35 148.18C48.29 148.18 49.04 147.42 49.04 146.49L49.04 141.41C49.04 140.47 48.28 139.72 47.35 139.72L42.27 139.72C41.33 139.72 40.58 140.48 40.58 141.41L40.58 146.49C40.58 147.43 41.34 148.18 42.27 148.18ZM62.34 147.95L67.14 147.95C68.02 147.95 68.74 147.23 68.74 146.35L68.74 141.55C68.74 140.67 68.02 139.95 67.14 139.95L62.34 139.95C61.46 139.95 60.74 140.67 60.74 141.55L60.74 146.35C60.74 147.23 61.46 147.95 62.34 147.95ZM82.48 147.71L87 147.71C87.83 147.71 88.51 147.04 88.51 146.2L88.51 141.68C88.51 140.85 87.84 140.17 87 140.17L82.48 140.17C81.65 140.17 80.97 140.84 80.97 141.68L80.97 146.2C80.97 147.03 81.64 147.71 82.48 147.71ZM102.72 147.48L106.96 147.48C107.74 147.48 108.37 146.85 108.37 146.07L108.37 141.83C108.37 141.05 107.74 140.42 106.96 140.42L102.72 140.42C101.94 140.42 101.31 141.05 101.31 141.83L101.31 146.07C101.31 146.85 101.94 147.48 102.72 147.48ZM122.84 147.24L126.79 147.24C127.52 147.24 128.11 146.65 128.11 145.92L128.11 141.97C128.11 141.24 127.52 140.65 126.79 140.65L122.84 140.65C122.11 140.65 121.52 141.24 121.52 141.97L121.52 145.92C121.52 146.65 122.11 147.24 122.84 147.24ZM143.21 147.01L146.88 147.01C147.56 147.01 148.1 146.46 148.1 145.79L148.1 142.12C148.1 141.44 147.55 140.9 146.88 140.9L143.21 140.9C142.53 140.9 141.99 141.45 141.99 142.12L141.99 145.79C141.99 146.47 142.54 147.01 143.21 147.01ZM162.7 146.77L166.09 146.77C166.71 146.77 167.22 146.26 167.22 145.64L167.22 142.25C167.22 141.63 166.71 141.12 166.09 141.12L162.7 141.12C162.08 141.12 161.57 141.63 161.57 142.25L161.57 145.64C161.57 146.26 162.08 146.77 162.7 146.77ZM183.22 146.54L186.33 146.54C186.9 146.54 187.36 146.08 187.36 145.51L187.36 142.4C187.36 141.83 186.9 141.37 186.33 141.37L183.22 141.37C182.65 141.37 182.19 141.83 182.19 142.4L182.19 145.51C182.19 146.08 182.65 146.54 183.22 146.54ZM202.84 146.3L205.66 146.3C206.18 146.3 206.6 145.88 206.6 145.36L206.6 142.54C206.6 142.02 206.18 141.6 205.66 141.6L202.84 141.6C202.32 141.6 201.9 142.02 201.9 142.54L201.9 145.36C201.9 145.88 202.32 146.3 202.84 146.3ZM223.62 146.07L226.16 146.07C226.63 146.07 227.01 145.69 227.01 145.22L227.01 142.68C227.01 142.21 226.63 141.83 226.16 141.83L223.62 141.83C223.15 141.83 222.77 142.21 222.77 142.68L222.77 145.22C222.77 145.69 223.15 146.07 223.62 146.07ZM243.94 145.83L246.2 145.83C246.62 145.83 246.95 145.49 246.95 145.08L246.95 142.82C246.95 142.4 246.61 142.07 246.2 142.07L243.94 142.07C243.52 142.07 243.19 142.41 243.19 142.82L243.19 145.08C243.19 145.5 243.53 145.83 243.94 145.83ZM263.94 145.6L265.92 145.6C266.28 145.6 266.58 145.31 266.58 144.94L266.58 142.96C266.58 142.6 266.29 142.3 265.92 142.3L263.94 142.3C263.58 142.3 263.28 142.59 263.28 142.96L263.28 144.94C263.28 145.3 263.57 145.6 263.94 145.6ZM283.95 145.36L285.64 145.36C285.95 145.36 286.2 145.11 286.2 144.8L286.2 143.11C286.2 142.8 285.95 142.55 285.64 142.55L283.95 142.55C283.64 142.55 283.39 142.8 283.39 143.11L283.39 144.8C283.39 145.11 283.64 145.36 283.95 145.36ZM303.95 145.13L305.36 145.13C305.62 145.13 305.83 144.92 305.83 144.66L305.83 143.25C305.83 142.99 305.62 142.78 305.36 142.78L303.95 142.78C303.69 142.78 303.48 142.99 303.48 143.25L303.48 144.66C303.48 144.92 303.69 145.13 303.95 145.13ZM323.95 144.89L325.08 144.89C325.29 144.89 325.46 144.72 325.46 144.51L325.46 143.38C325.46 143.17 325.29 143 325.08 143L323.95 143C323.74 143 323.57 143.17 323.57 143.38L323.57 144.51C323.57 144.72 323.74 144.89 323.95 144.89ZM1.88999 168.55L7.53998 168.55C8.57998 168.55 9.41999 167.71 9.41999 166.67L9.41999 161.02C9.41999 159.98 8.57998 159.14 7.53998 159.14L1.88999 159.14C0.849991 159.14 0.00998571 159.98 0.00998566 161.02L0.00998542 166.67C0.00998537 167.71 0.84999 168.55 1.88999 168.55ZM22.06 168.31L27.43 168.31C28.42 168.31 29.22 167.51 29.22 166.52L29.22 161.15C29.22 160.16 28.42 159.36 27.43 159.36L22.06 159.36C21.07 159.36 20.27 160.16 20.27 161.15L20.27 166.52C20.27 167.51 21.07 168.31 22.06 168.31ZM42.27 168.08L47.35 168.08C48.29 168.08 49.04 167.32 49.04 166.39L49.04 161.31C49.04 160.37 48.28 159.62 47.35 159.62L42.27 159.62C41.33 159.62 40.58 160.38 40.58 161.31L40.58 166.39C40.58 167.33 41.34 168.08 42.27 168.08ZM62.34 167.84L67.14 167.84C68.02 167.84 68.74 167.12 68.74 166.24L68.74 161.44C68.74 160.56 68.02 159.84 67.14 159.84L62.34 159.84C61.46 159.84 60.74 160.56 60.74 161.44L60.74 166.24C60.74 167.12 61.46 167.84 62.34 167.84ZM82.48 167.61L87 167.61C87.83 167.61 88.51 166.94 88.51 166.1L88.51 161.58C88.51 160.75 87.84 160.07 87 160.07L82.48 160.07C81.65 160.07 80.97 160.74 80.97 161.58L80.97 166.1C80.97 166.93 81.64 167.61 82.48 167.61ZM102.72 167.37L106.96 167.37C107.74 167.37 108.37 166.74 108.37 165.96L108.37 161.72C108.37 160.94 107.74 160.31 106.96 160.31L102.72 160.31C101.94 160.31 101.31 160.94 101.31 161.72L101.31 165.96C101.31 166.74 101.94 167.37 102.72 167.37ZM122.84 167.14L126.79 167.14C127.52 167.14 128.11 166.55 128.11 165.82L128.11 161.87C128.11 161.14 127.52 160.55 126.79 160.55L122.84 160.55C122.11 160.55 121.52 161.14 121.52 161.87L121.52 165.82C121.52 166.55 122.11 167.14 122.84 167.14ZM143.21 166.9L146.88 166.9C147.56 166.9 148.1 166.35 148.1 165.68L148.1 162.01C148.1 161.33 147.55 160.79 146.88 160.79L143.21 160.79C142.53 160.79 141.99 161.34 141.99 162.01L141.99 165.68C141.99 166.36 142.54 166.9 143.21 166.9ZM162.7 166.66L166.09 166.66C166.71 166.66 167.22 166.15 167.22 165.53L167.22 162.14C167.22 161.52 166.71 161.01 166.09 161.01L162.7 161.01C162.08 161.01 161.57 161.52 161.57 162.14L161.57 165.53C161.57 166.15 162.08 166.66 162.7 166.66ZM183.22 166.43L186.33 166.43C186.9 166.43 187.36 165.97 187.36 165.4L187.36 162.29C187.36 161.72 186.9 161.26 186.33 161.26L183.22 161.26C182.65 161.26 182.19 161.72 182.19 162.29L182.19 165.4C182.19 165.97 182.65 166.43 183.22 166.43ZM202.84 166.19L205.66 166.19C206.18 166.19 206.6 165.77 206.6 165.25L206.6 162.43C206.6 161.91 206.18 161.49 205.66 161.49L202.84 161.49C202.32 161.49 201.9 161.91 201.9 162.43L201.9 165.25C201.9 165.77 202.32 166.19 202.84 166.19ZM223.62 165.96L226.16 165.96C226.63 165.96 227.01 165.58 227.01 165.11L227.01 162.57C227.01 162.1 226.63 161.72 226.16 161.72L223.62 161.72C223.15 161.72 222.77 162.1 222.77 162.57L222.77 165.11C222.77 165.58 223.15 165.96 223.62 165.96ZM243.94 165.72L246.2 165.72C246.62 165.72 246.95 165.38 246.95 164.97L246.95 162.71C246.95 162.29 246.61 161.96 246.2 161.96L243.94 161.96C243.52 161.96 243.19 162.3 243.19 162.71L243.19 164.97C243.19 165.39 243.53 165.72 243.94 165.72ZM263.94 165.49L265.92 165.49C266.28 165.49 266.58 165.2 266.58 164.83L266.58 162.85C266.58 162.49 266.29 162.19 265.92 162.19L263.94 162.19C263.58 162.19 263.28 162.48 263.28 162.85L263.28 164.83C263.28 165.19 263.57 165.49 263.94 165.49ZM283.95 165.25L285.64 165.25C285.95 165.25 286.2 165 286.2 164.69L286.2 163C286.2 162.69 285.95 162.44 285.64 162.44L283.95 162.44C283.64 162.44 283.39 162.69 283.39 163L283.39 164.69C283.39 165 283.64 165.25 283.95 165.25ZM303.95 165.02L305.36 165.02C305.62 165.02 305.83 164.81 305.83 164.55L305.83 163.14C305.83 162.88 305.62 162.67 305.36 162.67L303.95 162.67C303.69 162.67 303.48 162.88 303.48 163.14L303.48 164.55C303.48 164.81 303.69 165.02 303.95 165.02ZM323.95 164.78L325.08 164.78C325.29 164.78 325.46 164.61 325.46 164.4L325.46 163.27C325.46 163.06 325.29 162.89 325.08 162.89L323.95 162.89C323.74 162.89 323.57 163.06 323.57 163.27L323.57 164.4C323.57 164.61 323.74 164.78 323.95 164.78ZM1.88999 188.44L7.53998 188.44C8.57998 188.44 9.41999 187.6 9.41999 186.56L9.41999 180.91C9.41999 179.87 8.57998 179.03 7.53998 179.03L1.88999 179.03C0.84999 179.03 0.00998484 179.87 0.00998479 180.91L0.00998455 186.56C0.0099845 187.6 0.849989 188.44 1.88999 188.44ZM22.06 188.2L27.43 188.2C28.42 188.2 29.22 187.4 29.22 186.41L29.22 181.04C29.22 180.05 28.42 179.25 27.43 179.25L22.06 179.25C21.07 179.25 20.27 180.05 20.27 181.04L20.27 186.41C20.27 187.4 21.07 188.2 22.06 188.2ZM42.27 187.97L47.35 187.97C48.29 187.97 49.04 187.21 49.04 186.28L49.04 181.2C49.04 180.26 48.28 179.51 47.35 179.51L42.27 179.51C41.33 179.51 40.58 180.27 40.58 181.2L40.58 186.28C40.58 187.22 41.34 187.97 42.27 187.97ZM62.34 187.73L67.14 187.73C68.02 187.73 68.74 187.01 68.74 186.13L68.74 181.33C68.74 180.45 68.02 179.73 67.14 179.73L62.34 179.73C61.46 179.73 60.74 180.45 60.74 181.33L60.74 186.13C60.74 187.01 61.46 187.73 62.34 187.73ZM82.48 187.5L87 187.5C87.83 187.5 88.51 186.83 88.51 185.99L88.51 181.47C88.51 180.64 87.84 179.96 87 179.96L82.48 179.96C81.65 179.96 80.97 180.63 80.97 181.47L80.97 185.99C80.97 186.82 81.64 187.5 82.48 187.5ZM102.72 187.26L106.96 187.26C107.74 187.26 108.37 186.63 108.37 185.85L108.37 181.61C108.37 180.83 107.74 180.2 106.96 180.2L102.72 180.2C101.94 180.2 101.31 180.83 101.31 181.61L101.31 185.85C101.31 186.63 101.94 187.26 102.72 187.26ZM122.84 187.03L126.79 187.03C127.52 187.03 128.11 186.44 128.11 185.71L128.11 181.76C128.11 181.03 127.52 180.44 126.79 180.44L122.84 180.44C122.11 180.44 121.52 181.03 121.52 181.76L121.52 185.71C121.52 186.44 122.11 187.03 122.84 187.03ZM143.21 186.79L146.88 186.79C147.56 186.79 148.1 186.24 148.1 185.57L148.1 181.9C148.1 181.22 147.55 180.68 146.88 180.68L143.21 180.68C142.53 180.68 141.99 181.23 141.99 181.9L141.99 185.57C141.99 186.25 142.54 186.79 143.21 186.79ZM162.7 186.56L166.09 186.56C166.71 186.56 167.22 186.05 167.22 185.43L167.22 182.04C167.22 181.42 166.71 180.91 166.09 180.91L162.7 180.91C162.08 180.91 161.57 181.42 161.57 182.04L161.57 185.43C161.57 186.05 162.08 186.56 162.7 186.56ZM183.22 186.32L186.33 186.32C186.9 186.32 187.36 185.86 187.36 185.29L187.36 182.18C187.36 181.61 186.9 181.15 186.33 181.15L183.22 181.15C182.65 181.15 182.19 181.61 182.19 182.18L182.19 185.29C182.19 185.86 182.65 186.32 183.22 186.32ZM202.84 186.09L205.66 186.09C206.18 186.09 206.6 185.67 206.6 185.15L206.6 182.33C206.6 181.81 206.18 181.39 205.66 181.39L202.84 181.39C202.32 181.39 201.9 181.81 201.9 182.33L201.9 185.15C201.9 185.67 202.32 186.09 202.84 186.09ZM223.62 185.85L226.16 185.85C226.63 185.85 227.01 185.47 227.01 185L227.01 182.46C227.01 181.99 226.63 181.61 226.16 181.61L223.62 181.61C223.15 181.61 222.77 181.99 222.77 182.46L222.77 185C222.77 185.47 223.15 185.85 223.62 185.85ZM243.94 185.62L246.2 185.62C246.62 185.62 246.95 185.28 246.95 184.87L246.95 182.61C246.95 182.19 246.61 181.86 246.2 181.86L243.94 181.86C243.52 181.86 243.19 182.2 243.19 182.61L243.19 184.87C243.19 185.29 243.53 185.62 243.94 185.62ZM263.94 185.38L265.92 185.38C266.28 185.38 266.58 185.09 266.58 184.72L266.58 182.74C266.58 182.38 266.29 182.08 265.92 182.08L263.94 182.08C263.58 182.08 263.28 182.37 263.28 182.74L263.28 184.72C263.28 185.08 263.57 185.38 263.94 185.38ZM283.95 185.15L285.64 185.15C285.95 185.15 286.2 184.9 286.2 184.59L286.2 182.9C286.2 182.59 285.95 182.34 285.64 182.34L283.95 182.34C283.64 182.34 283.39 182.59 283.39 182.9L283.39 184.59C283.39 184.9 283.64 185.15 283.95 185.15ZM303.95 184.91L305.36 184.91C305.62 184.91 305.83 184.7 305.83 184.44L305.83 183.03C305.83 182.77 305.62 182.56 305.36 182.56L303.95 182.56C303.69 182.56 303.48 182.77 303.48 183.03L303.48 184.44C303.48 184.7 303.69 184.91 303.95 184.91ZM323.95 184.67L325.08 184.67C325.29 184.67 325.46 184.5 325.46 184.29L325.46 183.16C325.46 182.95 325.29 182.78 325.08 182.78L323.95 182.78C323.74 182.78 323.57 182.95 323.57 183.16L323.57 184.29C323.57 184.5 323.74 184.67 323.95 184.67ZM1.88999 208.33L7.53998 208.33C8.57998 208.33 9.41999 207.49 9.41999 206.45L9.41999 200.8C9.41999 199.76 8.57998 198.92 7.53998 198.92L1.88999 198.92C0.849989 198.92 0.00998397 199.76 0.00998392 200.8L0.00998368 206.45C0.00998363 207.49 0.849989 208.33 1.88999 208.33ZM22.06 208.1L27.43 208.1C28.42 208.1 29.22 207.3 29.22 206.31L29.22 200.94C29.22 199.95 28.42 199.15 27.43 199.15L22.06 199.15C21.07 199.15 20.27 199.95 20.27 200.94L20.27 206.31C20.27 207.3 21.07 208.1 22.06 208.1ZM42.27 207.86L47.35 207.86C48.29 207.86 49.04 207.1 49.04 206.17L49.04 201.09C49.04 200.15 48.28 199.4 47.35 199.4L42.27 199.4C41.33 199.4 40.58 200.16 40.58 201.09L40.58 206.17C40.58 207.11 41.34 207.86 42.27 207.86ZM62.34 207.63L67.14 207.63C68.02 207.63 68.74 206.91 68.74 206.03L68.74 201.23C68.74 200.35 68.02 199.63 67.14 199.63L62.34 199.63C61.46 199.63 60.74 200.35 60.74 201.23L60.74 206.03C60.74 206.91 61.46 207.63 62.34 207.63ZM82.48 207.39L87 207.39C87.83 207.39 88.51 206.72 88.51 205.88L88.51 201.36C88.51 200.53 87.84 199.85 87 199.85L82.48 199.85C81.65 199.85 80.97 200.52 80.97 201.36L80.97 205.88C80.97 206.71 81.64 207.39 82.48 207.39ZM102.72 207.15L106.96 207.15C107.74 207.15 108.37 206.52 108.37 205.74L108.37 201.5C108.37 200.72 107.74 200.09 106.96 200.09L102.72 200.09C101.94 200.09 101.31 200.72 101.31 201.5L101.31 205.74C101.31 206.52 101.94 207.15 102.72 207.15ZM122.84 206.92L126.79 206.92C127.52 206.92 128.11 206.33 128.11 205.6L128.11 201.65C128.11 200.92 127.52 200.33 126.79 200.33L122.84 200.33C122.11 200.33 121.52 200.92 121.52 201.65L121.52 205.6C121.52 206.33 122.11 206.92 122.84 206.92ZM143.21 206.68L146.88 206.68C147.56 206.68 148.1 206.13 148.1 205.46L148.1 201.79C148.1 201.11 147.55 200.57 146.88 200.57L143.21 200.57C142.53 200.57 141.99 201.12 141.99 201.79L141.99 205.46C141.99 206.14 142.54 206.68 143.21 206.68ZM162.7 206.45L166.09 206.45C166.71 206.45 167.22 205.94 167.22 205.32L167.22 201.93C167.22 201.31 166.71 200.8 166.09 200.8L162.7 200.8C162.08 200.8 161.57 201.31 161.57 201.93L161.57 205.32C161.57 205.94 162.08 206.45 162.7 206.45ZM183.22 206.21L186.33 206.21C186.9 206.21 187.36 205.75 187.36 205.18L187.36 202.07C187.36 201.5 186.9 201.04 186.33 201.04L183.22 201.04C182.65 201.04 182.19 201.5 182.19 202.07L182.19 205.18C182.19 205.75 182.65 206.21 183.22 206.21ZM202.84 205.98L205.66 205.98C206.18 205.98 206.6 205.56 206.6 205.04L206.6 202.22C206.6 201.7 206.18 201.28 205.66 201.28L202.84 201.28C202.32 201.28 201.9 201.7 201.9 202.22L201.9 205.04C201.9 205.56 202.32 205.98 202.84 205.98ZM223.62 205.74L226.16 205.74C226.63 205.74 227.01 205.36 227.01 204.89L227.01 202.35C227.01 201.88 226.63 201.5 226.16 201.5L223.62 201.5C223.15 201.5 222.77 201.88 222.77 202.35L222.77 204.89C222.77 205.36 223.15 205.74 223.62 205.74ZM243.94 205.51L246.2 205.51C246.62 205.51 246.95 205.17 246.95 204.76L246.95 202.5C246.95 202.08 246.61 201.75 246.2 201.75L243.94 201.75C243.52 201.75 243.19 202.09 243.19 202.5L243.19 204.76C243.19 205.18 243.53 205.51 243.94 205.51ZM263.94 205.27L265.92 205.27C266.28 205.27 266.58 204.98 266.58 204.61L266.58 202.63C266.58 202.27 266.29 201.97 265.92 201.97L263.94 201.97C263.58 201.97 263.28 202.26 263.28 202.63L263.28 204.61C263.28 204.97 263.57 205.27 263.94 205.27ZM283.95 205.04L285.64 205.04C285.95 205.04 286.2 204.79 286.2 204.48L286.2 202.79C286.2 202.48 285.95 202.23 285.64 202.23L283.95 202.23C283.64 202.23 283.39 202.48 283.39 202.79L283.39 204.48C283.39 204.79 283.64 205.04 283.95 205.04ZM303.95 204.8L305.36 204.8C305.62 204.8 305.83 204.59 305.83 204.33L305.83 202.92C305.83 202.66 305.62 202.45 305.36 202.45L303.95 202.45C303.69 202.45 303.48 202.66 303.48 202.92L303.48 204.33C303.48 204.59 303.69 204.8 303.95 204.8ZM323.95 204.57L325.08 204.57C325.29 204.57 325.46 204.4 325.46 204.19L325.46 203.06C325.46 202.85 325.29 202.68 325.08 202.68L323.95 202.68C323.74 202.68 323.57 202.85 323.57 203.06L323.57 204.19C323.57 204.4 323.74 204.57 323.95 204.57ZM1.88999 228.22L7.53998 228.22C8.57998 228.22 9.41999 227.38 9.41999 226.34L9.41999 220.69C9.41999 219.65 8.57998 218.81 7.53998 218.81L1.88999 218.81C0.849988 218.81 0.0099831 219.65 0.00998306 220.69L0.00998281 226.34C0.00998276 227.38 0.849988 228.22 1.88999 228.22ZM22.06 227.99L27.43 227.99C28.42 227.99 29.22 227.19 29.22 226.2L29.22 220.83C29.22 219.84 28.42 219.04 27.43 219.04L22.06 219.04C21.07 219.04 20.27 219.84 20.27 220.83L20.27 226.2C20.27 227.19 21.07 227.99 22.06 227.99ZM42.27 227.75L47.35 227.75C48.29 227.75 49.04 226.99 49.04 226.06L49.04 220.98C49.04 220.04 48.28 219.29 47.35 219.29L42.27 219.29C41.33 219.29 40.58 220.05 40.58 220.98L40.58 226.06C40.58 227 41.34 227.75 42.27 227.75ZM62.34 227.52L67.14 227.52C68.02 227.52 68.74 226.8 68.74 225.92L68.74 221.12C68.74 220.24 68.02 219.52 67.14 219.52L62.34 219.52C61.46 219.52 60.74 220.24 60.74 221.12L60.74 225.92C60.74 226.8 61.46 227.52 62.34 227.52ZM82.48 227.28L87 227.28C87.83 227.28 88.51 226.61 88.51 225.77L88.51 221.25C88.51 220.42 87.84 219.74 87 219.74L82.48 219.74C81.65 219.74 80.97 220.41 80.97 221.25L80.97 225.77C80.97 226.6 81.64 227.28 82.48 227.28ZM102.72 227.05L106.96 227.05C107.74 227.05 108.37 226.42 108.37 225.64L108.37 221.4C108.37 220.62 107.74 219.99 106.96 219.99L102.72 219.99C101.94 219.99 101.31 220.62 101.31 221.4L101.31 225.64C101.31 226.42 101.94 227.05 102.72 227.05ZM122.84 226.81L126.79 226.81C127.52 226.81 128.11 226.22 128.11 225.49L128.11 221.54C128.11 220.81 127.52 220.22 126.79 220.22L122.84 220.22C122.11 220.22 121.52 220.81 121.52 221.54L121.52 225.49C121.52 226.22 122.11 226.81 122.84 226.81ZM143.21 226.58L146.88 226.58C147.56 226.58 148.1 226.03 148.1 225.36L148.1 221.69C148.1 221.01 147.55 220.47 146.88 220.47L143.21 220.47C142.53 220.47 141.99 221.02 141.99 221.69L141.99 225.36C141.99 226.04 142.54 226.58 143.21 226.58ZM162.7 226.34L166.09 226.34C166.71 226.34 167.22 225.83 167.22 225.21L167.22 221.82C167.22 221.2 166.71 220.69 166.09 220.69L162.7 220.69C162.08 220.69 161.57 221.2 161.57 221.82L161.57 225.21C161.57 225.83 162.08 226.34 162.7 226.34ZM183.22 226.11L186.33 226.11C186.9 226.11 187.36 225.65 187.36 225.08L187.36 221.97C187.36 221.4 186.9 220.94 186.33 220.94L183.22 220.94C182.65 220.94 182.19 221.4 182.19 221.97L182.19 225.08C182.19 225.65 182.65 226.11 183.22 226.11ZM202.84 225.87L205.66 225.87C206.18 225.87 206.6 225.45 206.6 224.93L206.6 222.11C206.6 221.59 206.18 221.17 205.66 221.17L202.84 221.17C202.32 221.17 201.9 221.59 201.9 222.11L201.9 224.93C201.9 225.45 202.32 225.87 202.84 225.87ZM223.62 225.64L226.16 225.64C226.63 225.64 227.01 225.26 227.01 224.79L227.01 222.25C227.01 221.78 226.63 221.4 226.16 221.4L223.62 221.4C223.15 221.4 222.77 221.78 222.77 222.25L222.77 224.79C222.77 225.26 223.15 225.64 223.62 225.64ZM243.94 225.4L246.2 225.4C246.62 225.4 246.95 225.06 246.95 224.65L246.95 222.39C246.95 221.97 246.61 221.64 246.2 221.64L243.94 221.64C243.52 221.64 243.19 221.98 243.19 222.39L243.19 224.65C243.19 225.07 243.53 225.4 243.94 225.4ZM263.94 225.16L265.92 225.16C266.28 225.16 266.58 224.87 266.58 224.5L266.58 222.52C266.58 222.16 266.29 221.86 265.92 221.86L263.94 221.86C263.58 221.86 263.28 222.15 263.28 222.52L263.28 224.5C263.28 224.86 263.57 225.16 263.94 225.16ZM283.95 224.93L285.64 224.93C285.95 224.93 286.2 224.68 286.2 224.37L286.2 222.68C286.2 222.37 285.95 222.12 285.64 222.12L283.95 222.12C283.64 222.12 283.39 222.37 283.39 222.68L283.39 224.37C283.39 224.68 283.64 224.93 283.95 224.93ZM303.95 224.69L305.36 224.69C305.62 224.69 305.83 224.48 305.83 224.22L305.83 222.81C305.83 222.55 305.62 222.34 305.36 222.34L303.95 222.34C303.69 222.34 303.48 222.55 303.48 222.81L303.48 224.22C303.48 224.48 303.69 224.69 303.95 224.69ZM323.95 224.46L325.08 224.46C325.29 224.46 325.46 224.29 325.46 224.08L325.46 222.95C325.46 222.74 325.29 222.57 325.08 222.57L323.95 222.57C323.74 222.57 323.57 222.74 323.57 222.95L323.57 224.08C323.57 224.29 323.74 224.46 323.95 224.46ZM1.88999 248.11L7.53998 248.11C8.57998 248.11 9.41999 247.27 9.41999 246.23L9.41999 240.58C9.41999 239.54 8.57998 238.7 7.53998 238.7L1.88999 238.7C0.849987 238.7 0.00998223 239.54 0.00998219 240.58L0.00998194 246.23C0.00998189 247.27 0.849987 248.11 1.88999 248.11ZM22.06 247.88L27.43 247.88C28.42 247.88 29.22 247.08 29.22 246.09L29.22 240.72C29.22 239.73 28.42 238.93 27.43 238.93L22.06 238.93C21.07 238.93 20.27 239.73 20.27 240.72L20.27 246.09C20.27 247.08 21.07 247.88 22.06 247.88ZM42.27 247.64L47.35 247.64C48.29 247.64 49.04 246.88 49.04 245.95L49.04 240.87C49.04 239.93 48.28 239.18 47.35 239.18L42.27 239.18C41.33 239.18 40.58 239.94 40.58 240.87L40.58 245.95C40.58 246.89 41.34 247.64 42.27 247.64ZM62.34 247.41L67.14 247.41C68.02 247.41 68.74 246.69 68.74 245.81L68.74 241.01C68.74 240.13 68.02 239.41 67.14 239.41L62.34 239.41C61.46 239.41 60.74 240.13 60.74 241.01L60.74 245.81C60.74 246.69 61.46 247.41 62.34 247.41ZM82.48 247.17L87 247.17C87.83 247.17 88.51 246.5 88.51 245.66L88.51 241.14C88.51 240.31 87.84 239.63 87 239.63L82.48 239.63C81.65 239.63 80.97 240.3 80.97 241.14L80.97 245.66C80.97 246.49 81.64 247.17 82.48 247.17ZM102.72 246.94L106.96 246.94C107.74 246.94 108.37 246.31 108.37 245.53L108.37 241.29C108.37 240.51 107.74 239.88 106.96 239.88L102.72 239.88C101.94 239.88 101.31 240.51 101.31 241.29L101.31 245.53C101.31 246.31 101.94 246.94 102.72 246.94ZM122.84 246.7L126.79 246.7C127.52 246.7 128.11 246.11 128.11 245.38L128.11 241.43C128.11 240.7 127.52 240.11 126.79 240.11L122.84 240.11C122.11 240.11 121.52 240.7 121.52 241.43L121.52 245.38C121.52 246.11 122.11 246.7 122.84 246.7ZM143.21 246.47L146.88 246.47C147.56 246.47 148.1 245.92 148.1 245.25L148.1 241.58C148.1 240.9 147.55 240.36 146.88 240.36L143.21 240.36C142.53 240.36 141.99 240.91 141.99 241.58L141.99 245.25C141.99 245.93 142.54 246.47 143.21 246.47ZM162.7 246.23L166.09 246.23C166.71 246.23 167.22 245.72 167.22 245.1L167.22 241.71C167.22 241.09 166.71 240.58 166.09 240.58L162.7 240.58C162.08 240.58 161.57 241.09 161.57 241.71L161.57 245.1C161.57 245.72 162.08 246.23 162.7 246.23ZM183.22 246L186.33 246C186.9 246 187.36 245.54 187.36 244.97L187.36 241.86C187.36 241.29 186.9 240.83 186.33 240.83L183.22 240.83C182.65 240.83 182.19 241.29 182.19 241.86L182.19 244.97C182.19 245.54 182.65 246 183.22 246ZM202.84 245.76L205.66 245.76C206.18 245.76 206.6 245.34 206.6 244.82L206.6 242C206.6 241.48 206.18 241.06 205.66 241.06L202.84 241.06C202.32 241.06 201.9 241.48 201.9 242L201.9 244.82C201.9 245.34 202.32 245.76 202.84 245.76ZM223.62 245.53L226.16 245.53C226.63 245.53 227.01 245.15 227.01 244.68L227.01 242.14C227.01 241.67 226.63 241.29 226.16 241.29L223.62 241.29C223.15 241.29 222.77 241.67 222.77 242.14L222.77 244.68C222.77 245.15 223.15 245.53 223.62 245.53ZM243.94 245.29L246.2 245.29C246.62 245.29 246.95 244.95 246.95 244.54L246.95 242.28C246.95 241.86 246.61 241.53 246.2 241.53L243.94 241.53C243.52 241.53 243.19 241.87 243.19 242.28L243.19 244.54C243.19 244.96 243.53 245.29 243.94 245.29ZM263.94 245.06L265.92 245.06C266.28 245.06 266.58 244.77 266.58 244.4L266.58 242.42C266.58 242.06 266.29 241.76 265.92 241.76L263.94 241.76C263.58 241.76 263.28 242.05 263.28 242.42L263.28 244.4C263.28 244.76 263.57 245.06 263.94 245.06ZM283.95 244.82L285.64 244.82C285.95 244.82 286.2 244.57 286.2 244.26L286.2 242.57C286.2 242.26 285.95 242.01 285.64 242.01L283.95 242.01C283.64 242.01 283.39 242.26 283.39 242.57L283.39 244.26C283.39 244.57 283.64 244.82 283.95 244.82ZM303.95 244.59L305.36 244.59C305.62 244.59 305.83 244.38 305.83 244.12L305.83 242.71C305.83 242.45 305.62 242.24 305.36 242.24L303.95 242.24C303.69 242.24 303.48 242.45 303.48 242.71L303.48 244.12C303.48 244.38 303.69 244.59 303.95 244.59ZM323.95 244.35L325.08 244.35C325.29 244.35 325.46 244.18 325.46 243.97L325.46 242.84C325.46 242.63 325.29 242.46 325.08 242.46L323.95 242.46C323.74 242.46 323.57 242.63 323.57 242.84L323.57 243.97C323.57 244.18 323.74 244.35 323.95 244.35ZM1.88999 268.01L7.53998 268.01C8.57998 268.01 9.41998 267.17 9.41998 266.13L9.41998 260.48C9.41999 259.44 8.57998 258.6 7.53998 258.6L1.88999 258.6C0.849986 258.6 0.00998136 259.44 0.00998132 260.48L0.00998107 266.13C0.00998102 267.17 0.849986 268.01 1.88999 268.01ZM22.06 267.77L27.43 267.77C28.42 267.77 29.22 266.97 29.22 265.98L29.22 260.61C29.22 259.62 28.42 258.82 27.43 258.82L22.06 258.82C21.07 258.82 20.27 259.62 20.27 260.61L20.27 265.98C20.27 266.97 21.07 267.77 22.06 267.77ZM42.27 267.54L47.35 267.54C48.29 267.54 49.04 266.78 49.04 265.85L49.04 260.77C49.04 259.83 48.28 259.08 47.35 259.08L42.27 259.08C41.33 259.08 40.58 259.84 40.58 260.77L40.58 265.85C40.58 266.79 41.34 267.54 42.27 267.54ZM62.34 267.3L67.14 267.3C68.02 267.3 68.74 266.58 68.74 265.7L68.74 260.9C68.74 260.02 68.02 259.3 67.14 259.3L62.34 259.3C61.46 259.3 60.74 260.02 60.74 260.9L60.74 265.7C60.74 266.58 61.46 267.3 62.34 267.3ZM82.48 267.07L87 267.07C87.83 267.07 88.51 266.4 88.51 265.56L88.51 261.04C88.51 260.21 87.84 259.53 87 259.53L82.48 259.53C81.65 259.53 80.97 260.2 80.97 261.04L80.97 265.56C80.97 266.39 81.64 267.07 82.48 267.07ZM102.72 266.83L106.96 266.83C107.74 266.83 108.37 266.2 108.37 265.42L108.37 261.18C108.37 260.4 107.74 259.77 106.96 259.77L102.72 259.77C101.94 259.77 101.31 260.4 101.31 261.18L101.31 265.42C101.31 266.2 101.94 266.83 102.72 266.83ZM122.84 266.6L126.79 266.6C127.52 266.6 128.11 266.01 128.11 265.28L128.11 261.33C128.11 260.6 127.52 260.01 126.79 260.01L122.84 260.01C122.11 260.01 121.52 260.6 121.52 261.33L121.52 265.28C121.52 266.01 122.11 266.6 122.84 266.6ZM143.21 266.36L146.88 266.36C147.56 266.36 148.1 265.81 148.1 265.14L148.1 261.47C148.1 260.79 147.55 260.25 146.88 260.25L143.21 260.25C142.53 260.25 141.99 260.8 141.99 261.47L141.99 265.14C141.99 265.82 142.54 266.36 143.21 266.36ZM162.7 266.12L166.09 266.12C166.71 266.12 167.22 265.61 167.22 264.99L167.22 261.6C167.22 260.98 166.71 260.47 166.09 260.47L162.7 260.47C162.08 260.47 161.57 260.98 161.57 261.6L161.57 264.99C161.57 265.61 162.08 266.12 162.7 266.12ZM183.22 265.89L186.33 265.89C186.9 265.89 187.36 265.43 187.36 264.86L187.36 261.75C187.36 261.18 186.9 260.72 186.33 260.72L183.22 260.72C182.65 260.72 182.19 261.18 182.19 261.75L182.19 264.86C182.19 265.43 182.65 265.89 183.22 265.89ZM202.84 265.65L205.66 265.65C206.18 265.65 206.6 265.23 206.6 264.71L206.6 261.89C206.6 261.37 206.18 260.95 205.66 260.95L202.84 260.95C202.32 260.95 201.9 261.37 201.9 261.89L201.9 264.71C201.9 265.23 202.32 265.65 202.84 265.65ZM223.62 265.42L226.16 265.42C226.63 265.42 227.01 265.04 227.01 264.57L227.01 262.03C227.01 261.56 226.63 261.18 226.16 261.18L223.62 261.18C223.15 261.18 222.77 261.56 222.77 262.03L222.77 264.57C222.77 265.04 223.15 265.42 223.62 265.42ZM243.94 265.18L246.2 265.18C246.62 265.18 246.95 264.84 246.95 264.43L246.95 262.17C246.95 261.75 246.61 261.42 246.2 261.42L243.94 261.42C243.52 261.42 243.19 261.76 243.19 262.17L243.19 264.43C243.19 264.85 243.53 265.18 243.94 265.18ZM263.94 264.95L265.92 264.95C266.28 264.95 266.58 264.66 266.58 264.29L266.58 262.31C266.58 261.95 266.29 261.65 265.92 261.65L263.94 261.65C263.58 261.65 263.28 261.94 263.28 262.31L263.28 264.29C263.28 264.65 263.57 264.95 263.94 264.95ZM283.95 264.71L285.64 264.71C285.95 264.71 286.2 264.46 286.2 264.15L286.2 262.46C286.2 262.15 285.95 261.9 285.64 261.9L283.95 261.9C283.64 261.9 283.39 262.15 283.39 262.46L283.39 264.15C283.39 264.46 283.64 264.71 283.95 264.71ZM303.95 264.48L305.36 264.48C305.62 264.48 305.83 264.27 305.83 264.01L305.83 262.6C305.83 262.34 305.62 262.13 305.36 262.13L303.95 262.13C303.69 262.13 303.48 262.34 303.48 262.6L303.48 264.01C303.48 264.27 303.69 264.48 303.95 264.48ZM323.95 264.24L325.08 264.24C325.29 264.24 325.46 264.07 325.46 263.86L325.46 262.73C325.46 262.52 325.29 262.35 325.08 262.35L323.95 262.35C323.74 262.35 323.57 262.52 323.57 262.73L323.57 263.86C323.57 264.07 323.74 264.24 323.95 264.24ZM1.88999 287.9L7.53998 287.9C8.57998 287.9 9.41998 287.06 9.41998 286.02L9.41998 280.37C9.41998 279.33 8.57998 278.49 7.53998 278.49L1.88999 278.49C0.849985 278.49 0.00998049 279.33 0.00998045 280.37L0.0099802 286.02C0.00998015 287.06 0.849985 287.9 1.88999 287.9ZM22.06 287.66L27.43 287.66C28.42 287.66 29.22 286.86 29.22 285.87L29.22 280.5C29.22 279.51 28.42 278.71 27.43 278.71L22.06 278.71C21.07 278.71 20.27 279.51 20.27 280.5L20.27 285.87C20.27 286.86 21.07 287.66 22.06 287.66ZM42.27 287.43L47.35 287.43C48.29 287.43 49.04 286.67 49.04 285.74L49.04 280.66C49.04 279.72 48.28 278.97 47.35 278.97L42.27 278.97C41.33 278.97 40.58 279.73 40.58 280.66L40.58 285.74C40.58 286.68 41.34 287.43 42.27 287.43ZM62.34 287.19L67.14 287.19C68.02 287.19 68.74 286.47 68.74 285.59L68.74 280.79C68.74 279.91 68.02 279.19 67.14 279.19L62.34 279.19C61.46 279.19 60.74 279.91 60.74 280.79L60.74 285.59C60.74 286.47 61.46 287.19 62.34 287.19ZM82.48 286.96L87 286.96C87.83 286.96 88.51 286.29 88.51 285.45L88.51 280.93C88.51 280.1 87.84 279.42 87 279.42L82.48 279.42C81.65 279.42 80.97 280.09 80.97 280.93L80.97 285.45C80.97 286.28 81.64 286.96 82.48 286.96ZM102.72 286.72L106.96 286.72C107.74 286.72 108.37 286.09 108.37 285.31L108.37 281.07C108.37 280.29 107.74 279.66 106.96 279.66L102.72 279.66C101.94 279.66 101.31 280.29 101.31 281.07L101.31 285.31C101.31 286.09 101.94 286.72 102.72 286.72ZM122.84 286.49L126.79 286.49C127.52 286.49 128.11 285.9 128.11 285.17L128.11 281.22C128.11 280.49 127.52 279.9 126.79 279.9L122.84 279.9C122.11 279.9 121.52 280.49 121.52 281.22L121.52 285.17C121.52 285.9 122.11 286.49 122.84 286.49ZM143.21 286.25L146.88 286.25C147.56 286.25 148.1 285.7 148.1 285.03L148.1 281.36C148.1 280.68 147.55 280.14 146.88 280.14L143.21 280.14C142.53 280.14 141.99 280.69 141.99 281.36L141.99 285.03C141.99 285.71 142.54 286.25 143.21 286.25ZM162.7 286.02L166.09 286.02C166.71 286.02 167.22 285.51 167.22 284.89L167.22 281.5C167.22 280.88 166.71 280.37 166.09 280.37L162.7 280.37C162.08 280.37 161.57 280.88 161.57 281.5L161.57 284.89C161.57 285.51 162.08 286.02 162.7 286.02ZM183.22 285.78L186.33 285.78C186.9 285.78 187.36 285.32 187.36 284.75L187.36 281.64C187.36 281.07 186.9 280.61 186.33 280.61L183.22 280.61C182.65 280.61 182.19 281.07 182.19 281.64L182.19 284.75C182.19 285.32 182.65 285.78 183.22 285.78ZM202.84 285.55L205.66 285.55C206.18 285.55 206.6 285.13 206.6 284.61L206.6 281.79C206.6 281.27 206.18 280.85 205.66 280.85L202.84 280.85C202.32 280.85 201.9 281.27 201.9 281.79L201.9 284.61C201.9 285.13 202.32 285.55 202.84 285.55ZM223.62 285.31L226.16 285.31C226.63 285.31 227.01 284.93 227.01 284.46L227.01 281.92C227.01 281.45 226.63 281.07 226.16 281.07L223.62 281.07C223.15 281.07 222.77 281.45 222.77 281.92L222.77 284.46C222.77 284.93 223.15 285.31 223.62 285.31ZM243.94 285.08L246.2 285.08C246.62 285.08 246.95 284.74 246.95 284.33L246.95 282.07C246.95 281.65 246.61 281.32 246.2 281.32L243.94 281.32C243.52 281.32 243.19 281.66 243.19 282.07L243.19 284.33C243.19 284.75 243.53 285.08 243.94 285.08ZM263.94 284.84L265.92 284.84C266.28 284.84 266.58 284.55 266.58 284.18L266.58 282.2C266.58 281.84 266.29 281.54 265.92 281.54L263.94 281.54C263.58 281.54 263.28 281.83 263.28 282.2L263.28 284.18C263.28 284.54 263.57 284.84 263.94 284.84ZM283.95 284.61L285.64 284.61C285.95 284.61 286.2 284.36 286.2 284.05L286.2 282.36C286.2 282.05 285.95 281.8 285.64 281.8L283.95 281.8C283.64 281.8 283.39 282.05 283.39 282.36L283.39 284.05C283.39 284.36 283.64 284.61 283.95 284.61ZM303.95 284.37L305.36 284.37C305.62 284.37 305.83 284.16 305.83 283.9L305.83 282.49C305.83 282.23 305.62 282.02 305.36 282.02L303.95 282.02C303.69 282.02 303.48 282.23 303.48 282.49L303.48 283.9C303.48 284.16 303.69 284.37 303.95 284.37ZM323.95 284.13L325.08 284.13C325.29 284.13 325.46 283.96 325.46 283.75L325.46 282.62C325.46 282.41 325.29 282.24 325.08 282.24L323.95 282.24C323.74 282.24 323.57 282.41 323.57 282.62L323.57 283.75C323.57 283.96 323.74 284.13 323.95 284.13ZM1.88998 307.79L7.53998 307.79C8.57998 307.79 9.41998 306.95 9.41998 305.91L9.41998 300.26C9.41998 299.22 8.57998 298.38 7.53998 298.38L1.88998 298.38C0.849985 298.38 0.00997962 299.22 0.00997958 300.26L0.00997933 305.91C0.00997928 306.95 0.849984 307.79 1.88998 307.79ZM22.06 307.56L27.43 307.56C28.42 307.56 29.22 306.76 29.22 305.77L29.22 300.4C29.22 299.41 28.42 298.61 27.43 298.61L22.06 298.61C21.07 298.61 20.27 299.41 20.27 300.4L20.27 305.77C20.27 306.76 21.07 307.56 22.06 307.56ZM42.27 307.32L47.35 307.32C48.29 307.32 49.04 306.56 49.04 305.63L49.04 300.55C49.04 299.61 48.28 298.86 47.35 298.86L42.27 298.86C41.33 298.86 40.58 299.62 40.58 300.55L40.58 305.63C40.58 306.57 41.34 307.32 42.27 307.32ZM62.34 307.09L67.14 307.09C68.02 307.09 68.74 306.37 68.74 305.49L68.74 300.69C68.74 299.81 68.02 299.09 67.14 299.09L62.34 299.09C61.46 299.09 60.74 299.81 60.74 300.69L60.74 305.49C60.74 306.37 61.46 307.09 62.34 307.09ZM82.48 306.85L87 306.85C87.83 306.85 88.51 306.18 88.51 305.34L88.51 300.82C88.51 299.99 87.84 299.31 87 299.31L82.48 299.31C81.65 299.31 80.97 299.98 80.97 300.82L80.97 305.34C80.97 306.17 81.64 306.85 82.48 306.85ZM102.72 306.61L106.96 306.61C107.74 306.61 108.37 305.98 108.37 305.2L108.37 300.96C108.37 300.18 107.74 299.55 106.96 299.55L102.72 299.55C101.94 299.55 101.31 300.18 101.31 300.96L101.31 305.2C101.31 305.98 101.94 306.61 102.72 306.61ZM122.84 306.38L126.79 306.38C127.52 306.38 128.11 305.79 128.11 305.06L128.11 301.11C128.11 300.38 127.52 299.79 126.79 299.79L122.84 299.79C122.11 299.79 121.52 300.38 121.52 301.11L121.52 305.06C121.52 305.79 122.11 306.38 122.84 306.38ZM143.21 306.14L146.88 306.14C147.56 306.14 148.1 305.59 148.1 304.92L148.1 301.25C148.1 300.57 147.55 300.03 146.88 300.03L143.21 300.03C142.53 300.03 141.99 300.58 141.99 301.25L141.99 304.92C141.99 305.6 142.54 306.14 143.21 306.14ZM162.7 305.91L166.09 305.91C166.71 305.91 167.22 305.4 167.22 304.78L167.22 301.39C167.22 300.77 166.71 300.26 166.09 300.26L162.7 300.26C162.08 300.26 161.57 300.77 161.57 301.39L161.57 304.78C161.57 305.4 162.08 305.91 162.7 305.91ZM183.22 305.67L186.33 305.67C186.9 305.67 187.36 305.21 187.36 304.64L187.36 301.53C187.36 300.96 186.9 300.5 186.33 300.5L183.22 300.5C182.65 300.5 182.19 300.96 182.19 301.53L182.19 304.64C182.19 305.21 182.65 305.67 183.22 305.67ZM202.84 305.44L205.66 305.44C206.18 305.44 206.6 305.02 206.6 304.5L206.6 301.68C206.6 301.16 206.18 300.74 205.66 300.74L202.84 300.74C202.32 300.74 201.9 301.16 201.9 301.68L201.9 304.5C201.9 305.02 202.32 305.44 202.84 305.44ZM223.62 305.2L226.16 305.2C226.63 305.2 227.01 304.82 227.01 304.35L227.01 301.81C227.01 301.34 226.63 300.96 226.16 300.96L223.62 300.96C223.15 300.96 222.77 301.34 222.77 301.81L222.77 304.35C222.77 304.82 223.15 305.2 223.62 305.2ZM243.94 304.97L246.2 304.97C246.62 304.97 246.95 304.63 246.95 304.22L246.95 301.96C246.95 301.54 246.61 301.21 246.2 301.21L243.94 301.21C243.52 301.21 243.19 301.55 243.19 301.96L243.19 304.22C243.19 304.64 243.53 304.97 243.94 304.97ZM263.94 304.73L265.92 304.73C266.28 304.73 266.58 304.44 266.58 304.07L266.58 302.09C266.58 301.73 266.29 301.43 265.92 301.43L263.94 301.43C263.58 301.43 263.28 301.72 263.28 302.09L263.28 304.07C263.28 304.43 263.57 304.73 263.94 304.73ZM283.95 304.5L285.64 304.5C285.95 304.5 286.2 304.25 286.2 303.94L286.2 302.25C286.2 301.94 285.95 301.69 285.64 301.69L283.95 301.69C283.64 301.69 283.39 301.94 283.39 302.25L283.39 303.94C283.39 304.25 283.64 304.5 283.95 304.5ZM303.95 304.26L305.36 304.26C305.62 304.26 305.83 304.05 305.83 303.79L305.83 302.38C305.83 302.12 305.62 301.91 305.36 301.91L303.95 301.91C303.69 301.91 303.48 302.12 303.48 302.38L303.48 303.79C303.48 304.05 303.69 304.26 303.95 304.26ZM323.95 304.03L325.08 304.03C325.29 304.03 325.46 303.86 325.46 303.65L325.46 302.52C325.46 302.31 325.29 302.14 325.08 302.14L323.95 302.14C323.74 302.14 323.57 302.31 323.57 302.52L323.57 303.65C323.57 303.86 323.74 304.03 323.95 304.03Z" fill="#DEDEDE"/>
</g>
<defs>
<clipPath id="clip0_255_30748">
<rect width="307.79" height="325.46" fill="white" transform="translate(325.46 1.42263e-05) rotate(90)"/>
</clipPath>
</defs>
</svg>
