<?xml version="1.0" encoding="UTF-8"?>
<svg id="Layer_2" data-name="Layer 2" xmlns="http://www.w3.org/2000/svg" xmlns:xlink="http://www.w3.org/1999/xlink" viewBox="0 0 344.82 850.66">
  <defs>
    <style>
      .cls-1 {
        fill: url(#linear-gradient);
      }

      .cls-1, .cls-2, .cls-3, .cls-4 {
        stroke-width: 0px;
      }

      .cls-2 {
        fill: url(#linear-gradient-4);
      }

      .cls-3 {
        fill: url(#linear-gradient-2);
      }

      .cls-4 {
        fill: url(#linear-gradient-3);
      }
    </style>
    <linearGradient id="linear-gradient" x1="41.38" y1="116.38" x2="82.61" y2="116.38" gradientUnits="userSpaceOnUse">
      <stop offset=".2" stop-color="#b31b1b"/>
      <stop offset="1" stop-color="#e00"/>
    </linearGradient>
    <linearGradient id="linear-gradient-2" x1="303.59" y1="348.07" x2="344.82" y2="348.07" xlink:href="#linear-gradient"/>
    <linearGradient id="linear-gradient-3" x1="146.66" y1="502.5" x2="187.9" y2="502.5" xlink:href="#linear-gradient"/>
    <linearGradient id="linear-gradient-4" x1="-102.21" y1="712.03" x2="476.51" y2="133.31" gradientUnits="userSpaceOnUse">
      <stop offset=".2" stop-color="#b6b6b6"/>
      <stop offset="1" stop-color="#f7f7f7"/>
    </linearGradient>
  </defs>
  <g id="Layer_1-2" data-name="Layer 1">
    <g>
      <path class="cls-1" d="M42.89,155.01h14.41c.65,0,1.23-.42,1.43-1.04l23.8-74.26c.31-.97-.41-1.96-1.43-1.96h-14.41c-.65,0-1.23.42-1.43,1.04l-23.8,74.26c-.31.97.41,1.96,1.43,1.96Z"/>
      <path class="cls-3" d="M305.1,386.7h14.41c.65,0,1.23-.42,1.43-1.04l23.8-74.26c.31-.97-.41-1.96-1.43-1.96h-14.41c-.65,0-1.23.42-1.43,1.04l-23.8,74.26c-.31.97.41,1.96,1.43,1.96Z"/>
      <path class="cls-4" d="M148.17,541.13h14.41c.65,0,1.23-.42,1.43-1.04l23.8-74.26c.31-.97-.41-1.96-1.43-1.96h-14.41c-.65,0-1.23.42-1.43,1.04l-23.8,74.26c-.31.97.41,1.96,1.43,1.96Z"/>
      <path class="cls-2" d="M303.41,75.79L327.21,1.53c.2-.62.78-1.04,1.43-1.04h14.41c1.02,0,1.74.99,1.43,1.96l-23.8,74.26c-.2.62-.78,1.04-1.43,1.04h-14.41c-1.02,0-1.74-.99-1.43-1.96ZM231.51,77.75h14.41c.65,0,1.23-.42,1.43-1.04L271.16,2.44c.31-.97-.41-1.96-1.43-1.96h-14.41c-.65,0-1.23.42-1.43,1.04l-23.8,74.26c-.31.97.41,1.96,1.43,1.96ZM280.61,39.78h14.41c.91,0,1.71-.58,1.98-1.45l11.42-35.63c.2-.64.1-1.31-.3-1.86S307.11,0,306.44,0h-14.42c-.91,0-1.7.58-1.98,1.44l-11.42,35.62c-.21.64-.1,1.32.3,1.86.4.54,1.01.86,1.68.86ZM306.44,1.15c.3,0,.57.14.75.38.18.24.22.54.13.83l-11.42,35.63c-.12.39-.48.65-.89.65h-14.41c-.3,0-.58-.14-.75-.38-.18-.24-.23-.55-.13-.83l11.42-35.62c.12-.39.48-.64.88-.64h14.42ZM194.8,78.32h14.41c.91,0,1.71-.58,1.98-1.45l11.42-35.63c.2-.64.1-1.31-.3-1.86-.4-.54-1.01-.85-1.68-.85h-14.42c-.91,0-1.7.58-1.98,1.44l-11.42,35.62c-.21.64-.1,1.32.3,1.86.4.54,1.01.86,1.68.86ZM220.64,39.69c.3,0,.57.14.75.38.18.24.22.54.13.83l-11.42,35.63c-.12.39-.48.65-.89.65h-14.41c-.3,0-.58-.14-.75-.38-.18-.24-.23-.55-.13-.83l11.42-35.62c.12-.39.48-.64.88-.64h14.42ZM158.18,77.75h14.41c.65,0,1.23-.42,1.43-1.04L197.83,2.44c.31-.97-.41-1.96-1.43-1.96h-14.41c-.65,0-1.23.42-1.43,1.04l-23.8,74.26c-.31.97.41,1.96,1.43,1.96ZM84.84,77.75h14.41c.65,0,1.23-.42,1.43-1.04L124.5,2.44c.31-.97-.41-1.96-1.43-1.96h-14.41c-.65,0-1.23.42-1.43,1.04l-23.8,74.26c-.31.97.41,1.96,1.43,1.96ZM133.94,39.78h14.41c.91,0,1.71-.58,1.98-1.45l11.42-35.63c.2-.64.1-1.31-.3-1.86S160.45,0,159.78,0h-14.42c-.91,0-1.7.58-1.98,1.44l-11.42,35.62c-.21.64-.1,1.32.3,1.86.4.54,1.01.86,1.68.86ZM159.78,1.15c.3,0,.57.14.75.38.18.24.22.54.13.83l-11.42,35.63c-.12.39-.48.65-.89.65h-14.41c-.3,0-.58-.14-.75-.38-.18-.24-.23-.55-.13-.83L144.47,1.8c.12-.39.48-.64.88-.64h14.42ZM48.14,78.32h14.41c.91,0,1.71-.58,1.98-1.45l11.42-35.63c.2-.64.1-1.31-.3-1.86-.4-.54-1.01-.85-1.68-.85h-14.42c-.91,0-1.7.58-1.98,1.44l-11.42,35.62c-.21.64-.1,1.32.3,1.86.4.54,1.01.86,1.68.86ZM73.98,39.69c.3,0,.57.14.75.38.18.24.22.54.13.83l-11.42,35.63c-.12.39-.48.65-.89.65h-14.41c-.3,0-.58-.14-.75-.38-.18-.24-.23-.55-.13-.83l11.42-35.62c.12-.39.48-.64.88-.64h14.42ZM262.88,155.58h14.41c.91,0,1.7-.58,1.98-1.44l23.8-74.26c.2-.64.1-1.31-.3-1.85-.4-.54-1.01-.85-1.68-.85h-14.41c-.91,0-1.71.58-1.98,1.44l-23.8,74.26c-.2.64-.1,1.31.3,1.85.4.54,1.01.85,1.68.85ZM301.1,78.32c.3,0,.58.14.75.38.18.24.22.54.13.82l-23.8,74.26c-.12.39-.48.64-.89.64h-14.41c-.3,0-.58-.14-.75-.38-.18-.24-.22-.54-.13-.82l23.8-74.26c.12-.39.48-.64.89-.64h14.41ZM189.55,155.01h14.41c.65,0,1.23-.42,1.43-1.04l23.8-74.26c.31-.97-.41-1.96-1.43-1.96h-14.41c-.65,0-1.23.42-1.43,1.04l-23.8,74.26c-.31.97.41,1.96,1.43,1.96ZM238.65,117.04h14.41c.91,0,1.71-.58,1.98-1.45l11.42-35.63c.2-.64.1-1.32-.3-1.86-.39-.54-1.01-.85-1.68-.85h-14.42c-.91,0-1.7.58-1.98,1.44l-11.42,35.62c-.21.64-.1,1.32.3,1.86.4.54,1.01.86,1.68.86ZM264.48,78.41c.3,0,.57.14.75.38.18.24.22.54.13.83l-11.42,35.63c-.12.39-.48.65-.89.65h-14.41c-.3,0-.58-.14-.75-.38-.18-.24-.23-.55-.13-.83l11.42-35.62c.12-.39.48-.64.88-.64h14.42ZM152.85,155.58h14.41c.91,0,1.71-.58,1.98-1.45l11.42-35.63c.2-.64.1-1.32-.3-1.86-.39-.54-1.01-.85-1.68-.85h-14.42c-.91,0-1.7.58-1.98,1.44l-11.42,35.62c-.21.64-.1,1.32.3,1.86.4.54,1.01.86,1.68.86ZM178.68,116.95c.3,0,.57.14.75.38.18.24.22.54.13.83l-11.42,35.63c-.12.39-.48.65-.89.65h-14.41c-.3,0-.58-.14-.75-.38-.18-.24-.23-.55-.13-.83l11.42-35.62c.12-.39.48-.64.88-.64h14.42ZM116.22,155.58h14.41c.91,0,1.71-.58,1.98-1.44l23.8-74.26c.2-.64.1-1.31-.3-1.85-.4-.54-1.01-.85-1.68-.85h-14.41c-.91,0-1.7.58-1.98,1.44l-23.8,74.26c-.2.64-.1,1.31.3,1.85.4.54,1.01.85,1.68.85ZM154.44,78.32c.3,0,.58.14.75.38.18.24.22.54.13.82l-23.8,74.26c-.12.39-.48.64-.89.64h-14.41c-.3,0-.58-.14-.75-.38-.18-.24-.22-.54-.13-.82l23.8-74.26c.12-.39.48-.64.89-.64h14.41ZM91.98,117.04h14.41c.91,0,1.71-.58,1.98-1.45l11.42-35.63c.2-.64.1-1.32-.3-1.86-.39-.54-1.01-.85-1.68-.85h-14.42c-.91,0-1.7.58-1.98,1.44l-11.42,35.62c-.21.64-.1,1.32.3,1.86.4.54,1.01.86,1.68.86ZM117.82,78.41c.3,0,.57.14.75.38.18.24.22.54.13.83l-11.42,35.63c-.12.39-.48.65-.89.65h-14.41c-.3,0-.58-.14-.75-.38-.18-.24-.23-.55-.13-.83l11.42-35.62c.12-.39.48-.64.88-.64h14.42ZM64.76,230.31l-23.8-74.26c-.2-.62-.78-1.04-1.43-1.04h-14.41c-1.02,0-1.74.99-1.43,1.96l23.8,74.26c.2.62.78,1.04,1.43,1.04h14.41c1.02,0,1.74-.99,1.43-1.96ZM138.09,230.31l-23.8-74.26c-.2-.62-.78-1.04-1.43-1.04h-14.41c-1.02,0-1.74.99-1.43,1.96l23.8,74.26c.2.62.78,1.04,1.43,1.04h14.41c1.02,0,1.74-.99,1.43-1.96ZM89.24,193.45c.4-.54.51-1.22.3-1.86l-11.42-35.62c-.28-.86-1.07-1.44-1.98-1.44h-14.42c-.67,0-1.28.31-1.68.85-.39.54-.5,1.22-.3,1.86l11.42,35.63c.28.87,1.07,1.45,1.98,1.45h14.41c.67,0,1.29-.31,1.68-.86ZM76.15,155.67c.4,0,.76.26.88.64l11.42,35.62c.09.29.04.59-.13.83-.18.24-.45.38-.75.38h-14.41c-.41,0-.76-.26-.89-.65l-11.42-35.63c-.09-.28-.04-.59.13-.83.18-.24.45-.38.75-.38h14.42ZM175.04,231.99c.4-.54.51-1.22.3-1.86l-11.42-35.62c-.28-.86-1.07-1.44-1.98-1.44h-14.42c-.67,0-1.28.31-1.68.85-.4.54-.5,1.22-.3,1.86l11.42,35.63c.28.87,1.07,1.45,1.98,1.45h14.41c.67,0,1.29-.31,1.68-.86ZM161.95,194.21c.4,0,.76.26.88.64l11.42,35.62c.09.29.04.59-.13.83-.18.24-.45.38-.75.38h-14.41c-.41,0-.76-.26-.89-.65l-11.42-35.63c-.09-.28-.04-.59.13-.83.18-.24.45-.38.75-.38h14.42ZM211.42,230.31l-23.8-74.26c-.2-.62-.78-1.04-1.43-1.04h-14.41c-1.02,0-1.74.99-1.43,1.96l23.8,74.26c.2.62.78,1.04,1.43,1.04h14.41c1.02,0,1.74-.99,1.43-1.96ZM284.75,230.31l-23.8-74.26c-.2-.62-.78-1.04-1.43-1.04h-14.41c-1.02,0-1.74.99-1.43,1.96l23.8,74.26c.2.62.78,1.04,1.43,1.04h14.41c1.02,0,1.74-.99,1.43-1.96ZM235.9,193.45c.4-.54.51-1.22.3-1.86l-11.42-35.62c-.28-.86-1.07-1.44-1.98-1.44h-14.42c-.67,0-1.28.31-1.68.85-.39.54-.5,1.22-.3,1.86l11.42,35.63c.28.87,1.07,1.45,1.98,1.45h14.41c.67,0,1.29-.31,1.68-.86ZM222.81,155.67c.4,0,.76.26.88.64l11.42,35.62c.09.29.04.59-.13.83-.18.24-.45.38-.75.38h-14.41c-.41,0-.76-.26-.89-.65l-11.42-35.63c-.09-.28-.04-.59.13-.83.18-.24.45-.38.75-.38h14.42ZM321.71,231.99c.4-.54.51-1.22.3-1.86l-11.42-35.62c-.28-.86-1.07-1.44-1.98-1.44h-14.42c-.67,0-1.28.31-1.68.85-.4.54-.5,1.22-.3,1.86l11.42,35.63c.28.87,1.07,1.45,1.98,1.45h14.41c.67,0,1.29-.31,1.68-.86ZM308.61,194.21c.4,0,.76.26.88.64l11.42,35.62c.09.29.04.59-.13.83s-.45.38-.75.38h-14.41c-.41,0-.76-.26-.89-.65l-11.42-35.63c-.09-.28-.04-.59.13-.83.18-.24.45-.38.75-.38h14.42ZM106.96,309.25c.39-.54.5-1.22.3-1.85l-23.8-74.26c-.28-.86-1.07-1.44-1.98-1.44h-14.41c-.67,0-1.29.31-1.68.85-.39.54-.5,1.22-.3,1.85l23.8,74.26c.28.86,1.07,1.44,1.98,1.44h14.41c.67,0,1.29-.31,1.68-.85ZM81.48,232.84c.41,0,.76.26.89.64l23.8,74.26c.09.28.04.58-.13.82-.18.24-.45.38-.75.38h-14.41c-.41,0-.76-.26-.89-.64l-23.8-74.26c-.09-.28-.04-.58.13-.83.18-.24.45-.38.75-.38h14.41ZM180.05,307.57l-23.8-74.26c-.2-.62-.78-1.04-1.43-1.04h-14.41c-1.02,0-1.74.99-1.43,1.96l23.8,74.26c.2.62.78,1.04,1.43,1.04h14.41c1.02,0,1.74-.99,1.43-1.96ZM131.2,270.71c.4-.54.51-1.22.3-1.86l-11.42-35.62c-.28-.86-1.07-1.44-1.98-1.44h-14.42c-.67,0-1.28.31-1.68.85-.39.54-.5,1.22-.3,1.86l11.42,35.63c.28.87,1.07,1.45,1.98,1.45h14.41c.67,0,1.29-.31,1.68-.86ZM118.1,232.93c.4,0,.76.26.88.64l11.42,35.62c.09.29.04.59-.13.83-.18.24-.45.38-.75.38h-14.41c-.41,0-.76-.26-.89-.65l-11.42-35.63c-.09-.28-.04-.58.13-.83.18-.24.45-.38.75-.38h14.42ZM217,309.25c.4-.54.51-1.22.3-1.86l-11.42-35.62c-.28-.86-1.07-1.44-1.98-1.44h-14.42c-.67,0-1.28.31-1.68.85-.39.54-.5,1.22-.3,1.86l11.42,35.63c.28.87,1.07,1.45,1.98,1.45h14.41c.67,0,1.29-.31,1.68-.86ZM203.91,271.47c.4,0,.76.26.88.64l11.42,35.62c.09.29.04.59-.13.83-.18.24-.45.38-.75.38h-14.41c-.41,0-.76-.26-.89-.65l-11.42-35.63c-.09-.28-.04-.58.13-.83.18-.24.45-.38.75-.38h14.42ZM253.63,309.25c.39-.54.5-1.22.3-1.85l-23.8-74.26c-.28-.86-1.07-1.44-1.98-1.44h-14.41c-.67,0-1.29.31-1.68.85-.39.54-.5,1.22-.3,1.85l23.8,74.26c.28.86,1.07,1.44,1.98,1.44h14.41c.67,0,1.29-.31,1.68-.85ZM228.14,232.84c.41,0,.76.26.89.64l23.8,74.26c.09.28.04.58-.13.82-.18.24-.45.38-.75.38h-14.41c-.41,0-.76-.26-.89-.64l-23.8-74.26c-.09-.28-.04-.58.13-.83.18-.24.45-.38.75-.38h14.41ZM326.71,307.57l-23.8-74.26c-.2-.62-.78-1.04-1.43-1.04h-14.41c-1.02,0-1.74.99-1.43,1.96l23.8,74.26c.2.62.78,1.04,1.43,1.04h14.41c1.02,0,1.74-.99,1.43-1.96ZM277.86,270.71c.4-.54.51-1.22.3-1.86l-11.42-35.62c-.28-.86-1.07-1.44-1.98-1.44h-14.42c-.67,0-1.28.31-1.68.85-.39.54-.5,1.22-.3,1.86l11.42,35.63c.28.87,1.07,1.45,1.98,1.45h14.41c.67,0,1.29-.31,1.68-.86ZM264.77,232.93c.4,0,.76.26.88.64l11.42,35.62c.09.29.04.59-.13.83-.18.24-.45.38-.75.38h-14.41c-.41,0-.76-.26-.89-.65l-11.42-35.63c-.09-.28-.04-.58.13-.83.18-.24.45-.38.75-.38h14.42ZM231.76,386.7h14.41c.65,0,1.23-.42,1.43-1.04l23.8-74.26c.31-.97-.41-1.96-1.43-1.96h-14.41c-.65,0-1.23.42-1.43,1.04l-23.8,74.26c-.31.97.41,1.96,1.43,1.96ZM280.86,348.74h14.41c.91,0,1.71-.58,1.98-1.45l11.42-35.63c.2-.64.1-1.31-.3-1.86s-1.01-.85-1.68-.85h-14.42c-.91,0-1.7.58-1.98,1.44l-11.42,35.62c-.21.64-.1,1.32.3,1.86.4.54,1.01.86,1.68.86ZM306.7,310.1c.3,0,.57.14.75.38.18.24.22.54.13.83l-11.42,35.63c-.12.39-.48.65-.89.65h-14.41c-.3,0-.58-.14-.75-.38-.18-.24-.23-.55-.13-.83l11.42-35.62c.12-.39.48-.64.88-.64h14.42ZM195.06,387.28h14.41c.91,0,1.71-.58,1.98-1.45l11.42-35.63c.2-.64.1-1.31-.3-1.86-.4-.54-1.01-.85-1.68-.85h-14.42c-.91,0-1.7.58-1.98,1.44l-11.42,35.62c-.21.64-.1,1.32.3,1.86.4.54,1.01.86,1.68.86ZM220.9,348.64c.3,0,.57.14.75.38.18.24.22.54.13.83l-11.42,35.63c-.12.39-.48.65-.89.65h-14.41c-.3,0-.58-.14-.75-.38-.18-.24-.23-.55-.13-.83l11.42-35.62c.12-.39.48-.64.88-.64h14.42ZM158.43,386.7h14.41c.65,0,1.23-.42,1.43-1.04l23.8-74.26c.31-.97-.41-1.96-1.43-1.96h-14.41c-.65,0-1.23.42-1.43,1.04l-23.8,74.26c-.31.97.41,1.96,1.43,1.96ZM85.1,386.7h14.41c.65,0,1.23-.42,1.43-1.04l23.8-74.26c.31-.97-.41-1.96-1.43-1.96h-14.41c-.65,0-1.23.42-1.43,1.04l-23.8,74.26c-.31.97.41,1.96,1.43,1.96ZM134.2,348.74h14.41c.91,0,1.71-.58,1.98-1.45l11.42-35.63c.2-.64.1-1.31-.3-1.86-.39-.54-1.01-.85-1.68-.85h-14.42c-.91,0-1.7.58-1.98,1.44l-11.42,35.62c-.21.64-.1,1.32.3,1.86.4.54,1.01.86,1.68.86ZM160.03,310.1c.3,0,.57.14.75.38.18.24.22.54.13.83l-11.42,35.63c-.12.39-.48.65-.89.65h-14.41c-.3,0-.58-.14-.75-.38-.18-.24-.23-.55-.13-.83l11.42-35.62c.12-.39.48-.64.88-.64h14.42ZM48.39,387.28h14.41c.91,0,1.71-.58,1.98-1.45l11.42-35.63c.2-.64.1-1.31-.3-1.86-.4-.54-1.01-.85-1.68-.85h-14.42c-.91,0-1.7.58-1.98,1.44l-11.42,35.62c-.21.64-.1,1.32.3,1.86.4.54,1.01.86,1.68.86ZM74.23,348.64c.3,0,.57.14.75.38.18.24.22.54.13.83l-11.42,35.63c-.12.39-.48.65-.89.65h-14.41c-.3,0-.58-.14-.75-.38-.18-.24-.23-.55-.13-.83l11.42-35.62c.12-.39.48-.64.88-.64h14.42ZM263.14,464.54h14.41c.91,0,1.7-.58,1.98-1.44l23.8-74.26c.2-.64.1-1.31-.3-1.85-.4-.54-1.01-.85-1.68-.85h-14.41c-.91,0-1.71.58-1.98,1.44l-23.8,74.26c-.2.64-.1,1.31.3,1.85.4.54,1.01.85,1.68.85ZM301.36,387.28c.3,0,.58.14.75.38.18.24.22.54.13.82l-23.8,74.26c-.12.39-.48.64-.89.64h-14.41c-.3,0-.58-.14-.75-.38-.18-.24-.22-.54-.13-.82l23.8-74.26c.12-.39.48-.64.89-.64h14.41ZM189.81,463.96h14.41c.65,0,1.23-.42,1.43-1.04l23.8-74.26c.31-.97-.41-1.96-1.43-1.96h-14.41c-.65,0-1.23.42-1.43,1.04l-23.8,74.26c-.31.97.41,1.96,1.43,1.96ZM238.9,426h14.41c.91,0,1.71-.58,1.98-1.45l11.42-35.63c.2-.64.1-1.32-.3-1.86-.39-.54-1.01-.85-1.68-.85h-14.42c-.91,0-1.7.58-1.98,1.44l-11.42,35.62c-.21.64-.1,1.32.3,1.86.4.54,1.01.86,1.68.86ZM264.74,387.37c.3,0,.57.14.75.38.18.24.22.54.13.83l-11.42,35.63c-.12.39-.48.65-.89.65h-14.41c-.3,0-.58-.14-.75-.38-.18-.24-.23-.55-.13-.83l11.42-35.62c.12-.39.48-.64.88-.64h14.42ZM153.1,464.54h14.41c.91,0,1.71-.58,1.98-1.45l11.42-35.63c.2-.64.1-1.32-.3-1.86-.39-.54-1.01-.85-1.68-.85h-14.42c-.91,0-1.7.58-1.98,1.44l-11.42,35.62c-.21.64-.1,1.32.3,1.86.4.54,1.01.86,1.68.86ZM178.94,425.91c.3,0,.57.14.75.38.18.24.22.54.13.83l-11.42,35.63c-.12.39-.48.65-.89.65h-14.41c-.3,0-.58-.14-.75-.38-.18-.24-.23-.55-.13-.83l11.42-35.62c.12-.39.48-.64.88-.64h14.42ZM116.48,464.54h14.41c.91,0,1.71-.58,1.98-1.44l23.8-74.26c.2-.64.1-1.31-.3-1.85-.4-.54-1.01-.85-1.68-.85h-14.41c-.91,0-1.7.58-1.98,1.44l-23.8,74.26c-.2.64-.1,1.31.3,1.85.4.54,1.01.85,1.68.85ZM154.69,387.28c.3,0,.58.14.75.38.18.24.22.54.13.82l-23.8,74.26c-.12.39-.48.64-.89.64h-14.41c-.3,0-.58-.14-.75-.38-.18-.24-.22-.54-.13-.82l23.8-74.26c.12-.39.48-.64.89-.64h14.41ZM43.14,463.96h14.41c.65,0,1.23-.42,1.43-1.04l23.8-74.26c.31-.97-.41-1.96-1.43-1.96h-14.41c-.65,0-1.23.42-1.43,1.04l-23.8,74.26c-.31.97.41,1.96,1.43,1.96ZM92.24,426h14.41c.91,0,1.71-.58,1.98-1.45l11.42-35.63c.2-.64.1-1.32-.3-1.86-.39-.54-1.01-.85-1.68-.85h-14.42c-.91,0-1.7.58-1.98,1.44l-11.42,35.62c-.21.64-.1,1.32.3,1.86.4.54,1.01.86,1.68.86ZM118.08,387.37c.3,0,.57.14.75.38.18.24.22.54.13.83l-11.42,35.63c-.12.39-.48.65-.89.65h-14.41c-.3,0-.58-.14-.75-.38-.18-.24-.23-.55-.13-.83l11.42-35.62c.12-.39.48-.64.88-.64h14.42ZM221.5,541.71h14.41c.91,0,1.7-.58,1.98-1.44l23.8-74.26c.2-.64.1-1.31-.3-1.85-.4-.54-1.01-.85-1.68-.85h-14.41c-.91,0-1.71.58-1.98,1.44l-23.8,74.26c-.2.64-.1,1.31.3,1.85.4.54,1.01.85,1.68.85ZM259.72,464.45c.3,0,.58.14.75.38.18.24.22.54.13.82l-23.8,74.26c-.12.39-.48.64-.89.64h-14.41c-.3,0-.58-.14-.75-.38-.18-.24-.22-.54-.13-.82l23.8-74.26c.12-.39.48-.64.89-.64h14.41ZM197.27,503.17h14.41c.91,0,1.71-.58,1.98-1.45l11.42-35.63c.2-.64.1-1.32-.3-1.86-.39-.54-1.01-.85-1.68-.85h-14.42c-.91,0-1.7.58-1.98,1.44l-11.42,35.62c-.21.64-.1,1.32.3,1.86.4.54,1.01.86,1.68.86ZM223.1,464.54c.3,0,.57.14.75.38.18.24.22.54.13.83l-11.42,35.63c-.12.39-.48.65-.89.65h-14.41c-.3,0-.58-.14-.75-.38-.18-.24-.23-.55-.13-.83l11.42-35.62c.12-.39.48-.64.88-.64h14.42ZM111.46,541.71h14.41c.91,0,1.71-.58,1.98-1.45l11.42-35.63c.2-.64.1-1.32-.3-1.86-.39-.54-1.01-.85-1.68-.85h-14.42c-.91,0-1.7.58-1.98,1.44l-11.42,35.62c-.21.64-.1,1.32.3,1.86.4.54,1.01.86,1.68.86ZM137.3,503.08c.3,0,.57.14.75.38.18.24.22.54.13.83l-11.42,35.63c-.12.39-.48.65-.89.65h-14.41c-.3,0-.58-.14-.75-.38-.18-.24-.23-.55-.13-.83l11.42-35.62c.12-.39.48-.64.88-.64h14.42ZM74.84,541.71h14.41c.91,0,1.71-.58,1.98-1.44l23.8-74.26c.2-.64.1-1.31-.3-1.85-.4-.54-1.01-.85-1.68-.85h-14.41c-.91,0-1.7.58-1.98,1.44l-23.8,74.26c-.2.64-.1,1.31.3,1.85.4.54,1.01.85,1.68.85ZM113.06,464.45c.3,0,.58.14.75.38.18.24.22.54.13.82l-23.8,74.26c-.12.39-.48.64-.89.64h-14.41c-.3,0-.58-.14-.75-.38-.18-.24-.22-.54-.13-.82l23.8-74.26c.12-.39.48-.64.89-.64h14.41ZM1.51,541.13h14.41c.65,0,1.23-.42,1.43-1.04l23.8-74.26c.31-.97-.41-1.96-1.43-1.96h-14.41c-.65,0-1.23.42-1.43,1.04L.07,539.17c-.31.97.41,1.96,1.43,1.96ZM50.6,503.17h14.41c.91,0,1.71-.58,1.98-1.45l11.42-35.63c.2-.64.1-1.32-.3-1.86-.39-.54-1.01-.85-1.68-.85h-14.42c-.91,0-1.7.58-1.98,1.44l-11.42,35.62c-.21.64-.1,1.32.3,1.86.4.54,1.01.86,1.68.86ZM76.44,464.54c.3,0,.57.14.75.38.18.24.22.54.13.83l-11.42,35.63c-.12.39-.48.65-.89.65h-14.41c-.3,0-.58-.14-.75-.38-.18-.24-.23-.55-.13-.83l11.42-35.62c.12-.39.48-.64.88-.64h14.42ZM58.09,616.44l-23.8-74.26c-.2-.62-.78-1.04-1.43-1.04h-14.41c-1.02,0-1.74.99-1.43,1.96l23.8,74.26c.2.62.78,1.04,1.43,1.04h14.41c1.02,0,1.74-.99,1.43-1.96ZM131.42,616.44l-23.8-74.26c-.2-.62-.78-1.04-1.43-1.04h-14.41c-1.02,0-1.74.99-1.43,1.96l23.8,74.26c.2.62.78,1.04,1.43,1.04h14.41c1.02,0,1.74-.99,1.43-1.96ZM82.57,579.57c.4-.54.51-1.22.3-1.86l-11.42-35.62c-.28-.86-1.07-1.44-1.98-1.44h-14.42c-.67,0-1.28.31-1.68.85-.39.54-.5,1.22-.3,1.86l11.42,35.63c.28.87,1.07,1.45,1.98,1.45h14.41c.67,0,1.29-.31,1.68-.86ZM69.48,541.8c.4,0,.76.26.88.64l11.42,35.62c.09.29.04.59-.13.83-.18.24-.45.38-.75.38h-14.41c-.41,0-.76-.26-.89-.65l-11.42-35.63c-.09-.28-.04-.59.13-.83.18-.24.45-.38.75-.38h14.42ZM168.38,618.11c.4-.54.51-1.22.3-1.86l-11.42-35.62c-.28-.86-1.07-1.44-1.98-1.44h-14.42c-.67,0-1.28.31-1.68.85-.4.54-.5,1.22-.3,1.86l11.42,35.63c.28.87,1.07,1.45,1.98,1.45h14.41c.67,0,1.29-.31,1.68-.86ZM155.28,580.34c.4,0,.76.26.88.64l11.42,35.62c.09.29.04.59-.13.83-.18.24-.45.38-.75.38h-14.41c-.41,0-.76-.26-.89-.65l-11.42-35.63c-.09-.28-.04-.59.13-.83.18-.24.45-.38.75-.38h14.42ZM204.75,616.44l-23.8-74.26c-.2-.62-.78-1.04-1.43-1.04h-14.41c-1.02,0-1.74.99-1.43,1.96l23.8,74.26c.2.62.78,1.04,1.43,1.04h14.41c1.02,0,1.74-.99,1.43-1.96ZM278.09,616.44l-23.8-74.26c-.2-.62-.78-1.04-1.43-1.04h-14.41c-1.02,0-1.74.99-1.43,1.96l23.8,74.26c.2.62.78,1.04,1.43,1.04h14.41c1.02,0,1.74-.99,1.43-1.96ZM229.24,579.57c.4-.54.51-1.22.3-1.86l-11.42-35.62c-.28-.86-1.07-1.44-1.98-1.44h-14.42c-.67,0-1.28.31-1.68.85-.39.54-.5,1.22-.3,1.86l11.42,35.63c.28.87,1.07,1.45,1.98,1.45h14.41c.67,0,1.29-.31,1.68-.86ZM216.14,541.8c.4,0,.76.26.88.64l11.42,35.62c.09.29.04.59-.13.83-.18.24-.45.38-.75.38h-14.41c-.41,0-.76-.26-.89-.65l-11.42-35.63c-.09-.28-.04-.59.13-.83.18-.24.45-.38.75-.38h14.42ZM315.04,618.11c.4-.54.51-1.22.3-1.86l-11.42-35.62c-.28-.86-1.07-1.44-1.98-1.44h-14.42c-.67,0-1.28.31-1.68.85-.4.54-.5,1.22-.3,1.86l11.42,35.63c.28.87,1.07,1.45,1.98,1.45h14.41c.67,0,1.29-.31,1.68-.86ZM301.94,580.34c.4,0,.76.26.88.64l11.42,35.62c.09.29.04.59-.13.83s-.45.38-.75.38h-14.41c-.41,0-.76-.26-.89-.65l-11.42-35.63c-.09-.28-.04-.59.13-.83.18-.24.45-.38.75-.38h14.42ZM100.29,695.37c.39-.54.5-1.22.3-1.85l-23.8-74.26c-.28-.86-1.07-1.44-1.98-1.44h-14.41c-.67,0-1.29.31-1.68.85-.39.54-.5,1.22-.3,1.85l23.8,74.26c.28.86,1.07,1.44,1.98,1.44h14.41c.67,0,1.29-.31,1.68-.85ZM74.81,618.97c.41,0,.76.26.89.64l23.8,74.26c.09.28.04.58-.13.82-.18.24-.45.38-.75.38h-14.41c-.41,0-.76-.26-.89-.64l-23.8-74.26c-.09-.28-.04-.58.13-.83.18-.24.45-.38.75-.38h14.41ZM173.38,693.7l-23.8-74.26c-.2-.62-.78-1.04-1.43-1.04h-14.41c-1.02,0-1.74.99-1.43,1.96l23.8,74.26c.2.62.78,1.04,1.43,1.04h14.41c1.02,0,1.74-.99,1.43-1.96ZM124.53,656.83c.4-.54.51-1.22.3-1.86l-11.42-35.62c-.28-.86-1.07-1.44-1.98-1.44h-14.42c-.67,0-1.28.31-1.68.85-.39.54-.5,1.22-.3,1.86l11.42,35.63c.28.87,1.07,1.45,1.98,1.45h14.41c.67,0,1.29-.31,1.68-.86ZM111.43,619.06c.4,0,.76.26.88.64l11.42,35.62c.09.29.04.59-.13.83-.18.24-.45.38-.75.38h-14.41c-.41,0-.76-.26-.89-.65l-11.42-35.63c-.09-.28-.04-.58.13-.83.18-.24.45-.38.75-.38h14.42ZM210.33,695.37c.4-.54.51-1.22.3-1.86l-11.42-35.62c-.28-.86-1.07-1.44-1.98-1.44h-14.42c-.67,0-1.28.31-1.68.85-.39.54-.5,1.22-.3,1.86l11.42,35.63c.28.87,1.07,1.45,1.98,1.45h14.41c.67,0,1.29-.31,1.68-.86ZM197.24,657.6c.4,0,.76.26.88.64l11.42,35.62c.09.29.04.59-.13.83-.18.24-.45.38-.75.38h-14.41c-.41,0-.76-.26-.89-.65l-11.42-35.63c-.09-.28-.04-.58.13-.83.18-.24.45-.38.75-.38h14.42ZM246.96,695.37c.39-.54.5-1.22.3-1.85l-23.8-74.26c-.28-.86-1.07-1.44-1.98-1.44h-14.41c-.67,0-1.29.31-1.68.85-.39.54-.5,1.22-.3,1.85l23.8,74.26c.28.86,1.07,1.44,1.98,1.44h14.41c.67,0,1.29-.31,1.68-.85ZM221.47,618.97c.41,0,.76.26.89.64l23.8,74.26c.09.28.04.58-.13.82-.18.24-.45.38-.75.38h-14.41c-.41,0-.76-.26-.89-.64l-23.8-74.26c-.09-.28-.04-.58.13-.83.18-.24.45-.38.75-.38h14.41ZM320.04,693.7l-23.8-74.26c-.2-.62-.78-1.04-1.43-1.04h-14.41c-1.02,0-1.74.99-1.43,1.96l23.8,74.26c.2.62.78,1.04,1.43,1.04h14.41c1.02,0,1.74-.99,1.43-1.96ZM271.19,656.83c.4-.54.51-1.22.3-1.86l-11.42-35.62c-.28-.86-1.07-1.44-1.98-1.44h-14.42c-.67,0-1.28.31-1.68.85-.39.54-.5,1.22-.3,1.86l11.42,35.63c.28.87,1.07,1.45,1.98,1.45h14.41c.67,0,1.29-.31,1.68-.86ZM258.1,619.06c.4,0,.76.26.88.64l11.42,35.62c.09.29.04.59-.13.83-.18.24-.45.38-.75.38h-14.41c-.41,0-.76-.26-.89-.65l-11.42-35.63c-.09-.28-.04-.58.13-.83.18-.24.45-.38.75-.38h14.42ZM298.43,772.82h14.41c.65,0,1.23-.42,1.43-1.04l23.8-74.26c.31-.97-.41-1.96-1.43-1.96h-14.41c-.65,0-1.23.42-1.43,1.04l-23.8,74.26c-.31.97.41,1.96,1.43,1.96ZM225.1,772.82h14.41c.65,0,1.23-.42,1.43-1.04l23.8-74.26c.31-.97-.41-1.96-1.43-1.96h-14.41c-.65,0-1.23.42-1.43,1.04l-23.8,74.26c-.31.97.41,1.96,1.43,1.96ZM274.19,734.86h14.41c.91,0,1.71-.58,1.98-1.45l11.42-35.63c.2-.64.1-1.31-.3-1.86s-1.01-.85-1.68-.85h-14.42c-.91,0-1.7.58-1.98,1.44l-11.42,35.62c-.21.64-.1,1.32.3,1.86.4.54,1.01.86,1.68.86ZM300.03,696.23c.3,0,.57.14.75.38.18.24.22.54.13.83l-11.42,35.63c-.12.39-.48.65-.89.65h-14.41c-.3,0-.58-.14-.75-.38-.18-.24-.23-.55-.13-.83l11.42-35.62c.12-.39.48-.64.88-.64h14.42ZM188.39,773.4h14.41c.91,0,1.71-.58,1.98-1.45l11.42-35.63c.2-.64.1-1.31-.3-1.86-.4-.54-1.01-.85-1.68-.85h-14.42c-.91,0-1.7.58-1.98,1.44l-11.42,35.62c-.21.64-.1,1.32.3,1.86.4.54,1.01.86,1.68.86ZM214.23,734.77c.3,0,.57.14.75.38.18.24.22.54.13.83l-11.42,35.63c-.12.39-.48.65-.89.65h-14.41c-.3,0-.58-.14-.75-.38-.18-.24-.23-.55-.13-.83l11.42-35.62c.12-.39.48-.64.88-.64h14.42ZM151.76,772.82h14.41c.65,0,1.23-.42,1.43-1.04l23.8-74.26c.31-.97-.41-1.96-1.43-1.96h-14.41c-.65,0-1.23.42-1.43,1.04l-23.8,74.26c-.31.97.41,1.96,1.43,1.96ZM78.43,772.82h14.41c.65,0,1.23-.42,1.43-1.04l23.8-74.26c.31-.97-.41-1.96-1.43-1.96h-14.41c-.65,0-1.23.42-1.43,1.04l-23.8,74.26c-.31.97.41,1.96,1.43,1.96ZM127.53,734.86h14.41c.91,0,1.71-.58,1.98-1.45l11.42-35.63c.2-.64.1-1.31-.3-1.86-.39-.54-1.01-.85-1.68-.85h-14.42c-.91,0-1.7.58-1.98,1.44l-11.42,35.62c-.21.64-.1,1.32.3,1.86.4.54,1.01.86,1.68.86ZM153.37,696.23c.3,0,.57.14.75.38.18.24.22.54.13.83l-11.42,35.63c-.12.39-.48.65-.89.65h-14.41c-.3,0-.58-.14-.75-.38-.18-.24-.23-.55-.13-.83l11.42-35.62c.12-.39.48-.64.88-.64h14.42ZM41.73,773.4h14.41c.91,0,1.71-.58,1.98-1.45l11.42-35.63c.2-.64.1-1.31-.3-1.86-.4-.54-1.01-.85-1.68-.85h-14.42c-.91,0-1.7.58-1.98,1.44l-11.42,35.62c-.21.64-.1,1.32.3,1.86.4.54,1.01.86,1.68.86ZM67.56,734.77c.3,0,.57.14.75.38.18.24.22.54.13.83l-11.42,35.63c-.12.39-.48.65-.89.65h-14.41c-.3,0-.58-.14-.75-.38-.18-.24-.23-.55-.13-.83l11.42-35.62c.12-.39.48-.64.88-.64h14.42ZM256.47,850.66h14.41c.91,0,1.7-.58,1.98-1.44l23.8-74.26c.2-.64.1-1.31-.3-1.85-.4-.54-1.01-.85-1.68-.85h-14.41c-.91,0-1.71.58-1.98,1.44l-23.8,74.26c-.2.64-.1,1.31.3,1.85.4.54,1.01.85,1.68.85ZM294.69,773.4c.3,0,.58.14.75.38.18.24.22.54.13.82l-23.8,74.26c-.12.39-.48.64-.89.64h-14.41c-.3,0-.58-.14-.75-.38-.18-.24-.22-.54-.13-.82l23.8-74.26c.12-.39.48-.64.89-.64h14.41ZM183.14,850.09h14.41c.65,0,1.23-.42,1.43-1.04l23.8-74.26c.31-.97-.41-1.96-1.43-1.96h-14.41c-.65,0-1.23.42-1.43,1.04l-23.8,74.26c-.31.97.41,1.96,1.43,1.96ZM232.24,812.12h14.41c.91,0,1.71-.58,1.98-1.45l11.42-35.63c.2-.64.1-1.32-.3-1.86-.39-.54-1.01-.85-1.68-.85h-14.42c-.91,0-1.7.58-1.98,1.44l-11.42,35.62c-.21.64-.1,1.32.3,1.86.4.54,1.01.86,1.68.86ZM258.07,773.49c.3,0,.57.14.75.38.18.24.22.54.13.83l-11.42,35.63c-.12.39-.48.65-.89.65h-14.41c-.3,0-.58-.14-.75-.38-.18-.24-.23-.55-.13-.83l11.42-35.62c.12-.39.48-.64.88-.64h14.42ZM146.43,850.66h14.41c.91,0,1.71-.58,1.98-1.45l11.42-35.63c.2-.64.1-1.32-.3-1.86-.39-.54-1.01-.85-1.68-.85h-14.42c-.91,0-1.7.58-1.98,1.44l-11.42,35.62c-.21.64-.1,1.32.3,1.86.4.54,1.01.86,1.68.86ZM172.27,812.03c.3,0,.57.14.75.38.18.24.22.54.13.83l-11.42,35.63c-.12.39-.48.65-.89.65h-14.41c-.3,0-.58-.14-.75-.38-.18-.24-.23-.55-.13-.83l11.42-35.62c.12-.39.48-.64.88-.64h14.42ZM109.81,850.66h14.41c.91,0,1.71-.58,1.98-1.44l23.8-74.26c.2-.64.1-1.31-.3-1.85-.4-.54-1.01-.85-1.68-.85h-14.41c-.91,0-1.7.58-1.98,1.44l-23.8,74.26c-.2.64-.1,1.31.3,1.85.4.54,1.01.85,1.68.85ZM148.03,773.4c.3,0,.58.14.75.38.18.24.22.54.13.82l-23.8,74.26c-.12.39-.48.64-.89.64h-14.41c-.3,0-.58-.14-.75-.38-.18-.24-.22-.54-.13-.82l23.8-74.26c.12-.39.48-.64.89-.64h14.41ZM36.48,850.09h14.41c.65,0,1.23-.42,1.43-1.04l23.8-74.26c.31-.97-.41-1.96-1.43-1.96h-14.41c-.65,0-1.23.42-1.43,1.04l-23.8,74.26c-.31.97.41,1.96,1.43,1.96ZM85.57,812.12h14.41c.91,0,1.71-.58,1.98-1.45l11.42-35.63c.2-.64.1-1.32-.3-1.86-.39-.54-1.01-.85-1.68-.85h-14.42c-.91,0-1.7.58-1.98,1.44l-11.42,35.62c-.21.64-.1,1.32.3,1.86.4.54,1.01.86,1.68.86ZM111.41,773.49c.3,0,.57.14.75.38.18.24.22.54.13.83l-11.42,35.63c-.12.39-.48.65-.89.65h-14.41c-.3,0-.58-.14-.75-.38-.18-.24-.23-.55-.13-.83l11.42-35.62c.12-.39.48-.64.88-.64h14.42Z"/>
    </g>
  </g>
</svg>